<svg id="Layer_1" data-name="Layer 1" xmlns="http://www.w3.org/2000/svg" viewBox="0 0 342 100"><defs><style>.cls-1{fill:gray;}</style></defs><path class="cls-1" d="M67.68,7.24v.11h-.12a15.6,15.6,0,0,0-7.37,2.29,52.87,52.87,0,0,0-8.37,5.86Q49,17.84,46.3,20.58c-1.83,1.82-3.56,3.63-5.2,5.41-1.19,1.34-2.3,2.63-3.34,3.85s-2,2.44-2.91,3.63q-2,2.56-3.79,5.19c-1.19,1.75-2.35,3.48-3.46,5.19A93.57,93.57,0,0,0,21,57.2a39.89,39.89,0,0,0-2.9,12.22A9.54,9.54,0,0,0,18,70.87v1.34q0,8.15,3.86,12.62T33.74,91a27.94,27.94,0,0,0,3.68.61c1.19.11,2.34.17,3.46.17a30.61,30.61,0,0,0,4.19-.28c1.37-.19,2.7-.39,4-.61a44.48,44.48,0,0,0,4.41-1.12c1.45-.45,3-.89,4.52-1.34l2.68-.67c.89-.22,1.82-.45,2.79-.67l6.7-1.62L76.05,84C78,83.6,80,83.15,82,82.71s4.24-.86,6.69-1.23a7.82,7.82,0,0,1,.84-.17,7.82,7.82,0,0,0,.84-.17l4.58-.84c1.41-.25,2.82-.5,4.24-.72,1.26-.22,2.55-.39,3.85-.5s2.7-.17,4.19-.17h1.45a2.36,2.36,0,0,0,.72.11h.73A65.72,65.72,0,0,1,129,82.48,57.42,57.42,0,0,1,144.6,91.3c1,.82,2.1,1.71,3.18,2.68s2.14,2,3.18,3a22.89,22.89,0,0,0-6.31-3.47,43.53,43.53,0,0,0-7.42-2,36.62,36.62,0,0,0-4.08-.44c-1.37-.08-2.7-.11-4-.11-1,0-1.88,0-2.74,0s-1.69.1-2.51.17a16.8,16.8,0,0,0-4.07,1.17,23.64,23.64,0,0,0-3.52,1.84,26.17,26.17,0,0,0-2.57,1.85c-.67.55-1.15,1-1.45,1.17-.59-.52-1.32-1.21-2.18-2.07A23.91,23.91,0,0,0,107,92.53a40.5,40.5,0,0,0-6.3-3.13,35.14,35.14,0,0,0-9.77-2.12,8.75,8.75,0,0,0-1.34-.11H88.22a51.7,51.7,0,0,0-11.39,1.34q-5.92,1.33-12.73,3l-2.45.68q-1.23.33-2.46.78-6.36,1.89-12.39,3.46A47.17,47.17,0,0,1,35,98H33.79a6.28,6.28,0,0,1-1.17-.11c-.45,0-.87,0-1.28-.06a10.83,10.83,0,0,1-1.18-.16q-2.34-.35-5.41-.84a30.66,30.66,0,0,1-6.2-1.73,28.22,28.22,0,0,1-11.16-8Q2.26,81.36,2,69.2A38.22,38.22,0,0,1,7.78,49.05a134,134,0,0,1,14.34-19.6A105.75,105.75,0,0,1,33.79,18,93.18,93.18,0,0,1,46.24,9.13,58.61,58.61,0,0,1,56.57,4.39a35.28,35.28,0,0,1,9.77-1.95h.22a9,9,0,0,1,5.8,2.06,7.58,7.58,0,0,1,2.91,5.3v1.79a3.8,3.8,0,0,1-.11.89A13.82,13.82,0,0,1,72.25,19a6.74,6.74,0,0,1-5.36,3h-.5a1,1,0,0,1-.5-.11,4,4,0,0,1-2.29-1.17,2.92,2.92,0,0,1-.73-2,4.26,4.26,0,0,1,.4-1.78,14,14,0,0,1,.94-1.79,7.62,7.62,0,0,1,1.4-1.62,8.5,8.5,0,0,1,1.73-1.17,8.19,8.19,0,0,1,2-1A5.18,5.18,0,0,1,70.91,11h.23V9.64A.35.35,0,0,0,71,9.36,2.06,2.06,0,0,0,70.24,8a4.6,4.6,0,0,0-2.56-.67ZM250.77,2.55a37.46,37.46,0,0,1,5.8.56,31.21,31.21,0,0,1,4.58,1.22c.89.38,1.78.79,2.68,1.23s1.9,1,3,1.56c.67.38,1.36.75,2.07,1.12s1.43.78,2.18,1.23a5.69,5.69,0,0,0,.66.39,5.07,5.07,0,0,1,.67.39c2.09,1.19,4,2.33,5.75,3.4s2.85,1.77,3.3,2.07l-8.15,8.6c-1-.52-1.9-1.05-2.79-1.57l-2.68-1.56-1-.5a6.52,6.52,0,0,1-1-.62c-.67-.37-1.38-.74-2.12-1.11s-1.53-.75-2.35-1.12q-2.34-1.23-4.24-2.29c-1.27-.7-2.53-1.39-3.8-2.06a52.22,52.22,0,0,0-4.85-2.24,29.05,29.05,0,0,0-5.86-1.56,8.92,8.92,0,0,0-1-.17c-.34,0-.62,0-.84,0a8.37,8.37,0,0,0-1.4.11,5.82,5.82,0,0,0-1.17.34A.44.44,0,0,0,238,10l-.11.06a1.17,1.17,0,0,0-.56.11,1.06,1.06,0,0,1-.45.11,3.37,3.37,0,0,1,.23.67c.07.3.14.6.22.89.07.52.17,1.14.28,1.84a14.25,14.25,0,0,1,.17,2.18,19.28,19.28,0,0,1-.23,3.07,17.38,17.38,0,0,1-.67,2.74c-.22.74-.46,1.49-.72,2.23s-.58,1.53-.95,2.34a29.48,29.48,0,0,1-5.53,8.55,26.41,26.41,0,0,1-7.09,5.52,20.23,20.23,0,0,1-3.79,1.56,12.47,12.47,0,0,1-3.58.56,6.5,6.5,0,0,1-2.4-.22,7.91,7.91,0,0,1-2.06-.89,4.89,4.89,0,0,1-1.68-2,6.43,6.43,0,0,1-.55-2.68,12.48,12.48,0,0,1,.44-3.24c.3-1.12.67-2.27,1.12-3.46a35.28,35.28,0,0,1,1.56-3.52c.6-1.15,1.19-2.21,1.79-3.18a30,30,0,0,1,3.46-4.52q2-2.17,4-4a46.44,46.44,0,0,1,5.36-4.13,19.51,19.51,0,0,1,3.9-2.13,3.61,3.61,0,0,1-.39-.22,3.39,3.39,0,0,0-.39-.22,3.55,3.55,0,0,0-.78-.39,3.67,3.67,0,0,0-1.23-.17h-.55a2.19,2.19,0,0,0-.67.11,28.13,28.13,0,0,0-5.08,1.62,43.12,43.12,0,0,0-6,3.07l-2.79,1.9c-1,.67-1.9,1.37-2.79,2.12-2.08,1.79-4,3.52-5.8,5.19s-3.43,3.33-4.92,5c-1.78,1.93-3.46,3.91-5,5.92s-3.09,4.09-4.58,6.25c-1.11,1.56-2.25,3.23-3.4,5s-2.33,3.65-3.52,5.58S180,53.14,179,55a44.36,44.36,0,0,0-2.45,5.42,49.74,49.74,0,0,0-2.24,7.92,45.8,45.8,0,0,0-.78,8.71,19.83,19.83,0,0,0,1.62,8.54,7.2,7.2,0,0,0,5.75,4.08c.37.07.76.13,1.17.17s.8,0,1.17,0a17.54,17.54,0,0,0,10.05-3.29,36.26,36.26,0,0,0,8.49-8.21,2.21,2.21,0,0,1,.28-.45,2.27,2.27,0,0,0,.27-.44,29.73,29.73,0,0,0,2.52-4Q206,71.21,207,68.86A45.11,45.11,0,0,0,208.68,64a16.5,16.5,0,0,0,.67-4.3,6.33,6.33,0,0,0-.62-3,2.71,2.71,0,0,0-2.17-1.4h-.23a.1.1,0,0,1-.11-.11h-.44a5,5,0,0,0-3.58,1.4,32,32,0,0,0-2.79,3.07c-.07,0-.11,0-.11,0s0,.06-.11.06a3.36,3.36,0,0,1-.23.39,1.6,1.6,0,0,1-.22.28,7.77,7.77,0,0,0-1.17,1.9,15.8,15.8,0,0,0-.84,2.34,34.71,34.71,0,0,0-1,3.91c-.23,1.19-.41,1.82-.56,1.9-.6.22-1.14.44-1.62.67s-.91.41-1.28.55a4,4,0,0,0-.56.23,1.43,1.43,0,0,0-.34.22,7.17,7.17,0,0,0-1,.5l-1,.62-.72.5-.84.61a4.74,4.74,0,0,0-.67.56,4.74,4.74,0,0,1-.67.56c-.89.82-1.69,1.54-2.4,2.18s-1.17.87-1.39.72a1.16,1.16,0,0,1-.17-.61,11.27,11.27,0,0,1-.06-1.29,39.46,39.46,0,0,1,.39-4.8,32,32,0,0,1,1.51-6.25A30.86,30.86,0,0,1,186,61.33a16.81,16.81,0,0,1,2.46-3.74,23.36,23.36,0,0,1,6.92-5.81,16.73,16.73,0,0,1,8-2.12q.9,0,1.62.06a10.12,10.12,0,0,1,6.59,3.4,10.12,10.12,0,0,1,1.5,5.58,22.35,22.35,0,0,1-.67,5.25,33.07,33.07,0,0,1-1.89,5.58A56.86,56.86,0,0,1,208.06,75q-1.4,2.63-2.84,5a46.76,46.76,0,0,1-12.12,12.9,25.24,25.24,0,0,1-14.9,5H177a8.43,8.43,0,0,1-1.29-.11,29.28,29.28,0,0,1-13-4.19q-5.31-3.41-5.31-13.12a36.59,36.59,0,0,1,.23-4c.15-1.38.37-2.89.67-4.52A67.58,67.58,0,0,1,164,55.13a116.68,116.68,0,0,1,8.09-14.07q2.24-3.35,4.47-6.14t4.13-5c.89-1,1.84-2.08,2.84-3.13s2-2.08,3.07-3.12a105.57,105.57,0,0,1,18-13.85,46.68,46.68,0,0,1,21.66-7.14h.55a9.06,9.06,0,0,1,2.57.33,13.52,13.52,0,0,1,2.23.9,15.48,15.48,0,0,1,1.4.78,10.78,10.78,0,0,0,1.51.78,3.08,3.08,0,0,1,.61.28l.5.28c1.12-.52,2.18-1,3.18-1.34s2-.71,3-1a25.65,25.65,0,0,1,4.19-.78,47.66,47.66,0,0,1,4.86-.22Zm-18,8.93a32.29,32.29,0,0,0-3.24,1.62,31,31,0,0,0-3.9,2.62,32.75,32.75,0,0,0-3.52,3.07,24.33,24.33,0,0,0-3.07,3.74,8.53,8.53,0,0,0-.61.95,8.61,8.61,0,0,1-.62.95c-.37.59-.72,1.19-1.06,1.78l-1.06,1.9a33.63,33.63,0,0,0-1.73,3.8,9.59,9.59,0,0,0-.72,3.35,3.28,3.28,0,0,0,.22,1.23,3,3,0,0,0,.67,1,3.59,3.59,0,0,0,1.06.62,3.72,3.72,0,0,0,1.17.16,7,7,0,0,0,2.46-.5,13,13,0,0,0,2.68-1.4,27.29,27.29,0,0,0,3.57-2.95,30.2,30.2,0,0,0,3.12-3.52l.45-.67.45-.67a28.41,28.41,0,0,0,3.35-7.31,22.08,22.08,0,0,0,.78-5.31c0-.81,0-1.6-.11-2.34a15,15,0,0,0-.34-2Zm42.54,28.58q-1.79,2.89-3.24,5.3t-2.68,4.75c-.59,1.11-1.19,2.25-1.79,3.4s-1.15,2.36-1.67,3.63c-.37.89-.76,1.79-1.17,2.68s-.8,1.86-1.17,2.9q3-2,7-5.08a90,90,0,0,0,8.26-7.2c.45-.45.87-.89,1.28-1.34s.84-.89,1.29-1.34c1.34-1.41,2.53-2.7,3.57-3.85s2-2.25,2.9-3.29L289,39.33l1.06-1.28c.75-.89,1.51-1.88,2.29-3s1.62-2.29,2.51-3.63l4.25-.78c-.9,1.49-1.75,2.83-2.57,4s-1.64,2.34-2.46,3.46l-1.56,2a21.61,21.61,0,0,1-1.67,1.9q-1.46,1.78-3.13,3.57L284,49.55c-1.42,1.49-2.78,2.86-4.08,4.13s-2.55,2.42-3.74,3.46-2.06,1.77-3.07,2.62a31.51,31.51,0,0,1-3.18,2.4c-1.19.9-2.42,1.77-3.69,2.63s-2.64,1.76-4.13,2.73a8.65,8.65,0,0,0-1,1.79q-.9,1.78-1.9,4.35-.33,1-.72,2c-.27.67-.51,1.34-.73,2a34.52,34.52,0,0,0-1.06,3.85,16.14,16.14,0,0,0-.39,3.3,3.77,3.77,0,0,0,.22,1.89,1.66,1.66,0,0,0,1.12,1,1,1,0,0,0,.39.11h.28a4.12,4.12,0,0,0,2.12-.67,14.71,14.71,0,0,0,2.23-1.67,22.75,22.75,0,0,0,1.73-1.68c.56-.59,1.1-1.23,1.62-1.9.3-.37.6-.72.89-1.06s.6-.69.9-1.06q5.81-7,10.1-13a91.56,91.56,0,0,1,8.21-9.93c.67-.6,1.3-1.18,1.89-1.73a15.17,15.17,0,0,1,1.9-1.51q.9-.68,1.68-1.17a9.92,9.92,0,0,1,1.56-.84,13.55,13.55,0,0,1,3.35-1.28,17.36,17.36,0,0,1,3.79-.4,11.87,11.87,0,0,1,3.74.45,6.23,6.23,0,0,1,2,1,3.62,3.62,0,0,1,.72.67,7.43,7.43,0,0,0,.51.55l.05.06.06.06a1.21,1.21,0,0,1,.17-.56,5.07,5.07,0,0,1,.39-.67.71.71,0,0,0,.16-.28.78.78,0,0,1,.17-.28,3.68,3.68,0,0,1,.28-.45,2.87,2.87,0,0,1,.28-.33,3,3,0,0,1,1.51-.28c.85,0,1.8-.06,2.84-.06h.67c1.27,0,2.46,0,3.58.11s1.71.19,1.78.34-.8,1.92-2.84,5.3S312.09,62.8,309.71,67a9.4,9.4,0,0,0-.56.84c-.14.26-.29.54-.44.84q-3.34,5.81-6,10.88c-1.74,3.39-2.62,5.64-2.62,6.76a.88.88,0,0,0,.06.28.71.71,0,0,0,.16.28,1.91,1.91,0,0,0,.51.16,2.34,2.34,0,0,0,.5.06,4,4,0,0,0,2.57-.89,22.73,22.73,0,0,0,3-2.57c.37-.37.75-.78,1.12-1.23L309.15,81c.3-.45.62-.93,1-1.45s.65-1,.95-1.56a3.68,3.68,0,0,1,.28-.45,2,2,0,0,0,.28-.56,15.52,15.52,0,0,1,1.84-2.62,1.8,1.8,0,0,1,2-.73q1.11.45-.73,4.08a48.07,48.07,0,0,1-5.3,8,48.69,48.69,0,0,1-4.19,4.74,45.12,45.12,0,0,1-4.63,4.08,26.66,26.66,0,0,1-3.74,2.23,8,8,0,0,1-3.52.9,7,7,0,0,1-4.46-1.18,7.12,7.12,0,0,1-2.13-2.73,14.53,14.53,0,0,1-.5-1.9c-.11-.6-.2-1-.28-1.34a.29.29,0,0,0-.05-.17.2.2,0,0,1-.06-.16,3.22,3.22,0,0,1-.78,1.33,18.28,18.28,0,0,1-2.12,2.24,18.49,18.49,0,0,1-3.85,2.68,10.14,10.14,0,0,1-4.86,1.23c-2.68,0-4.56-.66-5.64-2a7.76,7.76,0,0,1-1.84-4.3,1.15,1.15,0,0,1-.11-.5V90.3a14.15,14.15,0,0,1,.17-2.18c.11-.71.2-1.32.28-1.84s.15-.69.22-1a1.24,1.24,0,0,1,.22-.5,7,7,0,0,1-1.62,2.34,43.45,43.45,0,0,1-4,4l-1.67,1.45c-.6.52-1.2,1-1.79,1.45a26.07,26.07,0,0,1-3.68,2.57,6.66,6.66,0,0,1-3.13,1,6.49,6.49,0,0,1-5.14-2.35,8,8,0,0,1-2-5.36,25.2,25.2,0,0,1,.39-3.85c.27-1.6.58-3.26.95-5q.22-1.23.45-2.34a18.2,18.2,0,0,1,.56-2.12c.37-1.57.74-2.92,1.12-4.08a4.92,4.92,0,0,1,.89-1.95l-4.36.67a26.51,26.51,0,0,1-1.78,3.35q-1.46,2.44-3.35,5.24c-.37.6-.76,1.18-1.17,1.73s-.84,1.1-1.29,1.62a2.21,2.21,0,0,1-.28.45,3.91,3.91,0,0,1-.39.45,68.08,68.08,0,0,1-8.93,9.21,17,17,0,0,1-10,4.3h-.55a7.5,7.5,0,0,1-1.34-.12L214,97.33a10.68,10.68,0,0,1-4.13-2.4,7.49,7.49,0,0,1-2.24-5v-.78a1,1,0,0,1-.11-.39V88.4a23.87,23.87,0,0,1,1.73-8.6A59.91,59.91,0,0,1,215,69.2,56.2,56.2,0,0,1,219,63.89q2-2.4,4-4.41a40.29,40.29,0,0,1,9.93-7.25c3.2-1.57,5.81-2.31,7.82-2.24a9.26,9.26,0,0,1,5.52,1.9c1.53,1.19,2.37,3.17,2.52,5.92v.45a11,11,0,0,1-.11,1.45c-.08.52-.15,1-.23,1.56s-.31,1.34-.5,2a16.18,16.18,0,0,1-.61,1.79c-.3.74-.56,1.37-.79,1.89a3.92,3.92,0,0,1-.55,1l3.79-.89,2-5.2c.6-1.52,1.19-2.92,1.79-4.18a20,20,0,0,1,.95-2.07c.33-.63.65-1.28.94-2q1.13-2,2.41-4.24c.85-1.49,1.84-3.17,2.95-5s2.53-4,4-6.08,3.09-4.26,4.8-6.42l4.08-5q2.07-2.51,4.3-4.86,4.13-4.57,8.2-8.37a58.73,58.73,0,0,1,7.09-5.8A39,39,0,0,1,300.5,4a14.36,14.36,0,0,1,4.86-1c.59,0,1.15,0,1.67.06a7.85,7.85,0,0,1,1.57.28A3.46,3.46,0,0,1,311,4.67,5.06,5.06,0,0,1,312,7.35V8a7.67,7.67,0,0,1-.12,1.34c-.07.44-.14.93-.22,1.45a19,19,0,0,1-.56,1.84c-.22.63-.44,1.21-.67,1.73s-.56,1.08-.78,1.45a1.76,1.76,0,0,1-.56.67l-4,1a6.31,6.31,0,0,0,.62-.78,7.6,7.6,0,0,0,.72-1.34c.23-.45.45-.92.67-1.4a12,12,0,0,0,.56-1.4,8.56,8.56,0,0,0,.5-1.56,6.41,6.41,0,0,0,.17-1.45A3.57,3.57,0,0,0,308,8.07a1.53,1.53,0,0,0-1.06-.83.46.46,0,0,1-.22-.06l-.11-.06h-.45Q303,7,297.43,12.26a118.09,118.09,0,0,0-11.72,13.06q-2.68,3.46-5.3,7.2t-5.08,7.65ZM224.2,75.11a5.58,5.58,0,0,1-.28.67c-.11.23-.21.41-.28.56-.23.6-.47,1.19-.73,1.79s-.5,1.19-.72,1.78A21.55,21.55,0,0,0,221.13,83a10.79,10.79,0,0,0-.4,2.63A3,3,0,0,0,221,87a1.69,1.69,0,0,0,.73.78l.67.22a2.3,2.3,0,0,0,.78.11,7.35,7.35,0,0,0,2.9-.67,19.88,19.88,0,0,0,3.24-1.78,24.16,24.16,0,0,0,2.35-2,18.51,18.51,0,0,0,2.12-2.4c.29-.37.72-1,1.28-1.73s1.14-1.62,1.73-2.51a3.68,3.68,0,0,1,.28-.45,3,3,0,0,0,.28-.44c.59-1,1.15-1.92,1.67-2.85a14.5,14.5,0,0,0,1-2.06c-.75-.08-1.42-.17-2-.28a5.32,5.32,0,0,1-1.68-.62,2.33,2.33,0,0,1-.83-.39,6.9,6.9,0,0,0-.84-.5,11.33,11.33,0,0,1-2.51-2.12,12.7,12.7,0,0,1-1.73-2.79,18.35,18.35,0,0,0-1.57,2c-.44.67-.85,1.3-1.22,1.9s-.56,1-.78,1.45-.45.89-.67,1.34c-.38.67-.71,1.32-1,2s-.63,1.32-1,2.06Zm74.79-19a5.89,5.89,0,0,1-.61.56c-.18.15-.39.3-.61.45a30.5,30.5,0,0,0-3.8,3.79q-2.12,2.46-6.25,8c-.6.9-1.17,1.81-1.73,2.74s-1.1,1.84-1.62,2.73a43.41,43.41,0,0,0-2.51,6.09,16.73,16.73,0,0,0-.95,4.85,4.7,4.7,0,0,0,.17,1.34,1.37,1.37,0,0,0,.5.79,2.36,2.36,0,0,1,.39.22.71.71,0,0,0,.39.11.45.45,0,0,0,.34.11H283a3.66,3.66,0,0,0,2.85-1.23,20.32,20.32,0,0,0,2.51-2.9,3.49,3.49,0,0,0,.56-.72c.15-.26.29-.51.44-.73q4.25-6.7,7.88-12.78t7.08-11.78a3.74,3.74,0,0,0,.45-1,3.71,3.71,0,0,1,.22-.61,1,1,0,0,0-.28-.73,3.69,3.69,0,0,0-.61-.5A.24.24,0,0,1,304,55a.23.23,0,0,0-.16-.05,1.91,1.91,0,0,0-.51-.17,2.34,2.34,0,0,0-.5-.06,4.83,4.83,0,0,0-1.67.34A9.12,9.12,0,0,0,299,56.25Zm-57.6,12.06q.23,0,.45-.33c.14-.23.29-.45.44-.67a15.33,15.33,0,0,0,1.06-2.46,26.38,26.38,0,0,0,.84-2.9c.07-.45.13-.9.17-1.34s.05-.89.05-1.34v-.34a5.34,5.34,0,0,0-.61-2.45,3.18,3.18,0,0,0-1.17-1.12,2.75,2.75,0,0,0-.45-.17,2.3,2.3,0,0,0-.45,0h-.44a4.16,4.16,0,0,0-1.18.17c-.41.11-.83.24-1.28.39a10,10,0,0,0-2.4,1.56,14,14,0,0,0-1.95,2,7,7,0,0,0-.9,1.34,4.71,4.71,0,0,0-.44,1.23v.11a3.12,3.12,0,0,0,.39,1.34,7.56,7.56,0,0,0,1.06,1.56,11.28,11.28,0,0,0,2.51,2.4,7.09,7.09,0,0,0,3.07,1.29h.56a.31.31,0,0,0,.22-.12h.45Zm-112.2,5.92a7.07,7.07,0,0,1-4.47-1.17,7.45,7.45,0,0,1-2.12-2.63,14,14,0,0,1-.5-2c-.11-.63-.2-1.14-.28-1.51a.23.23,0,0,0,0-.16.24.24,0,0,1-.06-.17,3.54,3.54,0,0,1-.78,1.39,16.43,16.43,0,0,1-2.12,2.29A18.76,18.76,0,0,1,115,72.88a10.14,10.14,0,0,1-4.86,1.23q-4,0-5.64-2a7.82,7.82,0,0,1-1.84-4.3,1.19,1.19,0,0,1-.11-.56v-.67a14.16,14.16,0,0,1,.16-2.18c.12-.7.21-1.32.28-1.84.08-.37.15-.69.23-1a1.24,1.24,0,0,1,.22-.5c0,.3-.56,1.08-1.67,2.34a38.81,38.81,0,0,1-4.36,4.13,52.77,52.77,0,0,1-5.69,3.86,19.19,19.19,0,0,1-6.37,2.4c-.44.07-.85.13-1.22.16a10.65,10.65,0,0,1-1.12.06h-.78q-5.93-.33-7.93-2.9a12.23,12.23,0,0,1-2.34-6.7v-.34a16.83,16.83,0,0,1,.5-3.57A46.7,46.7,0,0,1,73.7,56c.15-.59.34-1.21.56-1.84s.45-1.25.67-1.84a38.77,38.77,0,0,1,1.56-4,6.42,6.42,0,0,1,1.12-1.9l-5.47,1a29.83,29.83,0,0,1-1.73,3.35Q69,53.22,67.12,56c-.38.6-.78,1.19-1.23,1.79S65,59,64.55,59.6a4.54,4.54,0,0,1-.28.44,3.91,3.91,0,0,1-.39.45A70.39,70.39,0,0,1,55,69.75,16.88,16.88,0,0,1,44.9,74.11h-.56A8.75,8.75,0,0,1,43,74l-1.34-.23a10.51,10.51,0,0,1-4.13-2.4,7.6,7.6,0,0,1-2.23-5.08v-.78a.83.83,0,0,1-.11-.39v-.39a23.66,23.66,0,0,1,1.73-8.6,59.26,59.26,0,0,1,5.75-10.6,56,56,0,0,1,3.9-5.3q2-2.4,4-4.41a40.32,40.32,0,0,1,9.94-7.26c3.2-1.56,5.81-2.31,7.81-2.23a9.22,9.22,0,0,1,5.53,1.89c1.53,1.2,2.36,3.17,2.51,5.92v.45a12.41,12.41,0,0,1-.11,1.67,10.41,10.41,0,0,1-.33,1.68q-.22,1-.51,2a15.09,15.09,0,0,1-.61,1.73q-.45,1.23-.84,2.07a2.43,2.43,0,0,1-.61,1,1.74,1.74,0,0,0,.45-.06,1.61,1.61,0,0,1,.44-.06,9.59,9.59,0,0,0,2.23-.33,10.45,10.45,0,0,0,3.35-1.79,42.26,42.26,0,0,0,3.58-2.9c1-.89,1.86-1.79,2.68-2.68a1.17,1.17,0,0,0,.33-.22l.34-.34,2.12-1.89c.74-.67,1.6-1.38,2.56-2.13a58.09,58.09,0,0,1,5.14-3.51,21.49,21.49,0,0,1,4.47-2.07,14.87,14.87,0,0,1,1.67-.33,10.25,10.25,0,0,1,1.56-.12H105a.86.86,0,0,0,.39.12h.28a8.89,8.89,0,0,1,5.08,2A5.77,5.77,0,0,1,112.89,33v.33a10.34,10.34,0,0,1-1.62,5.36A15.7,15.7,0,0,1,108,42.51a9.54,9.54,0,0,1-2,1.23,3.91,3.91,0,0,1-1.61.45h-.34A3,3,0,0,1,102,43a3.5,3.5,0,0,1-.67-2.07,5.16,5.16,0,0,1,0-.67,2.32,2.32,0,0,1,.17-.56,7,7,0,0,1,.39-1.34,5.22,5.22,0,0,1,.62-1.11,6.9,6.9,0,0,1,1.23-1.34,16.68,16.68,0,0,1,1.33-1,8.29,8.29,0,0,1,2.35-1.06,8,8,0,0,1,1.67-.28h.23l-.06-.11a.44.44,0,0,1-.05-.22V33a.86.86,0,0,0-.12-.39,2.22,2.22,0,0,0-.83-.67,5,5,0,0,0-2.18-.34,6.64,6.64,0,0,0-3.46,1.51,36.31,36.31,0,0,0-4.47,3.85c-1,1-1.93,2.14-2.9,3.3a36.39,36.39,0,0,0-2.68,3.62,8.53,8.53,0,0,0-.61.95,7.76,7.76,0,0,1-.62,1q-1,1.68-2,3.69t-1.89,4a53.59,53.59,0,0,0-2,5.8A18.06,18.06,0,0,0,84.64,64a4.88,4.88,0,0,0,.23,1.56,2,2,0,0,0,.67,1c.15.07.31.15.5.22a1.9,1.9,0,0,0,.73.11,10.61,10.61,0,0,0,4-1.06,28.46,28.46,0,0,0,5-2.85,42.19,42.19,0,0,0,4.3-3.18,28.28,28.28,0,0,0,3.63-3.63q5.81-7,10.1-13a91.57,91.57,0,0,1,8.2-9.93c.67-.6,1.31-1.17,1.9-1.73a15.17,15.17,0,0,1,1.9-1.51c.6-.45,1.15-.84,1.67-1.17a10.47,10.47,0,0,1,1.57-.84,13.8,13.8,0,0,1,3.35-1.28,16.73,16.73,0,0,1,3.79-.39,12.23,12.23,0,0,1,3.74.44,6.45,6.45,0,0,1,2,1,3.92,3.92,0,0,1,.72.67l.5.56.06,0,.06.06a1.3,1.3,0,0,1,.16-.56c.12-.22.25-.45.39-.67a.66.66,0,0,0,.17-.28.73.73,0,0,1,.17-.28,2.32,2.32,0,0,1,.28-.44,2.3,2.3,0,0,1,.28-.34,3,3,0,0,1,1.5-.28q1.29-.06,2.85-.06h.67q1.91,0,3.57.12c1.12.07,1.72.18,1.79.33s-.8,1.92-2.85,5.3S148,39.13,145.6,43.3a8.09,8.09,0,0,0-.56.83c-.15.26-.3.54-.44.84q-3.36,5.81-6,10.89T136,62.61a1.19,1.19,0,0,0,.05.28.88.88,0,0,0,.17.28,2.35,2.35,0,0,0,.51.17,3.13,3.13,0,0,0,.5,0,3.91,3.91,0,0,0,2.56-.89,22.15,22.15,0,0,0,3-2.57c.37-.37.74-.78,1.12-1.23L145,57.36c.3-.44.62-.93,1-1.45s.65-1,.95-1.56a2.76,2.76,0,0,1,.28-.45,2.09,2.09,0,0,0,.28-.56,15.35,15.35,0,0,1,1.84-2.62,1.78,1.78,0,0,1,1.95-.73q1.13.45-.72,4.14a44.55,44.55,0,0,1-5.3,7.92A48.35,48.35,0,0,1,141.08,67a42.3,42.3,0,0,1-4.63,4.13,23.28,23.28,0,0,1-3.74,2.18A8.49,8.49,0,0,1,129.19,74.11ZM51.82,51.45a5.32,5.32,0,0,1-.28.67c-.11.22-.2.41-.28.55-.22.6-.46,1.19-.72,1.79s-.5,1.19-.73,1.79a22,22,0,0,0-1.06,3.07,10.65,10.65,0,0,0-.39,2.62,2.91,2.91,0,0,0,.28,1.34,1.69,1.69,0,0,0,.73.78l.67.22a2.28,2.28,0,0,0,.78.12,7.52,7.52,0,0,0,2.9-.67A21.23,21.23,0,0,0,57,61.94,24.18,24.18,0,0,0,59.3,60a19.11,19.11,0,0,0,2.12-2.4c.3-.38.73-1,1.29-1.73s1.13-1.62,1.73-2.52a2.46,2.46,0,0,1,.28-.44,3.68,3.68,0,0,0,.28-.45c.59-1,1.15-1.92,1.67-2.85a14.5,14.5,0,0,0,1-2.06c-.75-.08-1.42-.17-2-.28A5.46,5.46,0,0,1,64,46.65a2.5,2.5,0,0,1-.84-.4,7.61,7.61,0,0,0-.83-.5,11.14,11.14,0,0,1-2.52-2.12,12.24,12.24,0,0,1-1.73-2.79,19.52,19.52,0,0,0-1.56,2c-.45.67-.85,1.3-1.23,1.9s-.56,1-.78,1.45l-.67,1.34c-.37.67-.71,1.32-1,2s-.64,1.32-1,2.07Zm83.06-19c-.22.22-.43.41-.61.56s-.39.29-.62.44a30.69,30.69,0,0,0-3.79,3.8c-1.42,1.64-3.5,4.31-6.25,8-.6.89-1.17,1.8-1.73,2.73s-1.1,1.84-1.62,2.74a42.82,42.82,0,0,0-2.51,6.08,16.4,16.4,0,0,0-1,4.86,4.82,4.82,0,0,0,.16,1.34,1.39,1.39,0,0,0,.51.78,3.39,3.39,0,0,1,.39.22.64.64,0,0,0,.39.11.41.41,0,0,0,.33.11h.34a3.69,3.69,0,0,0,2.85-1.22,21.06,21.06,0,0,0,2.51-2.91,3.49,3.49,0,0,0,.56-.72c.14-.26.29-.5.44-.73q4.25-6.69,7.87-12.78t7.09-11.78a4.59,4.59,0,0,0,.45-1,3.71,3.71,0,0,1,.22-.61,1,1,0,0,0-.28-.73,4.28,4.28,0,0,0-.61-.5.22.22,0,0,1-.17-.06.26.26,0,0,0-.17-.05,1.84,1.84,0,0,0-.5-.17,2.29,2.29,0,0,0-.5-.05,4.9,4.9,0,0,0-1.68.33,9.3,9.3,0,0,0-2.12,1.23ZM69,44.52q.22,0,.45-.33l.45-.67A16.29,16.29,0,0,0,71,41.06c.33-1,.61-1.93.84-2.9.07-.45.13-.89.16-1.34s.06-.89.06-1.34v-.33a5.48,5.48,0,0,0-.61-2.46,3.13,3.13,0,0,0-1.18-1.12,2.14,2.14,0,0,0-.44-.16,1.74,1.74,0,0,0-.45-.06H68.9a4.53,4.53,0,0,0-1.17.17c-.41.11-.84.24-1.28.39a10,10,0,0,0-2.4,1.56,14.12,14.12,0,0,0-2,2,6.92,6.92,0,0,0-.89,1.34,5.49,5.49,0,0,0-.45,1.23v.11a3.12,3.12,0,0,0,.39,1.34,8,8,0,0,0,1.06,1.56,10.71,10.71,0,0,0,2.52,2.4,7,7,0,0,0,3.07,1.29h.55a.35.35,0,0,0,.23-.11H69ZM173.29,26.21c.15.15,0,.75-.5,1.79s-1.07,2.16-1.74,3.35a2.36,2.36,0,0,1-.22.39,3.39,3.39,0,0,0-.22.39q-.9,1.56-1.68,2.85a5.25,5.25,0,0,1-1,1.39,5.55,5.55,0,0,1-1.56.28,25.59,25.59,0,0,1-3.13.17h-1.12c-.89,0-1.69,0-2.4-.11a2.5,2.5,0,0,1-1.28-.34c-.15-.22,0-.81.45-1.78s1-2.05,1.67-3.24a2.84,2.84,0,0,1,.28-.61c.11-.19.24-.39.39-.62.6-1,1.14-1.82,1.62-2.57s.84-1.15,1.06-1.22a6.44,6.44,0,0,1,1.51-.23c.85-.07,1.8-.11,2.84-.11h.34c1.11,0,2.16,0,3.12.06s1.49.13,1.57.28Zm138.21-9.6c1.49-.52,2.86-1.08,4.13-1.67s2.46-1.19,3.57-1.79q6.71-3.9,9.05-7.14c1.56-2.16,2.82-3.16,3.79-3,.08.08.13.12.17.12h.05q1.35.56-1.11,4.35A47.58,47.58,0,0,1,324,15.72a76.53,76.53,0,0,1-6.64,5.47,40.43,40.43,0,0,1-7.65,4.47c-1.71.82-3.33,1.52-4.85,2.12a38.24,38.24,0,0,1-4.53,1.45,39.58,39.58,0,0,1-3.9.72,30.3,30.3,0,0,1-4.24.28c-1.05,0-2.18,0-3.41-.11a36.66,36.66,0,0,1-3.85-.44l7.14-9.49a48.51,48.51,0,0,0,5.75-.12,34.72,34.72,0,0,0,5.08-.78,28.84,28.84,0,0,0,4.08-1q2.06-.67,4.52-1.56Z"/></svg>