<svg id="Layer_1" data-name="Layer 1" xmlns="http://www.w3.org/2000/svg" viewBox="0 0 678 100"><defs><style>.cls-1,.cls-2{fill:gray;}.cls-2,.cls-3{fill-rule:evenodd;}.cls-3{fill:#fff;}</style></defs><path class="cls-1" d="M327.9,37h11.17a13.51,13.51,0,0,1,5.33.89,8.67,8.67,0,0,1,3.36,2.57,10.63,10.63,0,0,1,1.92,3.9,18,18,0,0,1,.6,4.71,16.13,16.13,0,0,1-.89,6,9.62,9.62,0,0,1-2.46,3.6,8,8,0,0,1-3.38,1.94,17.59,17.59,0,0,1-4.48.66H327.9V37Zm7.51,5.49V55.72h1.84a7.76,7.76,0,0,0,3.36-.52,3.54,3.54,0,0,0,1.57-1.82,11.37,11.37,0,0,0,.56-4.22q0-3.87-1.26-5.29c-.84-.95-2.24-1.43-4.19-1.43ZM353,52.5a8.87,8.87,0,0,1,2.72-6.66A10.13,10.13,0,0,1,363,43.23q5.3,0,8,3.07a9,9,0,0,1,2.17,6.1,8.9,8.9,0,0,1-2.69,6.67,10.3,10.3,0,0,1-7.45,2.6,10.41,10.41,0,0,1-6.85-2.16,8.66,8.66,0,0,1-3.22-7Zm6.76,0a5.4,5.4,0,0,0,.95,3.5,3.09,3.09,0,0,0,4.77,0,5.53,5.53,0,0,0,.93-3.57,5.32,5.32,0,0,0-.93-3.43,2.93,2.93,0,0,0-2.34-1.12A3,3,0,0,0,360.68,49a5.3,5.3,0,0,0-1,3.47Zm14.13-8.85h6.52l2.84,11.06,3.6-11.06h6.05l3.72,11.08,2.84-11.08h6.49l-6.48,17.62h-6l-3.56-10.61-3.45,10.61h-6l-6.53-17.62ZM434.6,57.25h-8.51l-1.23,4h-7.67L426.35,37h8.22l9.12,24.31h-7.87l-1.22-4ZM433,52l-2.66-8.74L427.69,52Zm24.87-8.35h6.31V60.27l0,.78a7.32,7.32,0,0,1-.71,3.15,6.49,6.49,0,0,1-1.87,2.43,7.28,7.28,0,0,1-3,1.35,18.24,18.24,0,0,1-4.12.41c-3.54,0-6-.53-7.28-1.59a5.2,5.2,0,0,1-2-4.27c0-.22,0-.52,0-.89l6.56.74a2.05,2.05,0,0,0,.76,1.26,3.24,3.24,0,0,0,1.87.51,2.83,2.83,0,0,0,2.18-.78,4,4,0,0,0,.72-2.7V58a6.89,6.89,0,0,1-2,1.71,7.09,7.09,0,0,1-3.37.83,6.67,6.67,0,0,1-5.7-3.09,9.93,9.93,0,0,1-1.54-5.8q0-4.11,2-6.28a6.77,6.77,0,0,1,5.2-2.15,7.3,7.3,0,0,1,3.4.7,7.48,7.48,0,0,1,2.49,2.3V43.64Zm-6.36,8.53a4.22,4.22,0,0,0,.82,2.84,2.87,2.87,0,0,0,4.25,0,4.18,4.18,0,0,0,.86-2.88,4.34,4.34,0,0,0-.9-3,2.79,2.79,0,0,0-2.19-1,2.55,2.55,0,0,0-2.07.94,4.94,4.94,0,0,0-.77,3.11ZM469,43.64h6.33v2.87a6.86,6.86,0,0,1,1.88-2.58,4,4,0,0,1,2.4-.7,7.17,7.17,0,0,1,3.28.93l-2.1,4.8a5.18,5.18,0,0,0-1.89-.5,2.33,2.33,0,0,0-2.06,1.1q-1.05,1.55-1.05,5.78v5.92H469V43.64Zm14.74,8.86a8.86,8.86,0,0,1,2.71-6.66,10.15,10.15,0,0,1,7.34-2.61q5.29,0,8,3.07a9,9,0,0,1,2.16,6.1,8.89,8.89,0,0,1-2.68,6.67,10.3,10.3,0,0,1-7.45,2.6,10.44,10.44,0,0,1-6.86-2.16,8.68,8.68,0,0,1-3.21-7Zm6.76,0a5.34,5.34,0,0,0,.95,3.5,3.09,3.09,0,0,0,4.77,0,5.53,5.53,0,0,0,.93-3.57,5.26,5.26,0,0,0-.94-3.43,2.9,2.9,0,0,0-2.33-1.12A3,3,0,0,0,491.4,49a5.3,5.3,0,0,0-.95,3.47Zm15.86.73,7.13-.45a5.38,5.38,0,0,0,.94,2.64,4,4,0,0,0,3.32,1.47,3.69,3.69,0,0,0,2.48-.75,2.28,2.28,0,0,0,.87-1.75,2.24,2.24,0,0,0-.83-1.69,9.48,9.48,0,0,0-3.83-1.41c-3.3-.74-5.64-1.72-7.05-3a5.92,5.92,0,0,1-2.12-4.69,6.4,6.4,0,0,1,1.09-3.53,7.07,7.07,0,0,1,3.27-2.62,15.13,15.13,0,0,1,6-1c3.11,0,5.48.57,7.11,1.73a7.51,7.51,0,0,1,2.91,5.52l-7.07.42a3.85,3.85,0,0,0-1.18-2.4,3.77,3.77,0,0,0-2.5-.76,3,3,0,0,0-2,.56,1.67,1.67,0,0,0-.66,1.35,1.37,1.37,0,0,0,.53,1,6,6,0,0,0,2.51.9,31.84,31.84,0,0,1,7,2.15,7.42,7.42,0,0,1,3.1,2.69,6.82,6.82,0,0,1,1,3.6,7.76,7.76,0,0,1-1.29,4.32,8.17,8.17,0,0,1-3.62,3,14.58,14.58,0,0,1-5.85,1q-6.19,0-8.58-2.39a9.41,9.41,0,0,1-2.7-6.06Zm38.51,1.15,6.42.71a9,9,0,0,1-1.74,3.49,8.15,8.15,0,0,1-3.09,2.29,12.21,12.21,0,0,1-4.79.81,18.11,18.11,0,0,1-4.68-.52,8.28,8.28,0,0,1-3.2-1.7,8.4,8.4,0,0,1-2.11-2.74,9.71,9.71,0,0,1-.77-4.19,10,10,0,0,1,.93-4.53,8.31,8.31,0,0,1,1.87-2.38A8.61,8.61,0,0,1,536.08,44a13.47,13.47,0,0,1,5.06-.81q4.32,0,6.58,1.54a8.22,8.22,0,0,1,3.19,4.5l-6.36.85a3,3,0,0,0-1.08-1.7,3.58,3.58,0,0,0-2.13-.57,3.42,3.42,0,0,0-2.71,1.2,5.45,5.45,0,0,0-1,3.64,4.76,4.76,0,0,0,1,3.3,3.39,3.39,0,0,0,2.62,1.13,3.61,3.61,0,0,0,2.23-.68,4,4,0,0,0,1.35-2.07ZM554.57,37h6.76v4.58h-6.76V37Zm0,6.69h6.76V61.26h-6.76V43.64ZM585.2,54.13H571.66a4.32,4.32,0,0,0,.88,2.42,3.18,3.18,0,0,0,2.56,1.15,3.94,3.94,0,0,0,1.89-.49,4.56,4.56,0,0,0,1.19-1.11l6.65.61a9.44,9.44,0,0,1-3.68,3.8,13.41,13.41,0,0,1-6.2,1.16,12.66,12.66,0,0,1-5.51-1,8.19,8.19,0,0,1-3.33-3.14,9.56,9.56,0,0,1-1.32-5.06,8.9,8.9,0,0,1,2.65-6.69,10.07,10.07,0,0,1,7.31-2.56,12.88,12.88,0,0,1,6,1.15,7.65,7.65,0,0,1,3.34,3.32,12.08,12.08,0,0,1,1.14,5.67v.76Zm-6.86-3.23a4.49,4.49,0,0,0-1.05-2.82,3.31,3.31,0,0,0-4.84.44,4.76,4.76,0,0,0-.78,2.38Zm10-7.26h6.29v2.87A9.26,9.26,0,0,1,597.44,44a7.37,7.37,0,0,1,3.51-.76,5.72,5.72,0,0,1,4.38,1.67q1.57,1.66,1.58,5.15V61.26h-6.79V51.57a3.52,3.52,0,0,0-.62-2.35,2.14,2.14,0,0,0-1.71-.69,2.47,2.47,0,0,0-2,.92,5.53,5.53,0,0,0-.75,3.34v8.47H588.3V43.64Zm35.79,10.73,6.42.71a9,9,0,0,1-1.74,3.49,8.19,8.19,0,0,1-3.1,2.29,12.15,12.15,0,0,1-4.78.81,18.06,18.06,0,0,1-4.68-.52,8.14,8.14,0,0,1-3.2-1.7,8.4,8.4,0,0,1-2.11-2.74,9.71,9.71,0,0,1-.77-4.19,9.87,9.87,0,0,1,.93-4.53,8.9,8.9,0,0,1,4.29-4,13.47,13.47,0,0,1,5.06-.81q4.32,0,6.58,1.54a8.15,8.15,0,0,1,3.18,4.5l-6.35.85a2.93,2.93,0,0,0-1.09-1.7,3.53,3.53,0,0,0-2.12-.57,3.42,3.42,0,0,0-2.71,1.2,5.45,5.45,0,0,0-1,3.64,4.76,4.76,0,0,0,1,3.3,3.39,3.39,0,0,0,2.62,1.13,3.63,3.63,0,0,0,2.23-.68,4,4,0,0,0,1.35-2.07Zm29.08-.24H639.61a4.39,4.39,0,0,0,.89,2.42,3.17,3.17,0,0,0,2.55,1.15,4,4,0,0,0,1.9-.49,4.56,4.56,0,0,0,1.19-1.11l6.65.61a9.46,9.46,0,0,1-3.69,3.8,13.31,13.31,0,0,1-6.18,1.16,12.68,12.68,0,0,1-5.52-1,8.12,8.12,0,0,1-3.33-3.14,9.47,9.47,0,0,1-1.32-5.06,8.9,8.9,0,0,1,2.65-6.69,10.05,10.05,0,0,1,7.31-2.56,12.91,12.91,0,0,1,6,1.15A7.65,7.65,0,0,1,652,47.7a12.08,12.08,0,0,1,1.15,5.67v.76Zm-6.86-3.23a4.61,4.61,0,0,0-1.06-2.82,3.31,3.31,0,0,0-4.84.44,4.76,4.76,0,0,0-.78,2.38Zm8.76,5.47,6.69-.61a3.24,3.24,0,0,0,1.16,1.7,3.45,3.45,0,0,0,2,.51,3.42,3.42,0,0,0,2.11-.58,1.3,1.3,0,0,0,.58-1.08,1.22,1.22,0,0,0-.77-1.13,13.8,13.8,0,0,0-2.89-.7,30.23,30.23,0,0,1-4.89-1.14,5.1,5.1,0,0,1-2.3-1.76,4.86,4.86,0,0,1,.07-5.84,5.93,5.93,0,0,1,2.79-1.89,14.89,14.89,0,0,1,4.75-.62,16.36,16.36,0,0,1,4.64.48,6,6,0,0,1,2.5,1.49A7.79,7.79,0,0,1,673.17,48l-6.38.61a2.26,2.26,0,0,0-.83-1.24,3.41,3.41,0,0,0-1.92-.53,2.72,2.72,0,0,0-1.66.41,1.21,1.21,0,0,0-.52,1,1.05,1.05,0,0,0,.66,1,10.57,10.57,0,0,0,2.87.6,19.73,19.73,0,0,1,5,1.06,5.52,5.52,0,0,1,2.51,1.94,4.79,4.79,0,0,1,.87,2.77,5.53,5.53,0,0,1-.92,3,6.22,6.22,0,0,1-2.9,2.29,13.72,13.72,0,0,1-5.4.86q-4.81,0-6.87-1.38a6.2,6.2,0,0,1-2.62-3.92Z"/><polygon class="cls-2" points="147.9 97.5 4.22 50.58 147.9 2.5 292.16 49.36 147.9 97.5 147.9 97.5"/><path class="cls-3" d="M182.18,54.71l-1.41-3.33c-2.18-5.05-6.1-11.29-.59-11.41L180,37.53l-17.44.18-.05,2.45c4,0,4.21,2,5.5,5.15,1.07,2.62,2.1,5,3.19,7.59l4.78,11.44c.5,2.58-1.51,1.45-2.53,2.77l.12,1.81,17-.17-.12-2.29c-2.86-.17-2.28-1.79-1.4-3.86,1.28-3,4.6-11.74,5.59-13.25,1.45,2.75,2.84,6.44,4.06,9.32.65,1.53,1.37,3.09,2,4.64,1.48,3.47-.94,2.16-2,3.53l.11,1.82,17.07-.18.09-1.82c-1.13-.84-2.19-.18-2.82-1.11-.72-1.75,1.37-5.71,2.11-7.55L221,43.66c1.22-2.94,2.05-4.13,5.91-4.18L226.67,37l-17.38.22,0,2.32c1.94.22,3.66.36,3.13,3.07A35.13,35.13,0,0,1,210.67,47c-.76,1.9-2.58,7-3.54,8.37-.7-.87-4.91-11.47-5.94-14s-1.16-4.06-2.45-4c-10.8.11-8.5-.87-10.49,4.26L183,55.78l-.7-.85a2.53,2.53,0,0,1-.13-.22Z"/><path class="cls-3" d="M82.77,39.35l12.78-.14c12.43-.13,13.35,18.38,3.2,21.56-2.77.86-12.11.55-15.66.59L83,60.17l-.22-20.82ZM101.31,68.9c18.61-6,18.47-31.37-.55-37.25-5.21-1.61-24.52-.59-31.48-.54l-.07,2.38c2.73,0,4,.64,4,3.43l.29,27.46c0,2.56-1.38,3.24-3.87,3.27l0,2.37c6.86-.09,26.51.54,31.67-1.12Z"/><path class="cls-3" d="M138.92,44.35c14.7-3.32,19.72,13.33,6.58,16.27-15.39,3.45-20-13.24-6.58-16.27Zm2-9.25c-25.64.27-27.19,35.1,1,34.87,29-.24,26.67-35.17.9-34.89l-1.89,0Z"/><path class="cls-1" d="M216.28,80.25a6.1,6.1,0,0,1,2.92.77,5.44,5.44,0,0,1,2.22,2.19,6.18,6.18,0,0,1,.79,3,6,6,0,0,1-.78,3,5.49,5.49,0,0,1-2.19,2.19,5.92,5.92,0,0,1-5.91,0,5.58,5.58,0,0,1-2.2-2.19,6,6,0,0,1,0-5.93A5.57,5.57,0,0,1,213.36,81a6.13,6.13,0,0,1,2.92-.77Zm0,1a5,5,0,0,0-2.43.64A4.61,4.61,0,0,0,212,83.71a5,5,0,0,0,0,4.94,4.6,4.6,0,0,0,1.83,1.83,5,5,0,0,0,2.46.66,4.93,4.93,0,0,0,2.46-.66,4.6,4.6,0,0,0,1.83-1.83,4.92,4.92,0,0,0,0-4.94,4.53,4.53,0,0,0-1.85-1.83,5,5,0,0,0-2.43-.64Zm-2.6,8.22V83.09h2.19a5.68,5.68,0,0,1,1.63.17,1.62,1.62,0,0,1,.81.62,1.71,1.71,0,0,1,.3.93A1.67,1.67,0,0,1,218.1,86a1.93,1.93,0,0,1-1.32.58,2,2,0,0,1,.54.34,7.26,7.26,0,0,1,.94,1.27l.78,1.24h-1.25l-.57-1A5.16,5.16,0,0,0,216.14,87a1.37,1.37,0,0,0-.83-.21h-.6v2.7Zm1-3.59H216a2.05,2.05,0,0,0,1.22-.26.88.88,0,0,0,.33-.71.9.9,0,0,0-.16-.5,1,1,0,0,0-.43-.34,3.51,3.51,0,0,0-1-.1h-1.17v1.91Z"/></svg>