<svg id="Layer_1" data-name="Layer 1" xmlns="http://www.w3.org/2000/svg" viewBox="0 0 518 100"><defs><style>.cls-1{fill:#009df4;}</style></defs><g id="_00abe1ff" data-name="#00abe1ff"><path id="path7" class="cls-1" d="M106.79.4C111-.26,115.74-.35,119.51,2c5.44,3.24,8.55,9.11,10.69,14.86,6,16.59,6.62,34.73,4.08,52.07-.56,4.44-2.26,9.45-6.62,11.47-2.57.87-5.87.64-7.66-1.65-2.88-3.48-2-8.29-1.73-12.44a105.8,105.8,0,0,0,1-19.8c0-3-1-6.28-3.62-8a6.51,6.51,0,0,0-7.5.18c-3.66,2.37-6.07,6.2-8,10-4.83,9.93-7.5,20.71-11.1,31.11-1.8,4.83-4.71,9.43-9,12.38-5.18,3.65-11.76,4.61-18,4.39C54.11,96.2,47,91.23,42.83,84.65,37.65,76.28,33,67.56,28,59.12c-1.61-2.46-3.77-5.6-7.12-5.24-3.52.33-4.85,4.27-4.74,7.31.25,10.42,5.29,19.9,7.08,30.05.63,3.12-.26,7.05-3.41,8.46a15,15,0,0,1-5.85,0c-2.8-1.06-4.25-4-5.51-6.47A125.67,125.67,0,0,1-.06,60.4c.2-5.76-.34-11.6.88-17.29C2.48,33.84,5,24,11.91,17.17c5.93-6,16.13-7.78,23.32-3.05,7,4.83,11.28,12.34,15.86,19.27,3.35,5.35,6.49,11.63,12.65,14.2a11.17,11.17,0,0,0,12.83-2.68c2.24-2.31,3.35-5.39,4.54-8.32,2.51-6.3,5-12.6,7.77-18.8C92,9.85,98.19,2.46,106.79.4Z"/><path id="path9" class="cls-1" d="M415.11,20.4a86.29,86.29,0,0,1,9.65,0c.24,3.23-.2,6.48.29,9.7a85.7,85.7,0,0,1,9.88.05c.09,2.86.4,5.75-.21,8.58-3.28-.06-6.55-.05-9.82,0-.16,6.91,0,13.83-.08,20.73,0,2.93,0,6.3,2.22,8.51s5.55,1.8,8.38,2.05a27.86,27.86,0,0,1-.11,8.93c-5.38.06-11.31,0-15.7-3.59-3.95-3.15-5.08-8.45-5.21-13.25-.08-12.88.05-25.76,0-38.64C414.57,22.54,413.83,20.74,415.11,20.4Z"/><path id="path11" class="cls-1" d="M171.88,33.76c4.87-4.37,11.81-4.91,18.05-4.68a22.71,22.71,0,0,1,14.2,4.56c4.49-4.66,11.45-4.68,17.46-4.56,5.49,0,11.36,1.64,15.06,5.91,2.73,3.2,3.23,7.58,3.32,11.64,0,8.56,0,17.12,0,25.69,0,2.22.24,4.51-.47,6.65-3.19-.13-6.39.15-9.56-.16l-.34-.48c-.34-11.15.31-22.34-.36-33.49.06-3.58-3.25-6.21-6.62-6.45-3.84-.24-8.3-.7-11.44,2-2.33,1.92-2.06,5.21-2.2,7.93-.11,8.87-.06,17.74,0,26.6-.21,1.24.41,3-.67,3.93a65.29,65.29,0,0,1-9.79-.15c0-11.3.26-22.61-.28-33.91,0-3.82-3.82-6.38-7.35-6.48-3.24-.16-6.76-.42-9.68,1.25a6.18,6.18,0,0,0-3.08,5.26c-.74,11.35,0,22.74-.47,34.1-3.29,0-6.58,0-9.86,0a19.93,19.93,0,0,1-.41-4.81c.11-9.47-.09-18.94.09-28.41,0-4.32,1-9,4.42-12Z"/><path id="path13" class="cls-1" d="M261.59,30.06c7.56-1.49,15.94-1.8,23,1.64,6.68,3.43,8.36,11.59,8.64,18.44.1,7.52.56,15.75-3.57,22.4-3.83,6-11.63,7.39-18.23,7.23-6.32.17-13.5-.73-17.93-5.73-4.79-6-4.75-14.15-4.76-21.42.19-5.95.72-12.46,4.46-17.36a15.75,15.75,0,0,1,8.35-5.2m4.3,8.53a7.78,7.78,0,0,0-5.76,6.17,58.27,58.27,0,0,0,0,19.14c.59,2.49,2,5.1,4.58,5.94a22.07,22.07,0,0,0,12,.25c2.85-.58,4.66-3.22,5.31-5.89a56.45,56.45,0,0,0,0-19.66,7.92,7.92,0,0,0-6.3-6.07A33.52,33.52,0,0,0,265.89,38.59Z"/><path id="path15" class="cls-1" d="M377.39,31.51c7-3.52,15.3-2.57,22.8-1.45,1,.38,2.91,0,3.1,1.44.12,2.36.1,4.74,0,7.11l-1.2.49c-5.43-1-11-1.92-16.54-1-2.16.37-4.92,1.66-4.88,4.22-.49,2.18,1.41,3.7,3.12,4.54,6.05,2.78,12.9,4.07,18.24,8.22,4.47,3.41,4.92,9.81,3.5,14.84-2.26,6.39-9.24,9.42-15.58,9.76-6,.28-12.36.11-18-2.22-1.07-2.65-.39-5.75-.3-8.57,6.83,1.65,14.18,3.45,21.09,1.21,3.54-.94,4.83-6.08,1.77-8.29C388.43,58,380.79,57.27,375,53c-6.74-5.44-5.25-17.58,2.44-21.45Z"/><path id="path17" class="cls-1" d="M447.21,32c-.31-1.25,1.06-2,2.08-2,7.07-1,14.33-1.54,21.36,0,4.5,1.14,8.91,3.9,10.85,8.28,2.46,5.3,1.52,11.26,1.7,16.91-.12,5.56.63,11.48-1.85,16.68-2.38,5-8.17,7-13.3,7.71-6.39.4-13.26.47-19-2.74-9.48-5.31-9.11-21.45.58-26.35,7.14-3.77,15.51-2.54,23.19-1.67.21-3.6-.37-8.1-4.12-9.73-6.9-2.67-14.33-.43-21.44-.49,0-2.2-.11-4.4,0-6.59m7,36.25c2.87,3.11,7.5,2.88,11.37,2.74,2.62-.09,5.64-1.19,6.7-3.8.89-3.13.44-6.43.59-9.65a34.34,34.34,0,0,0-15.09-.6C452.78,57.87,450.85,64.68,454.16,68.28Z"/><path id="path19" class="cls-1" d="M496.07,34.09c5.44-5.48,13.83-5.34,21-4.83A63.3,63.3,0,0,1,517,38c-4,.68-8.56-.79-12,1.84-2.12,1.54-2.34,4.38-2.41,6.77-.19,10.71,0,21.44-.1,32.15-3.36.44-6.74.08-10.11.27-.82-8.73-.13-17.55-.36-26.32C492.22,46.39,491.22,39,496.07,34.09Z"/><path id="path21" class="cls-1" d="M299,30.12c3.62-.06,7.31-.46,10.89.27a101.86,101.86,0,0,0,10.5,38.26,17.79,17.79,0,0,0,2.24-4.33A100.62,100.62,0,0,0,331,30.37c3.57-.68,7.22-.33,10.83-.22-.48,16.9-7.57,32.72-15.18,47.53-.53,1.59-2.41,1.19-3.68,1.28a78.47,78.47,0,0,1-8-.18l-.86-1.07C306.21,63,299.43,47.06,299,30.12Z"/><path id="path23" class="cls-1" d="M350.46,30.17a79.12,79.12,0,0,1,10.33,0c.15,16.14.24,32.31,0,48.43-3.18.92-6.76.09-10.08.4C350.5,62.71,350.23,46.43,350.46,30.17Z"/></g></svg>