<svg id="Layer_1" data-name="Layer 1" xmlns="http://www.w3.org/2000/svg" viewBox="0 0 187 100"><defs><style>.cls-1{fill:#231f20;}</style></defs><path class="cls-1" d="M181,95.84H11.59a10,10,0,0,1-10-9.57v-38a30.42,30.42,0,0,0,16.2-5.21C32.91,32.3,45.47,11.26,61.56,4.42A38.56,38.56,0,0,1,87,2.15l13.81,13.77a45.73,45.73,0,0,0-17.91-3.4c-12,0-35.17,9.9-35.17,35.76C47.7,69.12,62,83.75,85.59,83.75h83.3Z"/><path class="cls-1" d="M161.45,76.38H83.8C75,76.38,63.22,72.17,59.67,64c0,0,34.91-35.63,36.61-37.33,4.18-4.15,11.63-4.15,15.24,0ZM84.28,48.92c-.88.86-.4,1.86.75,1.82h9.55l6.72-5.69c1.41-1.38,2.77-1.12,2.77.37V56.76c0,1.79,1.56,1.79,2.53.59l7-6.61h9.16c.72,0,1.25-1,.26-1.91L106.46,32.56a3.75,3.75,0,0,0-4.86,0L84.28,48.92"/></svg>