<svg id="Layer_1" data-name="Layer 1" xmlns="http://www.w3.org/2000/svg" viewBox="0 0 688 100"><defs><style>.cls-1{fill:gray;fill-rule:evenodd;}</style></defs><path class="cls-1" d="M375,47.29a87.06,87.06,0,0,0-10.71-5.67S351.66,35.75,349.15,33c0,0-4.93-4.65-2-10,0,0,1.21-3.53,6.42-3.53,0,0,6.79.38,6.79,5.95V33.2h24.32l0-11.59s1.87-19-28.65-19.81c0,0-24-1.58-30.89,11.35,0,0-2.7,2.88-2.7,12.93v7.26s-.27,8.37,4,13.76c0,0,2.41,3.54,8.37,7.44,0,0,12.09,6.51,19.35,10.24,0,0,7.33,4.19,6.36,10.84,0,0-.59,6.83-7.67,6.55,0,0-6.47-.3-6.47-7V67.32H320.39V78.74s-.73,21.85,32.58,21.85c0,0,31.81.64,33.3-22.43V68.87S387.39,54.73,375,47.29Z"/><polygon class="cls-1" points="250.5 4.52 242.36 55.55 240.46 55.55 232.68 4.98 192.05 4.98 190.01 97.39 214.07 97.39 214.36 27.76 216.25 27.76 229 97.38 254.3 97.38 266.9 27.79 268.57 27.79 269.15 97.39 293.33 97.39 290.73 4.52 250.5 4.52 250.5 4.52"/><polygon class="cls-1" points="107.31 4.9 91.31 97.29 117.2 97.29 126.68 25.65 128.81 25.65 138.29 97.29 164.18 97.29 148.18 4.9 107.31 4.9 107.31 4.9"/><path class="cls-1" d="M650.68,46V59.65h6.64V74.28c0,7.15-6.11,7.28-6.11,7.28-7.43,0-7.15-6.79-7.15-6.79V24.16c0-5.21,6.6-5.49,6.6-5.49,6.33,0,6.37,6.22,6.37,6.22v7.69h24.38c.8-15-2.19-18.65-2.19-18.65C673.17.34,650.29,1.09,650.29,1.09c-35.16,0-31.26,27-31.26,27V77c.75,25.31,35.4,22.74,36,22.7,15.42-1.7,20.07-6.59,20.07-6.59a15,15,0,0,0,5.39-7.59c1.22-2.57,1.53-10.74,1.53-10.74V46Z"/><polygon class="cls-1" points="569.87 61.05 568.81 61.05 544.06 4.54 514.47 4.54 514.47 97.41 538.55 97.41 537.11 40.9 538.18 40.9 563.82 97.41 592.53 97.41 592.53 4.54 568.13 4.54 569.87 61.05 569.87 61.05"/><path class="cls-1" d="M455.64,74.27s.36,7.62-6.71,7.62c0,0-7.44.4-7.44-7.43L441.42,4.6H415V73.9s-2.72,26.23,34.3,26.23c0,0,32.17.38,32.17-25V4.6H455.64V74.27Z"/><path class="cls-1" d="M56.93,47.29a86.64,86.64,0,0,0-10.7-5.67S33.58,35.76,31.08,33c0,0-4.94-4.65-2-10,0,0,1.2-3.54,6.41-3.54,0,0,6.79.38,6.79,5.95V33.2H66.56l0-11.59s1.86-19-28.66-19.81a54.12,54.12,0,0,0-5.66,0S13.72,2.81,7.11,13l-.13.2S4.28,16,4.28,26.08v7.26S4,41.71,8.28,47.1c0,0,2.42,3.54,8.38,7.44,0,0,12.08,6.51,19.34,10.23,0,0,7.34,4.19,6.37,10.85,0,0-.6,6.83-7.67,6.55,0,0-6.47-.3-6.47-7V67.31H2.31V78.74s-.73,21.85,32.57,21.85c0,0,31.82.64,33.31-22.43V68.87s1.12-14.14-11.26-21.58Z"/></svg>