<svg id="Layer_1" data-name="Layer 1" xmlns="http://www.w3.org/2000/svg" viewBox="0 0 99 100"><defs><style>.cls-1{fill:gray;}</style></defs><path class="cls-1" d="M49,92C26,92,7.13,73,7.13,50A42,42,0,0,1,9.51,36.21L34,83.87c.34.68.68,1.2,1.53,1.2s1.19-.52,1.53-1.2L48.49,58.51Q48.74,58,49,58c.34,0,.34.34.51.51L61.09,83.87c.34.68.68,1.2,1.53,1.2s1.19-.52,1.53-1.2L88.66,36.21A40.5,40.5,0,0,1,91,50C90.87,73,72,92,49,92Zm0-52.93c-.34,0-.34-.34-.51-.51L35.38,10.34a40.16,40.16,0,0,1,27.24,0L49.51,38.6C49.34,38.77,49.34,39.11,49,39.11ZM35.21,69.75c-.34,0-.34-.35-.51-.52L13.25,28A43.22,43.22,0,0,1,28.74,13.23L43.89,45.91c.34.69.68.86,1.19.86h7.84c.51,0,.85-.17,1.19-.86l15-32.68A43.22,43.22,0,0,1,84.58,28L63.3,69.23c-.17.35-.34.52-.51.52-.34,0-.34-.35-.51-.52l-8.17-18c-.34-.68-.68-.85-1.19-.85H45.08c-.51,0-.85.17-1.19.85l-8.17,18C35.55,69.4,35.55,69.75,35.21,69.75ZM49,97.66A47.66,47.66,0,1,0,1.34,50,47.59,47.59,0,0,0,49,97.66Z"/></svg>