<svg id="Layer_1" data-name="Layer 1" xmlns="http://www.w3.org/2000/svg" xmlns:xlink="http://www.w3.org/1999/xlink" viewBox="0 0 383 100"><defs><style>.cls-1,.cls-2{fill:#6a737b;}.cls-2{fill-rule:evenodd;}</style></defs><rect class="cls-1" x="287.29" y="61.34" width="9.56" height="2.22"/><path class="cls-1" d="M128.55,47.91l-.85,22.18v.4c0,1.87.58,2.27,3.56,2.49v1c-2.18-.17-3-.22-4.22-.22s-2.05,0-4.27.22V73c3-.22,3.42-.58,3.51-2.89l.89-21v-.22c0-2-.62-2.4-3.56-2.58V45.24a35.13,35.13,0,0,0,3.52.18,30.86,30.86,0,0,0,4-.22l8,21.6,8.09-21.6a37.71,37.71,0,0,0,4.09.22c1.07,0,1.73,0,3.38-.18v1.07c-2.94.18-3.56.58-3.56,2.53v.27l.49,21c0,2.31.4,2.67,3.47,2.89v1a48.53,48.53,0,0,0-5.34-.35,49.7,49.7,0,0,0-5.33.35V73c2.89-.18,3.55-.66,3.55-2.66v-.23L147.57,48l-7,19.07L140,68.45,139.44,70l-.58,1.65-.44,1.42h-.67l-.44-1.38L136.68,70l-.57-1.64-.54-1.51Z"/><path class="cls-1" d="M165.27,54.31h.17c2.76,0,4.18,2.4,4.45,7.43h-4.62v1.55h8c-.09-6.58-2.8-10.09-7.82-10.09h-.22v1.11Zm0,20V72.85a7.32,7.32,0,0,0,.93.09c3,0,4.93-2,5.42-5.6h1.74c-.58,4.4-3.29,7-7.47,7C165.67,74.36,165.44,74.32,165.27,74.32Zm-4.63-12.58c.45-4.81,2-7.34,4.63-7.43V53.2c-5,.09-8.14,4.22-8.14,10.71s3,10.14,8.14,10.41V72.85c-3.2-.45-4.67-3.47-4.72-9.56h4.72V61.74Z"/><path class="cls-1" d="M175.85,54.76V54a28.71,28.71,0,0,0,5.64-1c.22,1.56.31,2.27.4,3.56V57c.94-2.44,2.76-3.82,5-3.82a3.46,3.46,0,0,1,3.74,3.47,1.86,1.86,0,0,1-1.83,2,1.58,1.58,0,0,1-1.73-1.46,2.19,2.19,0,0,1,.09-.45l.09-.4V56c0-.58-.54-1-1.29-1-2.22,0-3.65,2.71-3.65,6.93v8.94c0,1.82.45,2.18,3,2.31V74a42.31,42.31,0,0,0-4.72-.26,43.11,43.11,0,0,0-4.8.26v-.84c2.63-.13,3.07-.49,3.07-2.31v-14c0-1.83-.27-2.05-2.45-2.09Z"/><path class="cls-1" d="M206.92,52.8v7.07H206c-.76-3.74-2.36-5.51-4.94-5.51-3.2,0-5.11,3.46-5.11,9.55s1.69,9,5,9c2.62,0,4.22-1.91,4.71-5.65h1.78c-.58,4.58-3,7.07-6.85,7.07-4.93,0-8.31-4.22-8.31-10.45s3.42-10.71,8.45-10.71A5.53,5.53,0,0,1,205.05,55l1.16-2.18Z"/><path class="cls-1" d="M218.57,54.31h.17c2.76,0,4.18,2.4,4.45,7.43h-4.62v1.55h8c-.09-6.58-2.8-10.09-7.82-10.09h-.22v1.11Zm0,20V72.85a7.32,7.32,0,0,0,.93.09c3,0,4.93-2,5.42-5.6h1.74c-.58,4.4-3.29,7-7.52,7C219,74.36,218.74,74.32,218.57,74.32Zm-4.63-12.58c.45-4.81,2-7.34,4.63-7.43V53.2c-5,.09-8.14,4.22-8.14,10.71s3,10.14,8.14,10.41V72.85c-3.25-.45-4.67-3.47-4.72-9.56h4.72V61.74Z"/><path class="cls-1" d="M238.44,73.2h-.05v1.16a5.41,5.41,0,0,0,4.94-3.47,16.44,16.44,0,0,0,.62,3.43,20.29,20.29,0,0,1,5-1.07l.67,0v-.75c-2.89-.09-3.12-.31-3.12-2.89V44.89A40,40,0,0,1,240,46v.76c2.72,0,3.07.27,3.07,2.49v7.47c-1.47-2.36-2.67-3.2-4.67-3.29v1.15c3.11.09,4.72,3.34,4.72,9.56C243.11,70.09,241.5,73.2,238.44,73.2Zm-.05,0c-3,0-4.66-3.24-4.66-9.33s1.51-9.25,4.57-9.25h.09V53.47c-.13,0-.31,0-.49,0-4.53,0-7.78,4.36-7.78,10.49s3.25,10.45,7.92,10.45h.35Z"/><path class="cls-1" d="M259.29,54.31h.17c2.76,0,4.18,2.4,4.45,7.43h-4.62v1.55h8c-.09-6.58-2.8-10.09-7.82-10.09h-.22v1.11Zm0,20V72.85a7.32,7.32,0,0,0,.93.09c3,0,4.93-2,5.42-5.6h1.74c-.58,4.4-3.29,7-7.52,7C259.69,74.36,259.46,74.32,259.29,74.32Zm-4.63-12.58c.4-4.81,2-7.34,4.63-7.43V53.2c-5,.09-8.09,4.22-8.09,10.71s2.93,10.14,8.09,10.41V72.85c-3.25-.45-4.67-3.47-4.72-9.56h4.72V61.74Z"/><path class="cls-1" d="M270.93,74.36V67.25l.94,0c.8,3.87,2.57,5.78,5.55,5.78,2.54,0,4.4-1.69,4.4-3.86,0-1.43-.8-2.45-2.89-3.38L277.29,65l-2-.89c-3.11-1.47-4.09-2.67-4.09-5.16,0-3.38,2.63-5.65,6.41-5.65A7.08,7.08,0,0,1,282,54.67l.71-1.74h.8v6.63h-1c-.4-3.43-1.83-5.07-4.49-5.07A3.79,3.79,0,0,0,274,58.05c0,1.73.67,2.26,4.53,4l1.83.75c3.24,1.43,4.4,2.76,4.4,5.29,0,3.6-2.89,6.18-6.89,6.18a7.59,7.59,0,0,1-5.11-1.82l-1.07,1.91Z"/><path class="cls-1" d="M309.52,59.69A4.91,4.91,0,0,1,313,61a7,7,0,0,1,1.56,4.85c0,4-1.83,6.27-5.07,6.62v1.34a10,10,0,0,0,5.29-1.47,8,8,0,0,0,3.56-6.67A7.16,7.16,0,0,0,315.74,60a7.65,7.65,0,0,0-3.38-1.33c3.07-1.16,4.67-3.34,4.67-6.36a6.74,6.74,0,0,0-2.53-5.42,8.47,8.47,0,0,0-5-1.51V46.8c2.58.44,3.73,2.22,3.73,5.6a6.57,6.57,0,0,1-1.42,4.49,3.75,3.75,0,0,1-2.31,1.29Zm-1,0a8.36,8.36,0,0,1,1,0V58.18a14.91,14.91,0,0,1-2.18.13h-2.89V46.71h3.65a7.32,7.32,0,0,1,1.42.09V45.38H297.34v1.06c3.07.18,3.51.49,3.51,2.8V70c0,2.31-.36,2.62-3.51,2.89v1h10.8c.49,0,.93,0,1.38,0V72.49a5.32,5.32,0,0,1-.89.05h-1.56c-2.26,0-2.62-.36-2.62-2.22V59.65Z"/><path class="cls-1" d="M330,54.31h.18c2.75,0,4.17,2.4,4.44,7.43H330v1.55h8c-.09-6.58-2.8-10.09-7.82-10.09H330v1.11Zm0,20V72.85a7.32,7.32,0,0,0,.93.09c3,0,4.94-2,5.42-5.6h1.74c-.58,4.4-3.29,7-7.51,7C330.37,74.36,330.15,74.32,330,74.32Zm-4.63-12.58c.4-4.81,2-7.34,4.63-7.43V53.2c-5,.09-8.14,4.22-8.14,10.71s3,10.14,8.14,10.41V72.85c-3.25-.45-4.67-3.47-4.71-9.56H330V61.74Z"/><path class="cls-1" d="M340.24,54.93v-.71a27.55,27.55,0,0,0,5.64-1.29,22.28,22.28,0,0,1,.45,3.74c1.55-2.31,3.29-3.34,5.78-3.34a6,6,0,0,1,5.64,3.38,10.55,10.55,0,0,1,.62,3.87V70.85c0,1.82.45,2.18,3,2.31V74a39.89,39.89,0,0,0-4.63-.26,38.86,38.86,0,0,0-4.66.26v-.84c2.31-.09,2.84-.53,2.84-2.22V60.45c0-3.74-1.11-5.2-3.82-5.2-2.94,0-4.45,1.82-4.45,5.33V70.94c0,1.69.54,2.13,2.76,2.22V74a40.82,40.82,0,0,0-9.2,0v-.84c2.57-.13,3-.49,3-2.31V57c-.05-1.73-.31-2-2.45-2C340.68,55,340.46,54.93,340.24,54.93Z"/><path class="cls-1" d="M363.09,73.87,374.64,54.8H369.4c-2.8,0-3.47.62-5,4.45h-.84l1-5.56H379v.36L367.62,72.76h5c2.89,0,4.09-1.16,5.38-5h.89l-1.11,6.13Z"/><path class="cls-2" d="M73.14,7.91a48,48,0,0,1,0,85V87.41A42.86,42.86,0,0,0,87.5,73.24L73.14,67.41V58.53L88.9,70.85A42.78,42.78,0,0,0,94,50.4a43.28,43.28,0,0,0-20.89-37ZM50.94,2.47a47.67,47.67,0,0,1,22.2,5.44v5.48a43.35,43.35,0,0,0-20.9-6.13l5.48,39.25,15.42,12v8.88l-22.3-9L28.7,67.46V58.63L44.21,46.51,49.64,7.26A43.15,43.15,0,0,0,28.7,13.39V7.91A47.5,47.5,0,0,1,50.94,2.47Zm22.2,90.42a47.9,47.9,0,0,1-44.44,0V87.41a43,43,0,0,0,44.44,0Zm-44.44,0a48,48,0,0,1,0-85v5.48A43.2,43.2,0,0,0,12.94,71L28.7,58.63v8.83L14.38,73.34A42.82,42.82,0,0,0,28.7,87.41Z"/><image width="300" height="138" transform="translate(-23 73) scale(1.65)" xlink:href="../_MATERIAL/logo_quizmetics_2_1-300x138.png"/></svg>