<svg id="Layer_1" data-name="Layer 1" xmlns="http://www.w3.org/2000/svg" viewBox="0 0 300 100"><defs><style>.cls-1{fill:#193167;}</style></defs><path class="cls-1" d="M231.69,48.37c0-39-22.75-45.56-51.8-45.76l-24.69,0V4.29c9.59.78,8.2,4.87,8.3,12.49v53h.12V97.4l16.27,0c23.78-.17,43-4.58,49.33-27.6h0C230.89,64,231.69,56.9,231.69,48.37Zm-17.17,8.94a61.12,61.12,0,0,1-1.15,7.52,59.11,59.11,0,0,1-3.75,11c-2,3.82-4,7.79-8.77,10.63s-8.62,4.15-15.27,4.15a17.29,17.29,0,0,1-5.07-.74V69.8h0V9.91a16.23,16.23,0,0,1,4.87-.54c25.21,0,29.12,18.73,29.52,39A78.39,78.39,0,0,1,214.52,57.31Z"/><path class="cls-1" d="M271.85,89.28c-10,0-11.25-4-11.25-11.77l-.23-28.94h25.54v-.33h0V43l0,0v-2.1H260.37l0-22.49c0-7.19.68-8.71,8.51-8.71H294l0-7.06H235.26V4.26c9.57.79,8.19,4.87,8.29,12.48V97.37H294V89.28H271.85Z"/><path class="cls-1" d="M120.1,2.61H100.77V4.27c6.66.57,7.92,3.5,7.19,7.29a52.86,52.86,0,0,1-2.29,7.08c-1.41,3.78-29.2,78.74-29.2,78.74H87.12l15.22-42H125l15,42h15.69Zm-16.16,46,9.28-25.84,9.64,25.84Z"/><path class="cls-1" d="M74.16,69.34h0V2.58H62.79l0,66.76s0,2.14-.14,4.51c-.24,3.64-.73,8.38-3.69,11.91-2.26,2.7-5.75,3.87-8.32,4.33A34.88,34.88,0,0,1,41.6,90a13.87,13.87,0,0,1-8.32-4.54c-3-3.53-3.63-8.63-3.81-12.18-.11-2.38,0-4.06,0-4.06h0V2.61H29.1l-24.68,0V4.29c9.58.78,8.18,4.87,8.3,12.49V69.23s0,2,.38,4.85c.95,7.73,4.66,23.07,32.78,23.2,9.29-.18,16.8-2.11,21-6.44C74.28,84.5,74.16,69.34,74.16,69.34Z"/></svg>