<svg xmlns="http://www.w3.org/2000/svg" width="361.284" height="414.783" viewBox="0 0 361.284 414.783"><g transform="translate(0 0)"><g transform="translate(0 0)"><path d="M3063.3,3750.872v-29.352c0-8.58,4.825-16.757,12.783-19.967,16.284-6.583,29.065,3.224,39.782,10.469,33.79,22.838,120.812,73.021,267.54,101.706,5.26,1.028,34.124,3.67,34.124,43.853v27.041c-191.775-38.887-305.175-100.577-349.991-130.87C3066.156,3752.82,3064.739,3751.85,3063.3,3750.872Z" transform="translate(-3059.774 -3695.828)" fill="#f4f4f4"/><path d="M3419.9,3887.768l-4.228-.859c-207.925-42.16-321.431-111.237-351.267-131.4l-5.79-3.936v-31.219c0-10.282,6.024-19.621,14.991-23.238,17.087-6.91,30.458,2.215,41.205,9.543l1.87,1.272c30.744,20.778,118.228,72.231,266.244,101.169l.964.17c29.762,5.084,36.01,28.444,36.01,47.144Zm-354.229-139.932,2.683,1.823c29.361,19.845,140.539,87.5,344.491,129.473v-22.72c0-35.041-22.687-38.915-30.142-40.19-.446-.076-.827-.141-1.132-.2-149.285-29.184-237.738-81.225-268.839-102.243l-1.9-1.291c-10.322-7.039-20.995-14.319-34.588-8.831-6.328,2.554-10.577,9.262-10.577,16.7Z" transform="translate(-3058.612 -3694.658)"/><g transform="translate(0 48.378)"><path d="M3410.315,4064.552a22,22,0,0,1-14.772,5.7,21.085,21.085,0,0,1-2.141-.1c-152.53-14.91-258.614-56.968-324.314-128.569a21.991,21.991,0,0,1-5.785-14.869V3767.824c1.437.978,2.854,1.948,4.237,2.88,44.817,30.293,158.216,91.983,349.991,130.87v146.689A21.99,21.99,0,0,1,3410.315,4064.552Z" transform="translate(-3059.774 -3761.158)" fill="#f4f4f4"/><path d="M3394.381,4071.585a24.724,24.724,0,0,1-2.5-.124c-153.412-15-260.234-57.419-326.551-129.694a25.455,25.455,0,0,1-6.714-17.253V3758.963l9.738,6.623c29.564,19.984,142.076,88.434,348.719,130.337l2.827.572v149.574a25.571,25.571,0,0,1-8.373,18.9h0A25.476,25.476,0,0,1,3394.381,4071.585Zm-328.713-299.3v152.231a18.423,18.423,0,0,0,4.857,12.485c65.088,70.933,170.435,112.62,322.057,127.441a18.1,18.1,0,0,0,14.2-4.7,18.5,18.5,0,0,0,6.056-13.675V3902.262C3209.523,3860.625,3097.2,3793.378,3065.667,3772.283Z" transform="translate(-3058.612 -3758.963)"/></g><g transform="translate(20.209 10.014)"><path d="M3122.379,3776.221a6.8,6.8,0,0,1-3.418-.983l-27.773-16.18a12.457,12.457,0,0,1-5.609-10.041l-.105-34.476a6.429,6.429,0,0,1,2.969-5.831,6.085,6.085,0,0,1,6.193.228l28.131,16.182a12.3,12.3,0,0,1,5.622,10.094l-.25,34.476a6.454,6.454,0,0,1-3.028,5.813A5.476,5.476,0,0,1,3122.379,3776.221Zm-29.845-60.352.1,33.125a5.537,5.537,0,0,0,2.1,3.969l26.354,15.353.241-33.155a5.38,5.38,0,0,0-2.085-3.927Z" transform="translate(-3085.474 -3707.969)"/><path d="M3109.619,3764.29c-.095,0-.191,0-.287-.011a3.533,3.533,0,0,1-3.03-2.311l-7.478-20.551a3.528,3.528,0,0,1,6.631-2.412l4.849,13.326,6.295-11.217a3.528,3.528,0,0,1,6.153,3.454l-10.058,17.922A3.527,3.527,0,0,1,3109.619,3764.29Z" transform="translate(-3088.728 -3715.081)"/></g><g transform="translate(28.552 110.996)"><path d="M3100.754,3860.747l12.281,6.53-.045-16.833,3.683,1.9.108,38.6-3.685-2.031-.051-18.277-12.281-6.564.051,18.078-3.686-2.028-.105-37.93,3.683,1.9Z" transform="translate(-3096.678 -3842.197)"/><path d="M3159.461,3877.916l-10.072-5.232.1,35.946-3.684-2.028-.1-35.831-9.876-5.129-.01-3.4,23.631,12.2Z" transform="translate(-3106.288 -3847.161)"/><path d="M3196.7,3893.671l3.635,1.877.105,40.77-3.683-2.025-.081-30.939-.1-.051-7.221,15.99-7.271-23.59-.1.06.081,30.443-3.687-2.028-.106-40.017,3.588,1.851,7.471,23.969Z" transform="translate(-3116.803 -3852.591)"/><path d="M3228.632,3947.823l15.328,8.388.009,3.663-19.012-10.459-.105-41.217,3.683,1.9Z" transform="translate(-3128.339 -3858.545)"/><path d="M3113.335,3951.729a11.019,11.019,0,0,0-5.175-8.713c-7.468-4.334-7.928,6.268-7.912,12.136.017,5.549.586,16.446,7.66,20.759,3.684,2.246,5.886.6,5.925-3.169l3.686,2.225c-.377,6.04-3.854,7.816-9.749,4.206-9.729-5.96-11.186-18.263-11.206-26.322-.025-8.323,1.564-18.975,11.536-13.218a18.668,18.668,0,0,1,8.918,14.256Z" transform="translate(-3096.564 -3865.925)"/><path d="M3156.015,3975.036c-2.167-3.4-4.628-7.133-7.676-8.9-3.144-1.824-5.691-.912-5.682,2.677.007,2.067.354,4.114,5.128,10.142l2.8,3.574c6.5,8.305,8.273,11.456,8.284,16.088.02,7.113-4.193,8.773-10.383,4.981-4.571-2.8-7.968-7.319-10.728-12.9l2.843-.768c1.727,4.086,4.485,8.154,7.876,10.22,3.684,2.246,6.72,1.022,6.71-3.208-.009-3.19-.208-4.407-6.458-12.3l-3.2-4.028c-3.5-4.359-6.548-8.817-6.562-13.7-.017-6.125,4.2-7.209,9.5-4.148,3.686,2.127,7.081,6.284,9.74,10.572Z" transform="translate(-3106.769 -3871.653)"/><path d="M3197.426,3999.154c-2.166-3.461-4.628-7.253-7.676-9.021-3.144-1.824-5.69-.845-5.681,2.841.007,2.124.353,4.222,5.128,10.337l2.8,3.624c6.5,8.424,8.272,11.633,8.285,16.389.018,7.3-4.194,9.077-10.384,5.285-4.571-2.8-7.968-7.382-10.728-13.066l2.843-.833c1.727,4.166,4.486,8.3,7.876,10.365,3.683,2.244,6.72.942,6.71-3.4-.01-3.275-.209-4.524-6.458-12.528l-3.2-4.085c-3.5-4.419-6.548-8.949-6.562-13.96-.016-6.29,4.2-7.475,9.5-4.414,3.686,2.124,7.08,6.341,9.742,10.7Z" transform="translate(-3117.025 -3877.583)"/></g></g><g transform="translate(168.131 155.818)"><rect width="118.941" height="129.862" transform="translate(3.528 3.527)" fill="#f4f4f4"/><path d="M3404.565,4038.693H3285.624a3.528,3.528,0,0,1-3.528-3.528V3905.3a3.529,3.529,0,0,1,3.528-3.528h118.942a3.529,3.529,0,0,1,3.527,3.528v129.862A3.528,3.528,0,0,1,3404.565,4038.693Zm-115.413-7.055h111.885V3908.832H3289.152Z" transform="translate(-3282.096 -3901.776)" fill="#ff6700"/><rect width="118.941" height="21.217" transform="translate(3.528 3.527)" fill="#ff6700"/><path d="M3404.565,3930.049H3285.624a3.529,3.529,0,0,1-3.528-3.529V3905.3a3.529,3.529,0,0,1,3.528-3.528h118.942a3.529,3.529,0,0,1,3.527,3.528v21.217A3.529,3.529,0,0,1,3404.565,3930.049Zm-115.413-7.056h111.885v-14.161H3289.152Z" transform="translate(-3282.096 -3901.776)" fill="#ff6700"/><g transform="translate(23.002 36.852)"><path d="M3316.177,3953.68a9.3,9.3,0,0,0-.347,2.083c-.055.79-.08,1.8-.08,3.02l.041,1.672c0,1.008-.025,1.892-.076,2.646a10.205,10.205,0,0,1-.237,1.714q-.7,2.607-2.8,2.606v2.336a2.63,2.63,0,0,1,2.451,1.828,7.657,7.657,0,0,1,.7,3.233v6.656a5.9,5.9,0,0,0,1.071,3.479,3.35,3.35,0,0,0,2.9,1.536h2.607v-2.531h-1.714q-1.83,0-1.828-4.2l.042-3.386q0-6.7-3.427-7.825a4.331,4.331,0,0,0,2.432-2.145,6.606,6.606,0,0,0,.953-3.3l.042-2.219v-4.4q0-3.186,1.787-3.19h1.714v-2.531H3319.8A3.585,3.585,0,0,0,3316.177,3953.68Z" transform="translate(-3312.672 -3950.761)"/><path d="M3319.6,4022.281a9.512,9.512,0,0,1-.234-1.711q-.075-1.13-.076-2.648l.039-1.671c0-1.222-.03-2.23-.08-3.018a9.124,9.124,0,0,0-.351-2.085,3.58,3.58,0,0,0-3.62-2.917h-2.606v2.53h1.711q1.8,0,1.794,3.188v4.4l.034,2.221a6.642,6.642,0,0,0,.956,3.3,4.337,4.337,0,0,0,2.435,2.143q-3.428,1.131-3.425,7.826l.034,3.385q0,4.2-1.828,4.2h-1.711v2.533h2.606a3.358,3.358,0,0,0,2.9-1.536,5.963,5.963,0,0,0,1.068-3.482v-6.655a7.616,7.616,0,0,1,.7-3.234,2.63,2.63,0,0,1,2.451-1.828v-2.335Q3320.3,4024.889,3319.6,4022.281Z" transform="translate(-3312.671 -3964.995)"/><path d="M3347.113,3968.439h5.388v16.745h3.3v-19.623h-8.693Z" transform="translate(-3321.202 -3954.427)"/><path d="M3355.515,3956.183a2.556,2.556,0,1,0,2.556,2.556A2.527,2.527,0,0,0,3355.515,3956.183Z" transform="translate(-3322.649 -3952.104)"/><rect width="9.864" height="2.878" transform="translate(47.055 16.279)"/><rect width="9.869" height="2.878" transform="translate(66.569 16.279)"/></g><g transform="translate(64.087 119.396)"><rect width="93.227" height="132.514" transform="translate(3.528 3.527)" fill="#f4f4f4"/><path d="M3464.037,4200.05H3370.81a3.528,3.528,0,0,1-3.528-3.528V4064.008a3.528,3.528,0,0,1,3.528-3.528h93.227a3.528,3.528,0,0,1,3.528,3.528v132.514A3.529,3.529,0,0,1,3464.037,4200.05Zm-89.7-7.056h86.172V4067.535h-86.172Z" transform="translate(-3367.282 -4060.48)" fill="#ff6700"/><rect width="93.227" height="21.653" transform="translate(3.528 3.527)" fill="#ff6700"/><path d="M3464.037,4089.189H3370.81a3.528,3.528,0,0,1-3.528-3.528v-21.653a3.528,3.528,0,0,1,3.528-3.528h93.227a3.528,3.528,0,0,1,3.528,3.528v21.653A3.528,3.528,0,0,1,3464.037,4089.189Zm-89.7-7.055h86.172v-14.6h-86.172Z" transform="translate(-3367.282 -4060.48)" fill="#ff6700"/><g transform="translate(18.819 50.463)"><path d="M3402.253,4143.968a2.82,2.82,0,0,1-2.845,3.021c-2.563,0-3.808-2.637-3.808-8.064,0-5.657,1.312-8.405,4.008-8.405a2.379,2.379,0,0,1,2.394,2.459l.011.577h3.328l-.036-.625a5.54,5.54,0,0,0-5.724-5.374c-3.323,0-7.283,1.961-7.283,11.311,0,9.162,3.822,11.084,7.028,11.084,3.647,0,5.976-2.219,6.231-5.935l.043-.63h-3.339Z" transform="translate(-3392.297 -4127.556)"/><path d="M3420.636,4131.479h-3.16v6.722h-6.81v3.05h6.81v6.723h3.16v-6.723h6.81v-3.05h-6.81Z" transform="translate(-3396.847 -4128.528)"/><path d="M3444.549,4138.2v-6.722h-3.16v6.722h-6.81v3.05h6.81v6.723h3.16v-6.723h6.81v-3.05Z" transform="translate(-3402.77 -4128.528)"/><path d="M3400.158,4182.727a2.788,2.788,0,1,0,2.859,2.771A2.831,2.831,0,0,0,3400.158,4182.727Z" transform="translate(-3393.53 -4141.221)"/><path d="M3420.9,4182.727a2.788,2.788,0,1,0,2.857,2.771A2.833,2.833,0,0,0,3420.9,4182.727Z" transform="translate(-3398.667 -4141.221)"/><path d="M3441.651,4182.727a2.788,2.788,0,1,0,2.857,2.771A2.834,2.834,0,0,0,3441.651,4182.727Z" transform="translate(-3403.806 -4141.221)"/></g></g></g></g></svg>