<svg xmlns="http://www.w3.org/2000/svg" width="495.123" height="414.297" viewBox="0 0 495.123 414.297"><g transform="translate(-200 -1028.2)"><g transform="translate(232.368 1028.2)"><g transform="translate(0 0)"><g transform="translate(32.022 113.317)"><path d="M2471.4,3126.781c-6.8-2.671-14.714,2.678-20.818,5.669-27.467,13.221-71.017,30.914-138.9,44.581-2.732.525-17.8,1.509-18.2,20.223l-.263,12.591-1.442,68.215a10.425,10.425,0,0,0,3.6,7.864,13,13,0,0,0,7.638,3.273,6.575,6.575,0,0,0,1.114.047c70.373-6.7,137.362-27.427,170.142-52.617,2.223-1.74,3.1-4.718,3.157-7.576l1.573-79.473.182-9.58S2480.084,3130.225,2471.4,3126.781Z" transform="translate(-2288.528 -3122.827)" fill="#fff"/><path d="M2302.493,3291.1c-.171-.011-.326-.026-.464-.038a16.852,16.852,0,0,1-9.947-4.227,13.4,13.4,0,0,1-4.622-10.078l1.7-80.646c.19-9.043,3.85-20.358,20.2-22.92.24-.038.438-.068.59-.1,52.232-10.51,97.434-25.027,138.188-44.555.928-.456,1.9-.965,2.9-1.493,5.993-3.163,13.446-7.126,20.575-4.34h0c10.21,4.041,9.841,14.839,9.744,16.294l-1.753,89.126c-.083,4.316-1.63,7.872-4.356,10.005-33.28,25.551-100.659,46.325-171.65,52.964A7.3,7.3,0,0,1,2302.493,3291.1Zm163.44-162.876c-3.764.121-8.073,2.393-11.977,4.442-1.062.556-2.089,1.091-3.07,1.569-41.215,19.639-86.883,34.169-139.615,44.6-.218.041-.5.086-.837.139-3.955.611-14.458,2.218-14.773,17.287l-1.7,80.97a7.5,7.5,0,0,0,2.583,5.642,9.275,9.275,0,0,0,5.472,2.334c.332.026.446.043.561.044,69.91-6.778,136.1-27.28,168.579-52.257,1.2-.941,1.918-2.821,1.962-5.154l1.755-88.892c0-.078.007-.159.013-.236.023-.285.518-7.473-5.834-10h0A7.7,7.7,0,0,0,2465.933,3128.227Z" transform="translate(-2287.458 -3121.764)"/><g transform="translate(15.015 16.513)"><g transform="translate(60.259 25.397)"><path d="M2434.371,3263.642l-42.538,13.282,1.62-80.661,42.527-14.644Z" transform="translate(-2388.584 -3178.499)" fill="#f4f4f4" fill-rule="evenodd"/><path d="M2390.763,3278.936a3.559,3.559,0,0,1-1.879-.647,3.142,3.142,0,0,1-1.37-2.6l1.62-80.5a3.076,3.076,0,0,1,2.159-2.811l42.528-14.707a3.335,3.335,0,0,1,2.986.369,3.048,3.048,0,0,1,1.351,2.579l-1.609,82.178a2.985,2.985,0,0,1-2.113,2.783L2391.9,3278.8A3.373,3.373,0,0,1,2390.763,3278.936Zm4.825-81.543-1.489,74.24,36-11.31,1.478-75.252Zm37.712,65.222h0Z" transform="translate(-2387.514 -3177.472)" fill="#f4f4f4"/><g transform="translate(0 0.002)"><g transform="translate(1.62 14.722)"><line x2="40.918" y2="67.379" transform="translate(3.249 3.04)"/><path d="M2433.836,3270.578a3.428,3.428,0,0,1-2.81-1.656l-40.918-67.306a2.937,2.937,0,0,1,1.176-4.156,3.366,3.366,0,0,1,4.44,1.085L2436.642,3266a2.983,2.983,0,0,1-1.176,4.221A3.254,3.254,0,0,1,2433.836,3270.578Z" transform="translate(-2389.667 -3197.043)"/></g><line x1="44.147" y2="95.305" transform="translate(3.249 3.118)"/><path d="M2390.761,3278.936a3.491,3.491,0,0,1-1.294-.315,3.076,3.076,0,0,1-1.682-4.07l44.148-95.168a3.34,3.34,0,0,1,4.273-1.665,3.045,3.045,0,0,1,1.681,4.089l-44.147,95.442A3.082,3.082,0,0,1,2390.761,3278.936Z" transform="translate(-2387.514 -3177.475)"/></g></g><g transform="translate(113.728)"><path d="M2505.53,3232.595l-42.625,18.646,1.622-83.257,42.61-19.992Z" transform="translate(-2459.656 -3144.773)" fill="#f4f4f4" fill-rule="evenodd"/><path d="M2461.835,3253.318a3.432,3.432,0,0,1-1.76-.563,3.239,3.239,0,0,1-1.489-2.743l1.622-83.1a3.192,3.192,0,0,1,1.891-2.815l42.609-20.047a3.243,3.243,0,0,1,3.136.148,3.118,3.118,0,0,1,1.469,2.717l-1.607,84.758a3.12,3.12,0,0,1-1.851,2.8l-42.624,18.593A3.278,3.278,0,0,1,2461.835,3253.318Zm4.831-84.4-1.486,76.359,36.07-15.852,1.472-77.351Zm37.793,62.623h0Z" transform="translate(-2458.586 -3143.714)"/><g transform="translate(0 0.001)"><g transform="translate(1.622 20.07)"><line x2="41.003" y2="64.611" transform="translate(3.248 3.139)"/><path d="M2505,3241.356a3.35,3.35,0,0,1-2.76-1.581l-41-64.549a3.1,3.1,0,0,1,1.04-4.333,3.289,3.289,0,0,1,4.475.939l41,64.673a3.159,3.159,0,0,1-1.04,4.407A3.192,3.192,0,0,1,2505,3241.356Z" transform="translate(-2460.743 -3170.393)"/></g><line x1="44.232" y2="103.248" transform="translate(3.249 3.218)"/><path d="M2461.833,3253.318a3.394,3.394,0,0,1-1.25-.289,3.187,3.187,0,0,1-1.745-4.157l44.233-103.1a3.336,3.336,0,0,1,4.248-1.837,3.14,3.14,0,0,1,1.744,4.167l-44.232,103.4A3.117,3.117,0,0,1,2461.833,3253.318Z" transform="translate(-2458.587 -3143.715)"/></g></g><g transform="translate(0 42.679)"><g transform="translate(0 53.729)"><g transform="translate(0.531)"><line x1="49.307" y2="10.802" transform="translate(3.249 3.021)"/><path d="M2311.369,3288.616a3.384,3.384,0,0,1-3.127-2.27,2.789,2.789,0,0,1,2.26-3.516l49.307-10.882a3.391,3.391,0,0,1,4,2.224,2.9,2.9,0,0,1-2.261,3.649l-49.308,10.722A3.5,3.5,0,0,1,2311.369,3288.616Z" transform="translate(-2308.122 -3271.863)"/></g><g transform="translate(0.256 13.583)"><line x1="49.307" y2="10.395" transform="translate(3.249 3.021)"/><path d="M2311,3306.263a3.42,3.42,0,0,1-3.127-2.3,2.764,2.764,0,0,1,2.26-3.5L2359.443,3290a3.422,3.422,0,0,1,4,2.257,2.878,2.878,0,0,1-2.26,3.63l-49.308,10.315A3.549,3.549,0,0,1,2311,3306.263Z" transform="translate(-2307.757 -3289.917)"/></g><g transform="translate(0 26.035)"><line x1="49.309" y2="10.028" transform="translate(3.249 3.023)"/><path d="M2310.663,3322.451a3.455,3.455,0,0,1-3.127-2.319,2.742,2.742,0,0,1,2.261-3.479l49.309-10.108a3.449,3.449,0,0,1,4,2.286,2.853,2.853,0,0,1-2.26,3.613l-49.309,9.949A3.532,3.532,0,0,1,2310.663,3322.451Z" transform="translate(-2307.417 -3306.469)"/></g></g><g transform="translate(0.813)"><g transform="translate(0 0)"><path d="M2362.126,3244.2l-49.312,11.219.829-39.908,49.286-11.055Z" transform="translate(-2309.566 -3201.439)" fill="#f4f4f4" fill-rule="evenodd"/><path d="M2311.745,3257.359a3.588,3.588,0,0,1-1.99-.678,2.934,2.934,0,0,1-1.258-2.407l.829-39.828a2.994,2.994,0,0,1,2.468-2.774l49.286-11.137a3.431,3.431,0,0,1,2.806.564,2.949,2.949,0,0,1,1.222,2.421l-.8,39.822a2.977,2.977,0,0,1-2.38,2.8l-49.31,11.14A3.5,3.5,0,0,1,2311.745,3257.359Zm4.031-40.509-.7,33.8,42.781-9.817.679-33.491Zm45.281,26.359h0Z" transform="translate(-2308.497 -3200.445)"/></g><g transform="translate(0.829 11.144)"><line x2="48.483" y2="28.689" transform="translate(3.249 2.932)"/><path d="M2361.327,3249.9a3.5,3.5,0,0,1-1.729-.506l-48.482-28.734a2.776,2.776,0,0,1-1.017-4.045,3.456,3.456,0,0,1,4.481-.9l48.482,28.644a2.942,2.942,0,0,1,1.017,4.2A3.219,3.219,0,0,1,2361.327,3249.9Z" transform="translate(-2309.598 -3215.257)"/></g><line x1="50.115" y2="50.963" transform="translate(3.249 3.021)"/><path d="M2311.743,3257.359a3.562,3.562,0,0,1-2.155-.808,2.742,2.742,0,0,1-.272-4.14l50.114-50.947a3.427,3.427,0,0,1,4.587-.264,2.885,2.885,0,0,1,.273,4.272l-50.115,50.98A3.3,3.3,0,0,1,2311.743,3257.359Z" transform="translate(-2308.497 -3200.444)"/></g></g></g></g><path d="M2244.893,3135.4V3108.5c0-15.96,5.335-35.892,30.75-40.214l.8-.142c125.407-24.521,199.522-68.11,225.566-85.712l1.58-1.076c9.16-6.248,20.559-14.024,35.172-8.117,7.7,3.106,12.865,11.119,12.865,19.937v26.6l-5.013,3.4c-25.312,17.1-121.577,75.675-297.83,111.416Zm283.466-157.741c-7.808,0-14.54,4.593-21.1,9.072l-1.6,1.092c-26.374,17.825-101.383,61.955-227.96,86.706-.263.053-.584.106-.959.172-6.267,1.066-25.342,4.31-25.342,33.809v18.938c172.593-35.568,266.717-92.829,291.584-109.632l2.161-1.469V2993.18c0-6.2-3.537-11.788-8.8-13.914A21.065,21.065,0,0,0,2528.359,2977.654Z" transform="translate(-2244.893 -2971.14)"/><g transform="translate(0 40.799)"><path d="M2266.778,3291.073a21.851,21.851,0,0,1-14.706-5.676v0a21.926,21.926,0,0,1-7.179-16.209V3142.2l2.6-.527c175.073-35.5,270.422-93.5,295.476-110.429l8.657-5.871v140.786a21.828,21.828,0,0,1-5.758,14.8c-56.255,61.306-146.849,97.291-276.962,110.015C2268.2,3291.039,2267.484,3291.073,2266.778,3291.073Zm-10.341-10.488a15.415,15.415,0,0,0,11.841,3.918c128.445-12.558,217.683-47.867,272.806-107.939a15.349,15.349,0,0,0,4.049-10.406V3037.615c-27.289,18.183-122.406,74.77-293.744,109.892v121.68a15.422,15.422,0,0,0,5.048,11.4Z" transform="translate(-2244.893 -3025.372)"/></g><g transform="translate(251.967 9.023)"><path d="M2586.24,3038.651a5.607,5.607,0,0,1-3.271-1.037,6.62,6.62,0,0,1-2.625-5.366l-.527-25.385a9.633,9.633,0,0,1,4.9-9.059l24.9-14.174a3.249,3.249,0,0,1,.918-.351,6.068,6.068,0,0,1,5.068,1.13,6.552,6.552,0,0,1,2.407,5.056l.571,27.6a8.573,8.573,0,0,1-5.308,8l-24.623,13.057a3.288,3.288,0,0,1-.522.221A6.148,6.148,0,0,1,2586.24,3038.651Zm.89-3.393h0Zm24.394-45.237-23.506,13.378c-1.184.726-1.745,1.4-1.7,3.329l.519,25.011,23.612-12.52a3.336,3.336,0,0,1,.522-.222,2.132,2.132,0,0,0,1.121-1.79v0Z" transform="translate(-2579.814 -2983.134)"/><path d="M2602.048,3025.134a3.247,3.247,0,0,1-2.4-1.059l-6.122-6.707a3.247,3.247,0,1,1,4.8-4.38l2.576,2.821,5.3-13.815a3.248,3.248,0,0,1,6.065,2.328l-7.185,18.727a3.251,3.251,0,0,1-2.43,2.028A3.338,3.338,0,0,1,2602.048,3025.134Z" transform="translate(-2583 -2987.289)"/></g></g><g transform="translate(90.41 107.326)"><g transform="translate(116.085)"><g transform="translate(0 144.697)"><path d="M2775.635,3348.5,2696,3424.864l-176.615-44.634,91.41-44.991Z" transform="translate(-2519.375 -3313.344)"/><path d="M2775.626,3319.4l-79.64,76.364-176.615-44.636,91.412-44.991Z" transform="translate(-2519.372 -3306.136)"/></g><g transform="translate(40.498)"><path d="M2685.53,3321.294l-13.518-12.361,10.906-5.771Z" transform="translate(-2597.677 -3160.703)" fill="#3e38ff"/><rect width="12.342" height="149.015" transform="translate(4.663 16.504) rotate(-27.872)" fill="#3e38ff"/><path d="M2584.829,3117.091a6.169,6.169,0,1,0-10.906,5.77l3.937,7.448,10.912-5.771Z" transform="translate(-2573.203 -3113.802)" fill="#3e38ff"/></g></g><path d="M2611.49,3345.141c-2.512-.516-5.084,8.761-5.762,10.658a99.046,99.046,0,0,1-10.14,19.732,120.122,120.122,0,0,1-14.4,18.353,130.9,130.9,0,0,1-46.258,29.856,36.794,36.794,0,0,0-6.1-4.549c-6.572-4.3-15.927-7.09-25.421-8-9.263-.89-20.642-.723-29.076,5.661-3.6,2.726-6.133,7.473-3.9,11.886,2.522,4.993,8.951,6.715,13.6,7.526,15.189,2.66,31.339-.107,48.21-5.189,4.191,9.764-3.28,16.194-14.633,21.952-10.595,5.372-22.363,7.533-32.894,9.028-31.415,4.473-61.042,2.586-92.644,6.276-8.26.962-16.434,2.305-24.56,4.079-4.174.908-3.319,7.342,5.048,5.233,23.654-5.274,47.218-4.793,71.361-6.219,25.925-1.529,52.253-1.277,78.711-14.375,11.933-5.906,20.88-15.937,15.3-28.114,20.9-7.344,41.536-22.83,53.282-37.009a117.819,117.819,0,0,0,20.265-34.838C2612.128,3355.306,2615.683,3346,2611.49,3345.141Zm-84.315,81.166c-13.067,3.69-28.3,5.95-40.2,4.405-4.111-.533-10.614-1.664-11.235-5.437-.678-4.14,8.068-6.764,12.528-7.634,14.323-2.795,27.939,1.121,38.857,7.926C2527.989,3426.062,2527.445,3426.138,2527.175,3426.307Z" transform="translate(-2365.069 -3171.095)" fill="#3e38ff" fill-rule="evenodd"/></g></g><path d="M2222.15,3087.424c13.63-.69,19.245,18.837,23.847,26.355a77.368,77.368,0,0,0,13.178,15.377c4.947,4.52,12.485,8.608,16,12.551a35.312,35.312,0,0,1,5.335,7.53c2.074,4.528,3.212,13.386.941,18.828-2.671,6.4-11.1,12.832-19.768,13.8a49.717,49.717,0,0,1-10.356-.312c-18.672-2.735-35.506-19.9-43.3-37.026-3.864-8.485-7.542-19.5-5.648-32.321a42.9,42.9,0,0,1,5.648-16.318C2210.362,3092.117,2215.807,3087.743,2222.15,3087.424Z" transform="translate(-2001.869 -1971.738)" fill="#ef7022" fill-rule="evenodd"/></g></svg>