<svg xmlns="http://www.w3.org/2000/svg" xmlns:xlink="http://www.w3.org/1999/xlink" width="369.472" height="369.472" viewBox="0 0 369.472 369.472"><defs><clipPath id="a"><path d="M130.462,6.531c72.052,3.607,133.386,64.941,136.993,136.993S215.576,271.062,143.524,267.455,10.138,202.514,6.531,130.462,58.41,2.924,130.462,6.531Z" transform="translate(0 175.264) rotate(-45)" fill="none"/></clipPath></defs><g transform="translate(-9.001 9.472)" opacity="0.36"><g clip-path="url(#a)"><g transform="translate(-14.798 -16.545)"><path d="M0,0,306.5,11.063l.39,10.109L.39,10.109Z" transform="translate(20.558 156.581) rotate(-24.083)" fill="#e61853"/><path d="M0,0,306.5,11.063l.39,10.109L.39,10.109Z" transform="translate(0 114.97) rotate(-24.083)" fill="#e61853"/><path d="M0,0,306.5,11.063l.39,10.109L.39,10.109Z" transform="translate(10.279 135.776) rotate(-24.083)" fill="#e61853"/><path d="M0,0,306.5,11.063l.39,10.109L.39,10.109Z" transform="translate(30.838 177.386) rotate(-24.083)" fill="#e61853"/><path d="M0,0,306.5,11.063l.39,10.109L.39,10.109Z" transform="translate(41.117 198.191) rotate(-24.083)" fill="#e61853"/><path d="M0,0,306.5,11.063l.39,10.109L.39,10.109Z" transform="translate(51.396 218.996) rotate(-24.083)" fill="#e61853"/><path d="M0,0,306.5,11.063l.39,10.109L.39,10.109Z" transform="translate(61.675 239.801) rotate(-24.083)" fill="#e61853"/><path d="M0,0,306.5,11.063l.39,10.109L.39,10.109Z" transform="translate(71.954 260.607) rotate(-24.083)" fill="#e61853"/><path d="M0,0,306.5,11.063l.39,10.109L.39,10.109Z" transform="translate(82.234 281.412) rotate(-24.083)" fill="#e61853"/><path d="M0,0,306.5,11.063l.39,10.109L.39,10.109Z" transform="translate(92.513 302.217) rotate(-24.083)" fill="#e61853"/><path d="M0,0,306.5,11.063l.39,10.109L.39,10.109Z" transform="translate(102.792 323.022) rotate(-24.083)" fill="#e61853"/><path d="M0,0,306.5,11.063l.39,10.109L.39,10.109Z" transform="translate(113.071 343.827) rotate(-24.083)" fill="#e61853"/><path d="M0,0,306.5,11.063l.39,10.109L.39,10.109Z" transform="translate(123.35 364.633) rotate(-24.083)" fill="#e61853"/></g></g></g></svg>