<svg xmlns="http://www.w3.org/2000/svg" width="24.021" height="18.37" viewBox="0 0 24.021 18.37">
  <path id="Path_3784" data-name="Path 3784" d="M1067.495,3217.487a.655.655,0,0,0,.495.212.7.7,0,0,0,.508-.212l8.478-8.479a.674.674,0,0,0,.2-.494.723.723,0,0,0-.2-.509l-8.478-8.478a.713.713,0,0,0-.508-.2.668.668,0,0,0-.495.2.7.7,0,0,0-.212.508.652.652,0,0,0,.212.495l7.263,7.277h-20.9a.675.675,0,0,0-.495.2.7.7,0,0,0-.212.509.724.724,0,0,0,.707.706h20.9l-7.263,7.264a.7.7,0,0,0-.212.509A.652.652,0,0,0,1067.495,3217.487Z" transform="translate(-1053.153 -3199.328)" fill="#fff"/>
</svg>
