<svg xmlns="http://www.w3.org/2000/svg" width="35.981" height="31.483" viewBox="0 0 35.981 31.483"><path d="M1783.285,68.405h33.41a1.285,1.285,0,0,0,1.285-1.285V63.907a1.285,1.285,0,0,0-1.285-1.285h-33.41A1.286,1.286,0,0,0,1782,63.907V67.12A1.286,1.286,0,0,0,1783.285,68.405Zm0,12.85h33.41a1.285,1.285,0,0,0,1.285-1.285V76.757a1.285,1.285,0,0,0-1.285-1.284h-33.41A1.285,1.285,0,0,0,1782,76.757V79.97A1.285,1.285,0,0,0,1783.285,81.255Zm0,12.85h33.41a1.285,1.285,0,0,0,1.285-1.284V89.608a1.285,1.285,0,0,0-1.285-1.285h-33.41A1.285,1.285,0,0,0,1782,89.608v3.212A1.285,1.285,0,0,0,1783.285,94.1Z" transform="translate(-1782 -62.622)"/></svg>