<svg xmlns="http://www.w3.org/2000/svg" width="64.648" height="61.323" viewBox="0 0 64.648 61.323"><g transform="translate(0)"><path d="M2960.575,4946.862a1.141,1.141,0,0,1,0,2.282h-62.366a1.141,1.141,0,1,1,0-2.282Z" transform="translate(-2897.068 -4946.862)"/><path d="M2960.575,4956.322a1.141,1.141,0,0,1,0,2.282h-62.366a1.141,1.141,0,1,1,0-2.282Z" transform="translate(-2897.068 -4949.205)"/><path d="M2960.575,4965.783a1.141,1.141,0,0,1,0,2.282h-62.366a1.141,1.141,0,1,1,0-2.282Z" transform="translate(-2897.068 -4951.548)"/><path d="M2960.575,4974.041a1.14,1.14,0,1,1,0,2.281h-14.389c.208.3.408.619.595.945a13.769,13.769,0,0,1,1.5,3.891h12.3a1.141,1.141,0,0,1,0,2.282h-12a13.685,13.685,0,0,1-.468,4.221c-.057.207-.119.411-.183.615h12.65a1.141,1.141,0,0,1,0,2.282h-13.622a13.488,13.488,0,0,1-2.58,3.4l8.639,15.1a3.313,3.313,0,1,1-5.753,3.289l-8.639-15.1a13.531,13.531,0,0,1-3.7.517,13.806,13.806,0,0,1-3.617-.485,13.605,13.605,0,0,1-8.287-6.412c-.059-.1-.116-.205-.172-.306h-24.636a1.141,1.141,0,1,1,0-2.282h23.662a13.605,13.605,0,0,1-.643-4.836h-23.02a1.141,1.141,0,1,1,0-2.282h23.32a13.743,13.743,0,0,1,2.083-4.836h-25.4a1.14,1.14,0,1,1,0-2.281h27.366a13.693,13.693,0,0,1,18.646,0Zm-9.444,36.926a1.02,1.02,0,0,0-.1-.784l-8.459-14.786c-.284.192-.575.378-.874.549s-.607.331-.917.478l8.458,14.782a1.032,1.032,0,0,0,1.892-.24Zm-5.224-23.906a11.408,11.408,0,0,0-8.013-14,11.485,11.485,0,0,0-3.014-.4,11.41,11.41,0,1,0,11.027,14.408Z" transform="translate(-2897.068 -4952.687)"/><path d="M2965.424,5018.42a1.019,1.019,0,0,1,.1.784,1.032,1.032,0,0,1-1.892.24l-8.458-14.783c.309-.147.615-.3.917-.478s.59-.357.874-.549Z" transform="translate(-2911.46 -4960.923)" fill="#3ecef0"/><path d="M2953.5,4979.148a11.4,11.4,0,1,1-9.92-5.746,11.468,11.468,0,0,1,3.014.4A11.338,11.338,0,0,1,2953.5,4979.148Zm-4.839,14.512a10.2,10.2,0,1,0-5.045,1.344A10.207,10.207,0,0,0,2948.661,4993.66Z" transform="translate(-2905.768 -4953.436)" fill="#e61853"/><path d="M2952.844,4980.153a10.2,10.2,0,1,1-6.171-4.771A10.206,10.206,0,0,1,2952.844,4980.153Zm-16.747,4.69h15.8a7.892,7.892,0,0,0-5.819-7.261,7.977,7.977,0,0,0-2.091-.279,7.914,7.914,0,0,0-7.888,7.54Zm15.57,2.281H2936.32a7.906,7.906,0,0,0,15.347,0Z" transform="translate(-2906.166 -4953.836)"/></g></svg>