<svg xmlns="http://www.w3.org/2000/svg" width="55.615" height="54.207" viewBox="0 0 55.615 54.207"><g transform="translate(0)"><path d="M2283.4,4973.645v14.507a1.057,1.057,0,0,1-1.056,1.056h-53.5a1.055,1.055,0,0,1-1.056-1.056v-14.507a1.056,1.056,0,0,1,1.056-1.057h3.079v-2.174h-3.079a1.055,1.055,0,0,1-1.056-1.056v-14.508a1.055,1.055,0,0,1,1.056-1.056h3.079v-2.174h-3.079a1.055,1.055,0,0,1-1.056-1.055v-14.508a1.055,1.055,0,0,1,1.056-1.056h53.5a1.057,1.057,0,0,1,1.056,1.056v14.508a1.056,1.056,0,0,1-1.056,1.055h-3.079v2.174h3.079a1.057,1.057,0,0,1,1.056,1.056v14.508a1.057,1.057,0,0,1-1.056,1.056h-3.079v2.174h3.079A1.057,1.057,0,0,1,2283.4,4973.645Zm-2.112,13.451v-12.4h-5.515v12.4Zm0-18.793v-12.4h-5.515v12.4Zm0-18.794v-12.4h-5.515v12.4Zm-4.135,23.08v-2.174h-43.121v2.174Zm0-18.793v-2.174h-43.121v2.174Zm-3.492,33.3v-12.4h-5.493v12.4Zm0-18.793v-12.4h-5.493v12.4Zm0-18.794v-12.4h-5.493v12.4Zm-7.6,37.588v-12.4H2229.9v12.4Zm0-18.793v-12.4H2229.9v12.4Zm0-18.794v-12.4H2229.9v12.4Z" transform="translate(-2227.789 -4935.001)"/><rect width="5.515" height="12.396" transform="translate(47.988 39.699)" fill="#3ecef0"/><rect width="5.515" height="12.396" transform="translate(47.988 20.906)" fill="#3ecef0"/><rect width="5.515" height="12.396" transform="translate(47.988 2.112)" fill="#3ecef0"/><path d="M2266.841,4989.368v12.4h-36.16v-12.4Zm-27.712,6.2a1.058,1.058,0,1,0-.31.746A1.059,1.059,0,0,0,2239.129,4995.565Zm-3.379,0a1.058,1.058,0,1,0-.31.746A1.06,1.06,0,0,0,2235.75,4995.565Z" transform="translate(-2228.57 -4949.668)" fill="#3ecef0"/><path d="M2266.841,4963.629v12.4h-36.16v-12.4Zm-27.712,6.2a1.058,1.058,0,1,0-.31.746A1.059,1.059,0,0,0,2239.129,4969.827Zm-3.379,0a1.058,1.058,0,1,0-.31.746A1.059,1.059,0,0,0,2235.75,4969.827Z" transform="translate(-2228.57 -4942.724)" fill="#3ecef0"/><path d="M2266.841,4937.892v12.4h-36.16v-12.4Zm-27.712,6.2a1.057,1.057,0,1,0-.31.747A1.061,1.061,0,0,0,2239.129,4944.09Zm-3.379,0a1.057,1.057,0,1,0-.31.747A1.061,1.061,0,0,0,2235.75,4944.09Z" transform="translate(-2228.57 -4935.78)" fill="#3ecef0"/><path d="M2241.16,4945.244a1.056,1.056,0,1,1-.746-.31A1.059,1.059,0,0,1,2241.16,4945.244Z" transform="translate(-2230.91 -4937.68)"/><path d="M2241.16,4970.981a1.055,1.055,0,1,1-.746-.31A1.058,1.058,0,0,1,2241.16,4970.981Z" transform="translate(-2230.91 -4944.624)"/><path d="M2241.16,4996.719a1.054,1.054,0,1,1-.746-.311A1.059,1.059,0,0,1,2241.16,4996.719Z" transform="translate(-2230.91 -4951.567)"/><path d="M2236.532,4945.244a1.057,1.057,0,1,1-.746-.31A1.059,1.059,0,0,1,2236.532,4945.244Z" transform="translate(-2229.662 -4937.68)"/><path d="M2236.532,4970.981a1.055,1.055,0,1,1-.746-.31A1.059,1.059,0,0,1,2236.532,4970.981Z" transform="translate(-2229.662 -4944.624)"/><path d="M2236.532,4996.719a1.054,1.054,0,1,1-.746-.311A1.062,1.062,0,0,1,2236.532,4996.719Z" transform="translate(-2229.662 -4951.567)"/></g></svg>