<svg id="Layer_1" data-name="Layer 1" xmlns="http://www.w3.org/2000/svg" xmlns:xlink="http://www.w3.org/1999/xlink" viewBox="0 0 274.31 183.47"><defs><style>.cls-1{fill:none;}.cls-2{clip-path:url(#clip-path);}.cls-3{clip-path:url(#clip-path-2);}.cls-4{clip-path:url(#clip-path-3);}.cls-5{clip-path:url(#clip-path-4);}.cls-6{clip-path:url(#clip-path-5);}.cls-7{clip-path:url(#clip-path-6);}.cls-8{fill:#f07021;}.cls-9{clip-path:url(#clip-path-7);}.cls-10{fill:#e91552;}</style><clipPath id="clip-path"><path class="cls-1" d="M-170-230.33c32,0,45.65,12.87,45.65,42.91v58.15c0,29.82-14.1,43.12-45.65,43.12-30.93,0-44.18-12.87-44.18-43.12v-58.15C-214.42-217.89-201.59-230.33-170-230.33Zm0-17.17c-41.65,0-61.85,19.74-61.85,60.08v58.15C-231.88-88.72-211.68-69-170-69c41.86,0,63.11-20.39,63.11-60.29v-58.15C-106.92-227.11-128.17-247.5-170-247.5Z"/></clipPath><clipPath id="clip-path-2"><path class="cls-1" d="M4.94-153.17H-44.51v-76.91H4.72c31.23,0,31.23,19,31.23,25.34v21.6C36.17-163.53,25.33-153.17,4.94-153.17Zm0-94.33H-62.29V-69h17.78v-66.56H4.72c31.23,0,49-17.41,49-47.6V-205C54-232.07,36.17-247.5,4.94-247.5Z"/></clipPath><clipPath id="clip-path-3"><polygon class="cls-1" points="196.55 -247.5 71.59 -247.5 71.59 -230.08 125.42 -230.08 125.42 -68.98 143.37 -68.98 143.37 -230.08 196.55 -230.08 196.55 -247.5"/></clipPath><clipPath id="clip-path-4"><path class="cls-1" d="M-93,169.17l-8.86,1.54c-1.3.22-31.14,5.52-48.87,5.52-16,0-32.22-7.94-32.22-23.16v-10.8c0-16.1,5.62-20.29,29.84-22.72h41.3V93.09h-40.44c-17.29-2-25.94-9.26-25.94-21.39V62.44c0-5.51,0-17,29.19-17,13,0,45,5.29,45.41,5.29l9.08,1.55,3-26L-99.9,25c-.86-.22-33.51-5.73-48.43-5.73-46.49,0-56.22,23.82-56.22,43.66v9.26c0,13.9,4.54,24.26,13.62,32-12.33,7.72-18.38,20.29-18.38,38.15v11.46c0,28.89,24.22,49,58.81,49,20.55,0,50-5.07,53.42-5.74l8.65-1.54Z"/></clipPath><clipPath id="clip-path-5"><path class="cls-1" d="M26.6,98.57c8-2.87,24.65-8.16,35.46-8.16,29,0,32.65,13,32.65,24.48v12.57C94.71,147.74,84.12,157,61.2,157c-25.09,0-34.6-11-34.6-40.8ZM62.71,64c-9.52,0-21.62,2.42-35.9,7.28V67.48c0-27.57,13-40.8,39.79-40.8,5.19,0,26.38,2.43,39.57,4l9.08,1.1,2.17-26.68L108.77,4c-.43,0-32.87-4-42.39-4C23.57,0,0,23.82,0,67.26v49.39c0,43.66,21.19,66.82,61.2,66.82,37.19,0,60.11-21.39,60.11-56V114.89C121.53,95.92,113.74,64,62.71,64Z"/></clipPath><clipPath id="clip-path-6"><rect class="cls-1" x="-763.05" y="-151.16" width="2441.04" height="4068.4"/></clipPath><clipPath id="clip-path-7"><path class="cls-1" d="M168.88,70.56c0-29.54,12.54-43.88,38.49-43.88S245.86,41,245.86,70.56v46.09c0,26.46-13.19,40.58-38.27,40.58-25.3,0-38.49-14.12-38.49-40.58V70.56ZM207.37.22c-41.08,0-64.65,25.58-64.65,70.34v46.09c0,41.24,24.86,67,64.87,67,40.44,0,64.65-25.14,64.65-67V70.56C272.24,25.8,248.67.22,207.37.22Z"/></clipPath></defs><g class="cls-6"><g class="cls-7"><rect class="cls-8" x="-33.9" y="-33.9" width="189.12" height="251.27"/></g></g><g class="cls-9"><g class="cls-7"><rect class="cls-10" x="108.81" y="-33.68" width="197.33" height="251.27"/></g></g></svg>