<svg id="Layer_1" data-name="Layer 1" xmlns="http://www.w3.org/2000/svg" xmlns:xlink="http://www.w3.org/1999/xlink" viewBox="0 0 120.88 183.47"><defs><style>.cls-1{fill:none;}.cls-2{clip-path:url(#clip-path);}.cls-3{clip-path:url(#clip-path-2);}.cls-4{clip-path:url(#clip-path-3);}.cls-5{clip-path:url(#clip-path-4);}.cls-6{clip-path:url(#clip-path-5);}.cls-7{fill:#fab612;}.cls-8{clip-path:url(#clip-path-6);}.cls-9{clip-path:url(#clip-path-7);}</style><clipPath id="clip-path"><path class="cls-1" d="M39.28-249.55c32,0,45.65,12.87,45.65,42.91v58.15c0,29.82-14.09,43.12-45.65,43.12-30.92,0-44.18-12.87-44.18-43.12v-58.15C-5.11-237.11,7.73-249.55,39.28-249.55Zm0-17.17c-41.65,0-61.85,19.74-61.85,60.08v58.15c0,40.55,20.2,60.29,61.85,60.29,41.86,0,63.11-20.39,63.11-60.29v-58.15C102.39-246.33,81.14-266.72,39.28-266.72Z"/></clipPath><clipPath id="clip-path-2"><path class="cls-1" d="M214.25-172.39H164.8V-249.3H214c31.23,0,31.23,19,31.23,25.34v21.6C245.48-182.75,234.64-172.39,214.25-172.39Zm0-94.33H147V-88.2H164.8v-66.56H214c31.23,0,49-17.41,49-47.6v-21.82C263.27-251.29,245.48-266.72,214.25-266.72Z"/></clipPath><clipPath id="clip-path-3"><polygon class="cls-1" points="405.86 -266.71 280.9 -266.71 280.9 -249.31 334.74 -249.31 334.74 -88.2 352.68 -88.2 352.68 -249.31 405.86 -249.31 405.86 -266.71"/></clipPath><clipPath id="clip-path-4"><path class="cls-1" d="M116.34,150l-8.87,1.54c-1.3.22-31.14,5.52-48.87,5.52-16,0-32.22-7.94-32.22-23.16v-10.8c0-16.1,5.62-20.29,29.84-22.72h41.3V73.87H57.09c-17.3-2-25.95-9.26-25.95-21.39V43.22c0-5.51,0-17,29.19-17,13,0,45,5.29,45.41,5.29l9.08,1.55,3-26-8.43-1.33C108.55,5.51,75.9,0,61,0,14.49,0,4.76,23.82,4.76,43.66v9.26c0,13.9,4.54,24.26,13.62,32C6.05,92.62,0,105.19,0,123.05v11.46c0,28.89,24.22,49,58.82,49,20.54,0,49.95-5.07,53.41-5.74l8.65-1.54Z"/></clipPath><clipPath id="clip-path-5"><rect class="cls-1" x="-617.74" y="-151.38" width="2441.04" height="4068.4"/></clipPath><clipPath id="clip-path-6"><path class="cls-1" d="M235.91,79.35c8-2.87,24.65-8.16,35.46-8.16,29,0,32.65,13,32.65,24.48v12.57c0,20.28-10.59,29.54-33.51,29.54-25.09,0-34.6-11-34.6-40.79ZM272,44.73c-9.51,0-21.62,2.42-35.89,7.28V48.26c0-27.57,13-40.8,39.78-40.8,5.19,0,26.38,2.43,39.57,4l9.09,1.1,2.16-26.68-8.65-1.1c-.43,0-32.87-4-42.38-4-42.82,0-66.39,23.82-66.39,67.26V97.43c0,43.66,21.19,66.82,61.2,66.82,37.19,0,60.11-21.39,60.11-56V95.67C330.84,76.7,323.05,44.73,272,44.73Z"/></clipPath><clipPath id="clip-path-7"><path class="cls-1" d="M378.19,51.34c0-29.54,12.55-43.88,38.49-43.88s38.49,14.34,38.49,43.88V97.43C455.17,123.89,442,138,416.9,138c-25.3,0-38.49-14.12-38.49-40.58V51.34ZM416.68-19C375.6-19,352,6.58,352,51.34V97.43c0,41.24,24.87,67,64.87,67,40.44,0,64.66-25.14,64.66-67V51.34C481.56,6.58,458-19,416.68-19Z"/></clipPath></defs><g class="cls-5"><g class="cls-6"><rect class="cls-7" x="-33.9" y="-33.9" width="188.68" height="251.27"/></g></g></svg>