<svg id="Layer_1" data-name="Layer 1" xmlns="http://www.w3.org/2000/svg" xmlns:xlink="http://www.w3.org/1999/xlink" viewBox="0 0 428.43 178.51"><defs><style>.cls-1{fill:none;}.cls-2{clip-path:url(#clip-path);}.cls-3{clip-path:url(#clip-path-2);}.cls-4{fill:#333;}.cls-5{clip-path:url(#clip-path-3);}.cls-6{clip-path:url(#clip-path-5);}.cls-7{clip-path:url(#clip-path-7);}.cls-8{clip-path:url(#clip-path-8);}.cls-9{clip-path:url(#clip-path-9);}</style><clipPath id="clip-path"><path class="cls-1" d="M61.85,17.16c32,0,45.65,12.88,45.65,42.92v58.14c0,29.82-14.1,43.13-45.65,43.13-30.93,0-44.18-12.88-44.18-43.13V60.08C17.46,29.61,30.29,17.16,61.85,17.16ZM61.85,0C20.2,0,0,19.74,0,60.08v58.14c0,40.55,20.2,60.29,61.85,60.29,41.86,0,63.11-20.38,63.11-60.29V60.08C125,20.38,103.71,0,61.85,0Z"/></clipPath><clipPath id="clip-path-2"><rect class="cls-1" x="-169.52" y="-158.1" width="2441.04" height="4068.4"/></clipPath><clipPath id="clip-path-3"><path class="cls-1" d="M236.82,94.32H187.37V17.41H236.6c31.23,0,31.23,19,31.23,25.34v21.6C268.05,84,257.2,94.32,236.82,94.32Zm0-94.32H169.59V178.51h17.78V112H236.6c31.23,0,49-17.42,49-47.61V42.53C285.83,15.43,268.05,0,236.82,0Z"/></clipPath><clipPath id="clip-path-5"><polygon class="cls-1" points="428.43 0 303.47 0 303.47 17.41 357.3 17.41 357.3 178.51 375.25 178.51 375.25 17.41 428.43 17.41 428.43 0"/></clipPath><clipPath id="clip-path-7"><path class="cls-1" d="M138.9,416.66,130,418.21c-1.3.22-31.14,5.51-48.87,5.51-16,0-32.22-7.94-32.22-23.15V389.76c0-16.1,5.62-20.29,29.84-22.71h41.3V340.59H79.65c-17.29-2-25.94-9.26-25.94-21.39v-9.26c0-5.52,0-17,29.19-17,13,0,45,5.29,45.41,5.29l9.08,1.54,3-26L132,272.45c-.86-.22-33.51-5.73-48.43-5.73-46.49,0-56.23,23.81-56.23,43.66v9.26c0,13.89,4.55,24.26,13.63,32-12.33,7.72-18.38,20.29-18.38,38.15v11.47c0,28.89,24.22,48.95,58.81,48.95,20.55,0,50-5.07,53.41-5.73l8.65-1.54Z"/></clipPath><clipPath id="clip-path-8"><path class="cls-1" d="M258.48,346.06c8-2.86,24.65-8.15,35.46-8.15,29,0,32.65,13,32.65,24.47V375c0,20.29-10.59,29.55-33.51,29.55-25.09,0-34.6-11-34.6-40.79Zm36.11-34.62c-9.52,0-21.62,2.43-35.9,7.28V315c0-27.56,13-40.79,39.79-40.79,5.19,0,26.38,2.42,39.57,4l9.08,1.1,2.17-26.68-8.65-1.11c-.43,0-32.87-4-42.39-4-42.81,0-66.38,23.81-66.38,67.25v49.4c0,43.66,21.19,66.81,61.2,66.81,37.19,0,60.11-21.39,60.11-56V362.38C353.41,343.42,345.62,311.44,294.59,311.44Z"/></clipPath><clipPath id="clip-path-9"><path class="cls-1" d="M400.76,318.06c0-29.55,12.54-43.88,38.49-43.88s38.49,14.33,38.49,43.88v46.09c0,26.46-13.19,40.57-38.27,40.57-25.3,0-38.49-14.11-38.49-40.57V318.06Zm38.49-70.34c-41.08,0-64.65,25.57-64.65,70.34v46.09c0,41.23,24.86,67,64.87,67,40.43,0,64.65-25.14,64.65-67V318.06C504.12,273.29,480.55,247.72,439.25,247.72Z"/></clipPath></defs><g class="cls-2"><g class="cls-3"><rect class="cls-4" x="-33.9" y="-33.9" width="192.76" height="246.32"/></g></g><g class="cls-5"><g class="cls-3"><rect class="cls-4" x="135.68" y="-33.9" width="183.84" height="246.32"/></g></g><g class="cls-6"><g class="cls-3"><rect class="cls-4" x="269.57" y="-33.9" width="192.76" height="246.32"/></g></g></svg>