<svg xmlns="http://www.w3.org/2000/svg" width="130.499" height="28.247">
  <defs>
    <clipPath id="a">
      <path d="M183.6 56.825c4.817 0 6.779 1.69 6.779 6.214v9.039c0 4.492-2.026 6.214-6.779 6.214-4.658 0-6.779-1.657-6.779-6.214v-9.039c-.028-4.59 2.03-6.214 6.779-6.214zm0-2.825c-6.274 0-9.6 2.963-9.6 9.039v9.039c0 6.109 3.33 9.039 9.6 9.039 6.306 0 9.039-3.027 9.039-9.039v-9.039C192.643 57.06 189.91 54 183.6 54z" transform="translate(-174 -54)" fill="#fff"/>
    </clipPath>
    <clipPath id="b">
      <path fill="#fff" d="M0 0h367.491v613.1H0z"/>
    </clipPath>
    <clipPath id="c">
      <path d="M229.169 68.123h-7.344v-11.3h7.344c4.7 0 5.084 2.426 5.084 3.39V63.6c.033 2.958-2.014 4.523-5.084 4.523zm0-14.123H219v27.117h2.825V70.948h7.344c4.7 0 7.344-2.8 7.344-7.344v-3.39c.033-4.083-2.64-6.214-7.344-6.214z" transform="translate(-219 -54)" fill="#fff"/>
    </clipPath>
    <clipPath id="d">
      <path d="M273.643 54H255v2.825h7.909v24.292h2.825V56.825h7.909z" transform="translate(-255 -54)" fill="#fff"/>
    </clipPath>
    <clipPath id="e">
      <path d="M311.513 74.6l-1.695.565c-.2.033-4.673.565-7.344.565-2.411 0-4.519-1.1-4.519-3.39v-1.697c0-2.425.871-3.025 4.519-3.39h6.214V63.3h-6.214c-2.606-.3-3.954-1.563-3.954-3.39v-1.13c0-.83.123-2.825 4.519-2.825a48.647 48.647 0 016.779 1.13h1.13l.565-3.955h-1.13a49.7 49.7 0 00-7.344-1.13c-7 0-8.474 3.79-8.474 6.779v1.13a6.635 6.635 0 002.26 5.084 6.092 6.092 0 00-2.825 5.65v1.695c0 4.352 3.262 7.344 8.474 7.344a84.43 84.43 0 008.474-.565l1.13-.565z" transform="translate(-294 -52)" fill="#fff"/>
    </clipPath>
    <clipPath id="f">
      <path d="M336.519 66.688a17.659 17.659 0 015.084-1.13c4.365 0 5.084 2.228 5.084 3.955v1.695c0 3.056-1.632 4.519-5.084 4.519-3.778 0-5.084-1.73-5.084-6.214zM341.6 61.6a16.063 16.063 0 00-5.084 1.13v-.565c0-4.152 1.611-6.214 5.649-6.214.782 0 4.227.332 6.214.565l1.13.565.565-4.519h-1.695c-.066 0-4.781-.565-6.214-.565C335.72 52 332 55.625 332 62.169v7.344c0 6.577 3.578 10.169 9.6 10.169 5.6 0 9.039-3.259 9.039-8.474v-1.695c.037-2.856-1.348-7.913-9.039-7.913z" transform="translate(-332 -52)" fill="#fff"/>
    </clipPath>
    <clipPath id="g">
      <path d="M373.954 62.734c0-4.451 2.306-6.779 6.214-6.779s5.649 2.328 5.649 6.779v6.779c0 3.986-1.87 6.214-5.649 6.214-3.811 0-6.214-2.228-6.214-6.214v-6.779zM380.169 52C373.98 52 370 55.991 370 62.734v6.779c0 6.211 4.143 10.169 10.169 10.169 6.091 0 9.6-3.857 9.6-10.169v-6.779c.004-6.743-3.379-10.734-9.6-10.734z" transform="translate(-370 -52)" fill="#fff"/>
    </clipPath>
  </defs>
  <g clip-path="url(#a)" transform="translate(0 1.13)">
    <g transform="translate(-25.238 -23.975)" clip-path="url(#b)">
      <path fill="#fff" d="M20.314 19.082h28.931v36.934H20.314z"/>
    </g>
  </g>
  <g clip-path="url(#c)" transform="translate(25.422 1.13)">
    <g transform="translate(-50.66 -23.975)" clip-path="url(#b)">
      <path fill="#fff" d="M45.552 19.082h27.7v36.934h-27.7z"/>
    </g>
  </g>
  <g clip-path="url(#d)" transform="translate(45.759 1.13)">
    <g transform="translate(-70.997 -23.975)" clip-path="url(#b)">
      <path fill="#fff" d="M65.865 19.082h28.931v36.934H65.865z"/>
    </g>
  </g>
  <g transform="translate(67.792)" clip-path="url(#e)">
    <g transform="translate(-93.03 -22.845)" clip-path="url(#b)">
      <path fill="#fff" d="M88.025 17.851h28.316V55.4H88.025z"/>
    </g>
  </g>
  <g clip-path="url(#f)" transform="translate(89.259)">
    <g transform="translate(-114.497 -22.845)" clip-path="url(#b)">
      <path fill="#fff" d="M109.57 17.851h28.931V55.4H109.57z"/>
    </g>
  </g>
  <g transform="translate(110.727)" clip-path="url(#g)">
    <g transform="translate(-135.965 -22.845)" clip-path="url(#b)">
      <path fill="#fff" d="M131.115 17.851h29.547V55.4h-29.547z"/>
    </g>
  </g>
</svg>
