<svg xmlns="http://www.w3.org/2000/svg" width="65.209" height="80" viewBox="0 0 65.209 80"><g transform="translate(-1306.093 -2710.34)"><path d="M1351.752,2757.4a22.046,22.046,0,0,0,1.512-32.8,20.715,20.715,0,0,0-15.709-5.927,21.424,21.424,0,0,0-19.946,19.856,21.974,21.974,0,0,0,7.9,18.765,13.872,13.872,0,0,1,4.994,9.938h-1.095a4.459,4.459,0,0,0-4.4,4.506,4.525,4.525,0,0,1,0,7.125,4.459,4.459,0,0,0,4.4,4.507h1.843a7.489,7.489,0,0,0,14.905,0h1.834a4.457,4.457,0,0,0,4.4-4.507,4.527,4.527,0,0,1,0-7.125,4.457,4.457,0,0,0-4.4-4.506h-1.109A13.721,13.721,0,0,1,1351.752,2757.4ZM1338.7,2788.24a5.708,5.708,0,0,1-5.574-4.865h11.157A5.713,5.713,0,0,1,1338.7,2788.24Zm11.843-9.373a2.587,2.587,0,0,1-2.552,2.617h-18.582a2.617,2.617,0,0,1,0-5.233h18.582A2.588,2.588,0,0,1,1350.541,2778.867Zm0-7.125a2.589,2.589,0,0,1-2.552,2.619h-18.582a2.619,2.619,0,0,1,0-5.236h18.582A2.588,2.588,0,0,1,1350.541,2771.742Zm-14.987-27.238h6.286v22.729h-6.286Zm.506-1.89,2.638-5.982,2.636,5.982Zm8.953,24.621h-1.329v-23.676a.96.96,0,0,0-.08-.38l0-.009-4.064-9.222a.913.913,0,0,0-1.68,0l-4.065,9.222,0,.009a.96.96,0,0,0-.08.38v23.676h-1.342a15.782,15.782,0,0,0-5.711-11.415,20.067,20.067,0,0,1-7.211-17.135,19.551,19.551,0,0,1,18.2-18.122,18.946,18.946,0,0,1,14.344,5.409,20.126,20.126,0,0,1-1.381,29.944A15.661,15.661,0,0,0,1345.013,2767.236Z" transform="translate(0 0.211)" fill="#e61853"/><path d="M1339.624,2716.049v-4.764a.922.922,0,1,0-1.843,0v4.764a.922.922,0,1,0,1.843,0Z" transform="translate(0 0)" fill="#e61853"/><path d="M1325.645,2720.47a.958.958,0,0,0,.337-1.291l-2.323-4.125a.908.908,0,0,0-1.259-.345.958.958,0,0,0-.337,1.29l2.323,4.126A.91.91,0,0,0,1325.645,2720.47Z" transform="translate(0 0.107)" fill="#e61853"/><path d="M1315.747,2728.686l-4.024-2.382a.908.908,0,0,0-1.258.345.957.957,0,0,0,.337,1.29l4.023,2.382a.908.908,0,0,0,1.259-.345A.958.958,0,0,0,1315.747,2728.686Z" transform="translate(0 0.401)" fill="#e61853"/><path d="M1306.093,2742.962a.934.934,0,0,0,.922.945h4.646a.945.945,0,0,0,0-1.89h-4.646A.934.934,0,0,0,1306.093,2742.962Z" transform="translate(0 0.803)" fill="#e61853"/><path d="M1314.819,2755.663l-4.023,2.382a.959.959,0,0,0-.337,1.291.909.909,0,0,0,1.258.346l4.024-2.382a.959.959,0,0,0,.337-1.291A.91.91,0,0,0,1314.819,2755.663Z" transform="translate(0 1.145)" fill="#e61853"/><path d="M1361.31,2756.019a.959.959,0,0,0,.338,1.291l4.024,2.382a.91.91,0,0,0,1.259-.346.959.959,0,0,0-.337-1.291l-4.025-2.382A.909.909,0,0,0,1361.31,2756.019Z" transform="translate(0 1.145)" fill="#e61853"/><path d="M1371.3,2742.972a.933.933,0,0,0-.921-.944h-4.648a.945.945,0,0,0,0,1.89h4.648A.934.934,0,0,0,1371.3,2742.972Z" transform="translate(0 0.803)" fill="#e61853"/><path d="M1366.936,2726.659a.909.909,0,0,0-1.259-.346l-4.023,2.382a.959.959,0,0,0-.338,1.291.91.91,0,0,0,1.259.346l4.024-2.382A.959.959,0,0,0,1366.936,2726.659Z" transform="translate(0 0.401)" fill="#e61853"/><path d="M1353.019,2720.131l2.323-4.126a.958.958,0,0,0-.337-1.29.909.909,0,0,0-1.259.346l-2.323,4.125a.96.96,0,0,0,.337,1.291A.91.91,0,0,0,1353.019,2720.131Z" transform="translate(0 0.108)" fill="#e61853"/></g></svg>