<svg xmlns="http://www.w3.org/2000/svg" width="80" height="79.751" viewBox="0 0 80 79.751"><g transform="translate(-760.739 -2711.987)"><path d="M839.8,2781.332h-3.344v-38.263a3.385,3.385,0,0,0-3.388-3.374h-5.373v-26.766a.942.942,0,0,0-.942-.942H774.729a.942.942,0,0,0-.942.942v26.766h-5.372a3.384,3.384,0,0,0-3.388,3.374v38.263h-3.346a.942.942,0,0,0-.942.942v2.417a7.055,7.055,0,0,0,7.046,7.046h65.909a7.053,7.053,0,0,0,7.044-7.046v-2.417A.942.942,0,0,0,839.8,2781.332Zm-6.731-39.754a1.482,1.482,0,0,1,1.5,1.491v38.263h-6.876v-39.754Zm-57.4-27.707h50.139v26.741c0,.009-.005.016-.005.024s.005.016.005.024v40.671h-16.03a.94.94,0,0,0-.74.36l-3.075,3.9h-10.45l-3.075-3.9a.938.938,0,0,0-.74-.36H775.67v-67.461Zm-8.758,29.2a1.481,1.481,0,0,1,1.5-1.49h5.372v39.753h-6.875Zm71.944,41.623a5.168,5.168,0,0,1-5.161,5.162H767.785a5.168,5.168,0,0,1-5.162-5.162v-1.475h28.619l3.075,3.9a.937.937,0,0,0,.74.36h11.365a.94.94,0,0,0,.74-.36l3.075-3.9h28.62Z" transform="translate(0 0)" fill="#e61853"/><path d="M796.6,2741.336l-.7,3.5a12.355,12.355,0,0,0-2.447,1.019l-2.98-1.986a.941.941,0,0,0-1.191.12l-3,3.024a.942.942,0,0,0-.116,1.183l1.973,2.983a12.448,12.448,0,0,0-1.023,2.445l-3.5.7a.943.943,0,0,0-.756.924v4.248a.94.94,0,0,0,.751.922l3.5.72a12.9,12.9,0,0,0,1.022,2.446l-1.974,2.985a.943.943,0,0,0,.12,1.185l3,3a.946.946,0,0,0,1.187.121l2.985-1.977a12.755,12.755,0,0,0,2.444,1.006l.7,3.5a.943.943,0,0,0,.924.757h4.249a.939.939,0,0,0,.922-.753l.719-3.5a12.777,12.777,0,0,0,2.446-1.007l2.985,1.975a.939.939,0,0,0,1.186-.119l3-3a.942.942,0,0,0,.121-1.185l-1.974-2.986a12.814,12.814,0,0,0,1.005-2.444l3.519-.72a.942.942,0,0,0,.753-.922v-4.248a.943.943,0,0,0-.758-.924l-3.516-.7a12.792,12.792,0,0,0-1-2.442l1.974-2.984a.944.944,0,0,0-.119-1.183l-3-3.024a.939.939,0,0,0-1.191-.12l-2.978,1.986a12.244,12.244,0,0,0-2.45-1.02l-.719-3.5a.939.939,0,0,0-.922-.752h-4.249A.941.941,0,0,0,796.6,2741.336Zm1.694,1.127H801l.68,3.318a.937.937,0,0,0,.7.726,10.466,10.466,0,0,1,3.018,1.258.943.943,0,0,0,1.016-.019l2.822-1.882,1.917,1.931-1.87,2.825a.943.943,0,0,0-.022,1,10.949,10.949,0,0,1,1.243,3.029.94.94,0,0,0,.73.7l3.332.667v2.707l-3.336.683a.941.941,0,0,0-.726.7,10.978,10.978,0,0,1-1.243,3.027.943.943,0,0,0,.022,1l1.867,2.824-1.915,1.917-2.825-1.868a.939.939,0,0,0-1-.023,10.977,10.977,0,0,1-3.028,1.244.94.94,0,0,0-.7.726l-.68,3.318H798.29l-.665-3.314a.941.941,0,0,0-.7-.73,10.964,10.964,0,0,1-3.028-1.244.945.945,0,0,0-1,.022l-2.825,1.869-1.916-1.916,1.87-2.825a.945.945,0,0,0,.022-1,10.963,10.963,0,0,1-1.262-3.027.941.941,0,0,0-.725-.7l-3.321-.682v-2.709l3.315-.666a.942.942,0,0,0,.731-.7,10.673,10.673,0,0,1,1.261-3.025.941.941,0,0,0-.024-1l-1.869-2.825,1.917-1.931,2.823,1.882a.943.943,0,0,0,1.016.019,10.465,10.465,0,0,1,3.018-1.258.938.938,0,0,0,.7-.729Z" transform="translate(1.088 1.406)" fill="#e61853"/><path d="M791.68,2756.946a7.529,7.529,0,1,0,7.519-7.539A7.529,7.529,0,0,0,791.68,2756.946Zm7.519-5.655a5.646,5.646,0,1,1-5.635,5.655A5.661,5.661,0,0,1,799.2,2751.291Z" transform="translate(1.522 1.841)" fill="#e61853"/><path d="M786.889,2730.381a.941.941,0,0,0,.421-.1l6.958-3.479a.942.942,0,0,0,0-1.685l-6.958-3.479a.943.943,0,0,0-1.364.842v6.958a.942.942,0,0,0,.942.941Zm.942-6.375,3.91,1.954-3.91,1.955Z" transform="translate(1.24 0.47)" fill="#e61853"/><path d="M789.417,2735.239a8.867,8.867,0,1,0-8.868-8.866A8.882,8.882,0,0,0,789.417,2735.239Zm0-15.849a6.983,6.983,0,1,1-6.983,6.983A7,7,0,0,1,789.417,2719.39Z" transform="translate(0.974 0.272)" fill="#e61853"/><path d="M802.66,2721.016H817a.942.942,0,1,0,0-1.884H802.66a.942.942,0,1,0,0,1.884Z" transform="translate(2.015 0.352)" fill="#e61853"/><path d="M802.66,2726.74H817a.942.942,0,1,0,0-1.883H802.66a.942.942,0,1,0,0,1.883Z" transform="translate(2.015 0.633)" fill="#e61853"/><path d="M802.66,2732.464H817a.942.942,0,1,0,0-1.884H802.66a.942.942,0,1,0,0,1.884Z" transform="translate(2.015 0.914)" fill="#e61853"/></g></svg>