<svg xmlns="http://www.w3.org/2000/svg" xmlns:xlink="http://www.w3.org/1999/xlink" width="86.799" height="79.972" viewBox="0 0 86.799 79.972">
  <defs>
    <clipPath id="clip-path">
      <rect id="Rectangle_711" data-name="Rectangle 711" width="39.595" height="79.746" transform="translate(0.458 0) rotate(0.329)" fill="none"/>
    </clipPath>
  </defs>
  <g id="Group_2824" data-name="Group 2824" transform="translate(-1147.692 -2529.146)">
    <g id="Component_13_1" data-name="Component 13 – 1" transform="translate(1147.692 2529.146)">
      <path id="Path_3675" data-name="Path 3675" d="M3591.779,5211.984a1.3,1.3,0,0,0,.006-.925l.262-39.009-.5-.395a15.251,15.251,0,0,0-17.838-.868c-3.62,2.391-5.527,6.007-5.255,9.751a10.562,10.562,0,0,0-9.809,5.521c-1.865,3.238-2.117,6.866-.771,9.364a10.7,10.7,0,0,0-3.424,7.788,11.454,11.454,0,0,0,3.206,8.9,10.188,10.188,0,0,0,1.032,10.647,10,10,0,0,0,9.378,3.657c.059.2.124.4.2.607a1.306,1.306,0,0,0,.454.593,12.836,12.836,0,0,0,7.565,7.888,16.3,16.3,0,0,0,6.109,1.244,11.284,11.284,0,0,0,6.93-2.031,5.893,5.893,0,0,0,2.34-5.592Zm-4.05,20.669c-2.292,1.776-6.781,1.964-10.445.441a10.335,10.335,0,0,1-6.572-8.436l-.146-1.174c.415-.986,1.453-1.772,2.969-2.841,3.115-2.2,7.382-5.2,3.025-13.369a1.3,1.3,0,0,0-2.3,1.227c3.274,6.135.846,7.847-2.228,10.014-1.8,1.271-3.926,2.771-4.238,5.311a7.348,7.348,0,0,1-7.051-2.665,7.643,7.643,0,0,1-.682-8.051,1.307,1.307,0,0,0,.217-.264c.6-.97,2.209-1.395,4.65-1.231a9.1,9.1,0,0,1,3.015,1.093,7.983,7.983,0,0,0,1.267.557,1.3,1.3,0,0,0,.712-2.506c-.126-.037-.522-.236-.812-.381a11.009,11.009,0,0,0-4.006-1.362,9.013,9.013,0,0,0-5.75,1.115,9.029,9.029,0,0,1-2.308-6.8c.132-2.915,1.386-5.388,3.275-6.454l1.436-.812-1.122-1.208c-1.426-1.538-1.314-4.759.261-7.5a7.97,7.97,0,0,1,8.614-4.057,11.411,11.411,0,0,0,2.207,2.919c-.2,1.468-2.471,3.7-3.753,4.2a1.3,1.3,0,1,0,.942,2.428,10.79,10.79,0,0,0,5-4.956,12.329,12.329,0,0,0,4.077,1.545,1.29,1.29,0,0,0,.231.022,1.3,1.3,0,0,0,.243-2.583,9.083,9.083,0,0,1-7.427-7.087c0-.008,0-.015-.006-.023a8.3,8.3,0,0,1,4.11-6.807,12.636,12.636,0,0,1,14.291.366l-.053,7.807c-1.111,1.374-3.994,1.658-6.538.614-3.488-1.43-3.381-3.889-3.265-4.607a1.3,1.3,0,1,0-2.572-.415c-.509,3.149,1.349,6,4.848,7.432a11.136,11.136,0,0,0,4.088.814,8.353,8.353,0,0,0,3.417-.656l-.076,11.3a16.8,16.8,0,0,0-3.2-1,8.51,8.51,0,0,0-9.657,4.8l-.1.192c-1.5,2.827-2.541,4.176-4.055,3.717-.916-.279-1.4-1.08-2.12-2.364a10.386,10.386,0,0,0-1.8-2.549,4.152,4.152,0,0,0,.186-.468,3.631,3.631,0,0,0-.831-3.685,1.3,1.3,0,0,0-1.885,1.8,1.013,1.013,0,0,1,.24,1.079,1.452,1.452,0,0,1-.292.507,1.248,1.248,0,0,0-.223.2.8.8,0,0,1-.308.144c-.078.015-.284.051-.594-.337a1.3,1.3,0,0,0-2.037,1.624,3.271,3.271,0,0,0,2.539,1.326,2.96,2.96,0,0,0,.557-.049,3.241,3.241,0,0,0,.839-.276,8.034,8.034,0,0,1,1.341,1.954c.782,1.4,1.669,2.988,3.637,3.586a4.731,4.731,0,0,0,1.356.216c2.987.018,4.688-3.188,5.758-5.2l.1-.191c1.548-2.917,3.689-3.981,6.938-3.451a18,18,0,0,1,3.6,1.26l-.072,10.826a5.052,5.052,0,0,0-2.381.021,8.018,8.018,0,0,0-5.4,5.073c-.676,2.133-.038,4.011.525,5.668.494,1.455.922,2.711.479,3.983a2.382,2.382,0,0,1-2.941,1.733,1.3,1.3,0,0,0-.439,2.568,6.461,6.461,0,0,0,1.05.1,4.875,4.875,0,0,0,4.791-3.541c.737-2.118.094-4.009-.473-5.677-.5-1.462-.926-2.724-.508-4.042a5.488,5.488,0,0,1,3.53-3.329,2.207,2.207,0,0,1,1.751.226l-.115,17.141.013.193A3.305,3.305,0,0,1,3587.729,5232.654Z" transform="translate(-3554.434 -5161.311)"/>
      <g id="Group_2373" data-name="Group 2373" transform="translate(40.042)">
        <g id="Group_2372" data-name="Group 2372" transform="translate(0 0)" clip-path="url(#clip-path)">
          <g id="Group_2371" data-name="Group 2371" transform="translate(-29.949 10.475)">
            <path id="Path_3676" data-name="Path 3676" d="M3628.98,5197.157a31.127,31.127,0,0,1-.079,13.741,2.249,2.249,0,0,1-2.2,1.732l-2.809-.017a26.506,26.506,0,0,1-1.3,3.08l1.976,2a2.239,2.239,0,0,1,.295,2.781,31.255,31.255,0,0,1-9.765,9.659,2.243,2.243,0,0,1-2.781-.33l-1.976-2a26.636,26.636,0,0,1-3.1,1.264l-.017,2.813a2.241,2.241,0,0,1-1.755,2.174,31.11,31.11,0,0,1-13.74-.079,2.24,2.24,0,0,1-1.733-2.194l.016-2.812a26.408,26.408,0,0,1-3.079-1.3l-2,1.973a2.242,2.242,0,0,1-2.781.3,31.113,31.113,0,0,1-9.657-9.773,2.238,2.238,0,0,1,.327-2.774l2-1.973a26.377,26.377,0,0,1-1.264-3.1l-2.812-.017a2.243,2.243,0,0,1-2.174-1.757,31.1,31.1,0,0,1,.079-13.74,2.24,2.24,0,0,1,2.195-1.729l2.809.016a26.325,26.325,0,0,1,1.3-3.082l-1.976-2a2.237,2.237,0,0,1-.294-2.777,31.14,31.14,0,0,1,9.768-9.663,2.243,2.243,0,0,1,2.778.331l1.976,2a26.342,26.342,0,0,1,3.094-1.264l.017-2.812a2.241,2.241,0,0,1,1.757-2.175,31.267,31.267,0,0,1,13.74.079,2.241,2.241,0,0,1,1.73,2.195l-.016,2.812a26.714,26.714,0,0,1,3.082,1.3l2-1.975a2.241,2.241,0,0,1,2.783-.3,31.218,31.218,0,0,1,9.654,9.769,2.237,2.237,0,0,1-.327,2.777l-2,1.976a26.718,26.718,0,0,1,1.264,3.1l2.809.016A2.245,2.245,0,0,1,3628.98,5197.157Zm-3.754,6.848a26.393,26.393,0,0,0-.3-4.131l-2.615-.015a2.238,2.238,0,0,1-2.154-1.671,22.024,22.024,0,0,0-2.133-5.221,2.242,2.242,0,0,1,.374-2.7l1.86-1.84a26.729,26.729,0,0,0-5.805-5.875l-1.864,1.839a2.238,2.238,0,0,1-2.7.343,22.035,22.035,0,0,0-5.2-2.194,2.239,2.239,0,0,1-1.643-2.173l.015-2.615a26.793,26.793,0,0,0-8.263-.048l-.015,2.615a2.24,2.24,0,0,1-1.669,2.154,21.992,21.992,0,0,0-5.221,2.133,2.252,2.252,0,0,1-2.7-.374l-1.839-1.863a26.736,26.736,0,0,0-5.873,5.811l1.839,1.857a2.244,2.244,0,0,1,.34,2.7,22.08,22.08,0,0,0-2.19,5.2,2.243,2.243,0,0,1-2.174,1.646l-2.618-.015a26.881,26.881,0,0,0-.047,8.262l2.618.015a2.243,2.243,0,0,1,2.154,1.668,22.037,22.037,0,0,0,2.131,5.224,2.242,2.242,0,0,1-.371,2.7l-1.861,1.839a26.807,26.807,0,0,0,5.806,5.876l1.861-1.839a2.241,2.241,0,0,1,2.706-.343,21.992,21.992,0,0,0,5.2,2.19,2.238,2.238,0,0,1,1.643,2.173l-.015,2.617a26.976,26.976,0,0,0,8.263.049l.015-2.619a2.239,2.239,0,0,1,1.668-2.153,21.974,21.974,0,0,0,5.224-2.133,2.242,2.242,0,0,1,2.7.373l1.842,1.864a26.731,26.731,0,0,0,5.872-5.811l-1.838-1.861a2.244,2.244,0,0,1-.343-2.7,22,22,0,0,0,2.193-5.2,2.24,2.24,0,0,1,2.173-1.643l2.615.015A26.444,26.444,0,0,0,3625.226,5204Z" transform="translate(-3567.849 -5172.927)"/>
            <path id="Path_3677" data-name="Path 3677" d="M3626.4,5201.349a26.64,26.64,0,0,1-.047,8.262l-2.615-.015a2.241,2.241,0,0,0-2.173,1.643,22,22,0,0,1-2.193,5.2,2.244,2.244,0,0,0,.343,2.7l1.838,1.861a26.736,26.736,0,0,1-5.872,5.811l-1.843-1.863a2.242,2.242,0,0,0-2.7-.374,21.946,21.946,0,0,1-5.224,2.133,2.24,2.24,0,0,0-1.668,2.154l-.015,2.618a26.99,26.99,0,0,1-8.262-.048l.015-2.617a2.238,2.238,0,0,0-1.643-2.173,21.986,21.986,0,0,1-5.2-2.19,2.24,2.24,0,0,0-2.706.343l-1.861,1.838a26.8,26.8,0,0,1-5.806-5.876l1.861-1.839a2.242,2.242,0,0,0,.371-2.7,22.059,22.059,0,0,1-2.131-5.224,2.242,2.242,0,0,0-2.154-1.668l-2.618-.015a26.894,26.894,0,0,1,.048-8.263l2.618.015a2.243,2.243,0,0,0,2.173-1.646,22.086,22.086,0,0,1,2.19-5.2,2.243,2.243,0,0,0-.34-2.7l-1.839-1.857a26.733,26.733,0,0,1,5.873-5.811l1.839,1.863a2.252,2.252,0,0,0,2.7.375,21.975,21.975,0,0,1,5.221-2.134,2.239,2.239,0,0,0,1.668-2.154l.015-2.614a26.8,26.8,0,0,1,8.263.047l-.015,2.615a2.238,2.238,0,0,0,1.643,2.173,22.044,22.044,0,0,1,5.2,2.194,2.237,2.237,0,0,0,2.7-.343l1.864-1.839a26.716,26.716,0,0,1,5.805,5.875l-1.86,1.84a2.242,2.242,0,0,0-.374,2.7,22.018,22.018,0,0,1,2.134,5.221,2.238,2.238,0,0,0,2.154,1.67Zm-9.114,4.078a17.035,17.035,0,1,0-17.132,16.939A17.056,17.056,0,0,0,3617.289,5205.427Z" transform="translate(-3569.326 -5174.402)" fill="#e61853"/>
            <path id="Path_3678" data-name="Path 3678" d="M3603.452,5191.39a17.037,17.037,0,1,1-17.135,16.938A17.055,17.055,0,0,1,3603.452,5191.39ZM3615.9,5208.5a12.553,12.553,0,1,0-12.623,12.482A12.568,12.568,0,0,0,3615.9,5208.5Z" transform="translate(-3572.424 -5177.5)"/>
            <path id="Path_3679" data-name="Path 3679" d="M3604.9,5197.348a12.554,12.554,0,1,1-12.626,12.481A12.569,12.569,0,0,1,3604.9,5197.348Zm7.784,12.6a7.858,7.858,0,1,0-7.9,7.811A7.865,7.865,0,0,0,3612.685,5209.947Z" transform="translate(-3573.899 -5178.976)" fill="#fff"/>
            <path id="Path_3680" data-name="Path 3680" d="M3606.421,5203.592a7.857,7.857,0,1,1-7.9,7.812A7.864,7.864,0,0,1,3606.421,5203.592Zm3.328,7.876a3.375,3.375,0,1,0-3.393,3.354A3.377,3.377,0,0,0,3609.749,5211.468Z" transform="translate(-3575.445 -5180.522)"/>
          </g>
        </g>
      </g>
    </g>
    <g id="Component_13_2" data-name="Component 13 – 2" transform="translate(1147.692 2529.146)">
      <path id="Path_3675-2" data-name="Path 3675" d="M3591.779,5211.984a1.3,1.3,0,0,0,.006-.925l.262-39.009-.5-.395a15.251,15.251,0,0,0-17.838-.868c-3.62,2.391-5.527,6.007-5.255,9.751a10.562,10.562,0,0,0-9.809,5.521c-1.865,3.238-2.117,6.866-.771,9.364a10.7,10.7,0,0,0-3.424,7.788,11.454,11.454,0,0,0,3.206,8.9,10.188,10.188,0,0,0,1.032,10.647,10,10,0,0,0,9.378,3.657c.059.2.124.4.2.607a1.306,1.306,0,0,0,.454.593,12.836,12.836,0,0,0,7.565,7.888,16.3,16.3,0,0,0,6.109,1.244,11.284,11.284,0,0,0,6.93-2.031,5.893,5.893,0,0,0,2.34-5.592Zm-4.05,20.669c-2.292,1.776-6.781,1.964-10.445.441a10.335,10.335,0,0,1-6.572-8.436l-.146-1.174c.415-.986,1.453-1.772,2.969-2.841,3.115-2.2,7.382-5.2,3.025-13.369a1.3,1.3,0,0,0-2.3,1.227c3.274,6.135.846,7.847-2.228,10.014-1.8,1.271-3.926,2.771-4.238,5.311a7.348,7.348,0,0,1-7.051-2.665,7.643,7.643,0,0,1-.682-8.051,1.307,1.307,0,0,0,.217-.264c.6-.97,2.209-1.395,4.65-1.231a9.1,9.1,0,0,1,3.015,1.093,7.983,7.983,0,0,0,1.267.557,1.3,1.3,0,0,0,.712-2.506c-.126-.037-.522-.236-.812-.381a11.009,11.009,0,0,0-4.006-1.362,9.013,9.013,0,0,0-5.75,1.115,9.029,9.029,0,0,1-2.308-6.8c.132-2.915,1.386-5.388,3.275-6.454l1.436-.812-1.122-1.208c-1.426-1.538-1.314-4.759.261-7.5a7.97,7.97,0,0,1,8.614-4.057,11.411,11.411,0,0,0,2.207,2.919c-.2,1.468-2.471,3.7-3.753,4.2a1.3,1.3,0,1,0,.942,2.428,10.79,10.79,0,0,0,5-4.956,12.329,12.329,0,0,0,4.077,1.545,1.29,1.29,0,0,0,.231.022,1.3,1.3,0,0,0,.243-2.583,9.083,9.083,0,0,1-7.427-7.087c0-.008,0-.015-.006-.023a8.3,8.3,0,0,1,4.11-6.807,12.636,12.636,0,0,1,14.291.366l-.053,7.807c-1.111,1.374-3.994,1.658-6.538.614-3.488-1.43-3.381-3.889-3.265-4.607a1.3,1.3,0,1,0-2.572-.415c-.509,3.149,1.349,6,4.848,7.432a11.136,11.136,0,0,0,4.088.814,8.353,8.353,0,0,0,3.417-.656l-.076,11.3a16.8,16.8,0,0,0-3.2-1,8.51,8.51,0,0,0-9.657,4.8l-.1.192c-1.5,2.827-2.541,4.176-4.055,3.717-.916-.279-1.4-1.08-2.12-2.364a10.386,10.386,0,0,0-1.8-2.549,4.152,4.152,0,0,0,.186-.468,3.631,3.631,0,0,0-.831-3.685,1.3,1.3,0,0,0-1.885,1.8,1.013,1.013,0,0,1,.24,1.079,1.452,1.452,0,0,1-.292.507,1.248,1.248,0,0,0-.223.2.8.8,0,0,1-.308.144c-.078.015-.284.051-.594-.337a1.3,1.3,0,0,0-2.037,1.624,3.271,3.271,0,0,0,2.539,1.326,2.96,2.96,0,0,0,.557-.049,3.241,3.241,0,0,0,.839-.276,8.034,8.034,0,0,1,1.341,1.954c.782,1.4,1.669,2.988,3.637,3.586a4.731,4.731,0,0,0,1.356.216c2.987.018,4.688-3.188,5.758-5.2l.1-.191c1.548-2.917,3.689-3.981,6.938-3.451a18,18,0,0,1,3.6,1.26l-.072,10.826a5.052,5.052,0,0,0-2.381.021,8.018,8.018,0,0,0-5.4,5.073c-.676,2.133-.038,4.011.525,5.668.494,1.455.922,2.711.479,3.983a2.382,2.382,0,0,1-2.941,1.733,1.3,1.3,0,0,0-.439,2.568,6.461,6.461,0,0,0,1.05.1,4.875,4.875,0,0,0,4.791-3.541c.737-2.118.094-4.009-.473-5.677-.5-1.462-.926-2.724-.508-4.042a5.488,5.488,0,0,1,3.53-3.329,2.207,2.207,0,0,1,1.751.226l-.115,17.141.013.193A3.305,3.305,0,0,1,3587.729,5232.654Z" transform="translate(-3554.434 -5161.311)"/>
      <g id="Group_2373-2" data-name="Group 2373" transform="translate(40.042)">
        <g id="Group_2372-2" data-name="Group 2372" transform="translate(0 0)" clip-path="url(#clip-path)">
          <g id="Group_2371-2" data-name="Group 2371" transform="translate(-29.949 10.475)">
            <path id="Path_3676-2" data-name="Path 3676" d="M3628.98,5197.157a31.127,31.127,0,0,1-.079,13.741,2.249,2.249,0,0,1-2.2,1.732l-2.809-.017a26.506,26.506,0,0,1-1.3,3.08l1.976,2a2.239,2.239,0,0,1,.295,2.781,31.255,31.255,0,0,1-9.765,9.659,2.243,2.243,0,0,1-2.781-.33l-1.976-2a26.636,26.636,0,0,1-3.1,1.264l-.017,2.813a2.241,2.241,0,0,1-1.755,2.174,31.11,31.11,0,0,1-13.74-.079,2.24,2.24,0,0,1-1.733-2.194l.016-2.812a26.408,26.408,0,0,1-3.079-1.3l-2,1.973a2.242,2.242,0,0,1-2.781.3,31.113,31.113,0,0,1-9.657-9.773,2.238,2.238,0,0,1,.327-2.774l2-1.973a26.377,26.377,0,0,1-1.264-3.1l-2.812-.017a2.243,2.243,0,0,1-2.174-1.757,31.1,31.1,0,0,1,.079-13.74,2.24,2.24,0,0,1,2.195-1.729l2.809.016a26.325,26.325,0,0,1,1.3-3.082l-1.976-2a2.237,2.237,0,0,1-.294-2.777,31.14,31.14,0,0,1,9.768-9.663,2.243,2.243,0,0,1,2.778.331l1.976,2a26.342,26.342,0,0,1,3.094-1.264l.017-2.812a2.241,2.241,0,0,1,1.757-2.175,31.267,31.267,0,0,1,13.74.079,2.241,2.241,0,0,1,1.73,2.195l-.016,2.812a26.714,26.714,0,0,1,3.082,1.3l2-1.975a2.241,2.241,0,0,1,2.783-.3,31.218,31.218,0,0,1,9.654,9.769,2.237,2.237,0,0,1-.327,2.777l-2,1.976a26.718,26.718,0,0,1,1.264,3.1l2.809.016A2.245,2.245,0,0,1,3628.98,5197.157Zm-3.754,6.848a26.393,26.393,0,0,0-.3-4.131l-2.615-.015a2.238,2.238,0,0,1-2.154-1.671,22.024,22.024,0,0,0-2.133-5.221,2.242,2.242,0,0,1,.374-2.7l1.86-1.84a26.729,26.729,0,0,0-5.805-5.875l-1.864,1.839a2.238,2.238,0,0,1-2.7.343,22.035,22.035,0,0,0-5.2-2.194,2.239,2.239,0,0,1-1.643-2.173l.015-2.615a26.793,26.793,0,0,0-8.263-.048l-.015,2.615a2.24,2.24,0,0,1-1.669,2.154,21.992,21.992,0,0,0-5.221,2.133,2.252,2.252,0,0,1-2.7-.374l-1.839-1.863a26.736,26.736,0,0,0-5.873,5.811l1.839,1.857a2.244,2.244,0,0,1,.34,2.7,22.08,22.08,0,0,0-2.19,5.2,2.243,2.243,0,0,1-2.174,1.646l-2.618-.015a26.881,26.881,0,0,0-.047,8.262l2.618.015a2.243,2.243,0,0,1,2.154,1.668,22.037,22.037,0,0,0,2.131,5.224,2.242,2.242,0,0,1-.371,2.7l-1.861,1.839a26.807,26.807,0,0,0,5.806,5.876l1.861-1.839a2.241,2.241,0,0,1,2.706-.343,21.992,21.992,0,0,0,5.2,2.19,2.238,2.238,0,0,1,1.643,2.173l-.015,2.617a26.976,26.976,0,0,0,8.263.049l.015-2.619a2.239,2.239,0,0,1,1.668-2.153,21.974,21.974,0,0,0,5.224-2.133,2.242,2.242,0,0,1,2.7.373l1.842,1.864a26.731,26.731,0,0,0,5.872-5.811l-1.838-1.861a2.244,2.244,0,0,1-.343-2.7,22,22,0,0,0,2.193-5.2,2.24,2.24,0,0,1,2.173-1.643l2.615.015A26.444,26.444,0,0,0,3625.226,5204Z" transform="translate(-3567.849 -5172.927)"/>
            <path id="Path_3677-2" data-name="Path 3677" d="M3626.4,5201.349a26.64,26.64,0,0,1-.047,8.262l-2.615-.015a2.241,2.241,0,0,0-2.173,1.643,22,22,0,0,1-2.193,5.2,2.244,2.244,0,0,0,.343,2.7l1.838,1.861a26.736,26.736,0,0,1-5.872,5.811l-1.843-1.863a2.242,2.242,0,0,0-2.7-.374,21.946,21.946,0,0,1-5.224,2.133,2.24,2.24,0,0,0-1.668,2.154l-.015,2.618a26.99,26.99,0,0,1-8.262-.048l.015-2.617a2.238,2.238,0,0,0-1.643-2.173,21.986,21.986,0,0,1-5.2-2.19,2.24,2.24,0,0,0-2.706.343l-1.861,1.838a26.8,26.8,0,0,1-5.806-5.876l1.861-1.839a2.242,2.242,0,0,0,.371-2.7,22.059,22.059,0,0,1-2.131-5.224,2.242,2.242,0,0,0-2.154-1.668l-2.618-.015a26.894,26.894,0,0,1,.048-8.263l2.618.015a2.243,2.243,0,0,0,2.173-1.646,22.086,22.086,0,0,1,2.19-5.2,2.243,2.243,0,0,0-.34-2.7l-1.839-1.857a26.733,26.733,0,0,1,5.873-5.811l1.839,1.863a2.252,2.252,0,0,0,2.7.375,21.975,21.975,0,0,1,5.221-2.134,2.239,2.239,0,0,0,1.668-2.154l.015-2.614a26.8,26.8,0,0,1,8.263.047l-.015,2.615a2.238,2.238,0,0,0,1.643,2.173,22.044,22.044,0,0,1,5.2,2.194,2.237,2.237,0,0,0,2.7-.343l1.864-1.839a26.716,26.716,0,0,1,5.805,5.875l-1.86,1.84a2.242,2.242,0,0,0-.374,2.7,22.018,22.018,0,0,1,2.134,5.221,2.238,2.238,0,0,0,2.154,1.67Zm-9.114,4.078a17.035,17.035,0,1,0-17.132,16.939A17.056,17.056,0,0,0,3617.289,5205.427Z" transform="translate(-3569.326 -5174.402)" fill="#e61853"/>
            <path id="Path_3678-2" data-name="Path 3678" d="M3603.452,5191.39a17.037,17.037,0,1,1-17.135,16.938A17.055,17.055,0,0,1,3603.452,5191.39ZM3615.9,5208.5a12.553,12.553,0,1,0-12.623,12.482A12.568,12.568,0,0,0,3615.9,5208.5Z" transform="translate(-3572.424 -5177.5)"/>
            <path id="Path_3679-2" data-name="Path 3679" d="M3604.9,5197.348a12.554,12.554,0,1,1-12.626,12.481A12.569,12.569,0,0,1,3604.9,5197.348Zm7.784,12.6a7.858,7.858,0,1,0-7.9,7.811A7.865,7.865,0,0,0,3612.685,5209.947Z" transform="translate(-3573.899 -5178.976)" fill="#fff"/>
            <path id="Path_3680-2" data-name="Path 3680" d="M3606.421,5203.592a7.857,7.857,0,1,1-7.9,7.812A7.864,7.864,0,0,1,3606.421,5203.592Zm3.328,7.876a3.375,3.375,0,1,0-3.393,3.354A3.377,3.377,0,0,0,3609.749,5211.468Z" transform="translate(-3575.445 -5180.522)"/>
          </g>
        </g>
      </g>
    </g>
  </g>
</svg>
