<svg xmlns="http://www.w3.org/2000/svg" width="87.191" height="61.463" viewBox="0 0 87.191 61.463">
  <g id="Group_2830" data-name="Group 2830" transform="translate(-399.648 -2731.666)">
    <g id="Component_9_1" data-name="Component 9 – 1" transform="translate(399.648 2731.666)">
      <g id="Group_2363" data-name="Group 2363">
        <path id="Path_3642" data-name="Path 3642" d="M2634.507,5472.687v4.453a5.1,5.1,0,0,1-5.1,5.1h-64.2a5.1,5.1,0,0,1-5.1-5.1v-4.453a1.231,1.231,0,0,1,1.231-1.23h1.84v-34.581a5.883,5.883,0,0,1,5.876-5.876h56.5a5.883,5.883,0,0,1,5.876,5.876v34.581h1.841A1.231,1.231,0,0,1,2634.507,5472.687Zm-2.46,4.453v-3.222h-69.472v3.222a2.64,2.64,0,0,0,2.636,2.636h64.2A2.64,2.64,0,0,0,2632.047,5477.14Zm-3.071-5.683v-34.581a3.419,3.419,0,0,0-3.416-3.416h-56.5a3.419,3.419,0,0,0-3.415,3.416v34.581Z" transform="translate(-2560.114 -5431)"/>
        <path id="Path_3643" data-name="Path 3643" d="M2632.919,5489.132v3.222a2.64,2.64,0,0,1-2.636,2.636h-64.2a2.64,2.64,0,0,1-2.636-2.636v-3.222Z" transform="translate(-2560.987 -5446.215)" fill="#3ecef0"/>
        <path id="Path_3644" data-name="Path 3644" d="M2630.937,5437.749v34.581h-63.33v-34.581a3.419,3.419,0,0,1,3.415-3.416h56.5A3.419,3.419,0,0,1,2630.937,5437.749Zm-2.643,31.273V5437.64a1.229,1.229,0,0,0-1.23-1.23h-55.582a1.229,1.229,0,0,0-1.23,1.23v31.382a1.231,1.231,0,0,0,1.23,1.23h55.582A1.23,1.23,0,0,0,2628.293,5469.022Z" transform="translate(-2562.075 -5431.873)" fill="#3ecef0"/>
        <path id="Path_3645" data-name="Path 3645" d="M2629.231,5438.376v31.382a1.23,1.23,0,0,1-1.229,1.23h-55.583a1.231,1.231,0,0,1-1.23-1.23v-31.382a1.229,1.229,0,0,1,1.23-1.23H2628A1.229,1.229,0,0,1,2629.231,5438.376Zm-2.46,30.151v-28.921H2573.65v28.921Z" transform="translate(-2563.012 -5432.609)"/>
      </g>
      <g id="Group_2366" data-name="Group 2366" transform="translate(20.803 13.662)">
        <g id="Group_2365" data-name="Group 2365" transform="translate(0 0.155)">
          <path id="Path_3650" data-name="Path 3650" d="M2588.2,5456.706c3.645,3.846,17.226,15.836,32.557.036a1.6,1.6,0,0,0,0-2.231c-15.332-15.8-28.912-3.81-32.557.037A1.569,1.569,0,0,0,2588.2,5456.706Z" transform="translate(-2587.766 -5446.565)"/>
          <path id="Path_3651" data-name="Path 3651" d="M2590.28,5456.044s13.9,17.535,29.72,0C2604.181,5438.511,2590.28,5456.044,2590.28,5456.044Z" transform="translate(-2588.389 -5446.983)" fill="#fff"/>
        </g>
        <circle id="Ellipse_70" data-name="Ellipse 70" cx="7.681" cy="7.681" r="7.681" transform="translate(7.535 14.966) rotate(-76.959)" fill="#01c7e2"/>
        <path id="Path_3652" data-name="Path 3652" d="M2613.277,5457.017a4.838,4.838,0,1,1-4.837-4.838A4.838,4.838,0,0,1,2613.277,5457.017Z" transform="translate(-2591.689 -5447.8)" fill="#110239"/>
        <path id="Path_3653" data-name="Path 3653" d="M2616.346,5453.912a1.968,1.968,0,1,1-1.968-1.968A1.968,1.968,0,0,1,2616.346,5453.912Z" transform="translate(-2593.87 -5447.743)" fill="#fff"/>
      </g>
    </g>
    <g id="Component_9_2" data-name="Component 9 – 2" transform="translate(399.648 2731.666)">
      <g id="Group_2363-2" data-name="Group 2363">
        <path id="Path_3642-2" data-name="Path 3642" d="M2634.507,5472.687v4.453a5.1,5.1,0,0,1-5.1,5.1h-64.2a5.1,5.1,0,0,1-5.1-5.1v-4.453a1.231,1.231,0,0,1,1.231-1.23h1.84v-34.581a5.883,5.883,0,0,1,5.876-5.876h56.5a5.883,5.883,0,0,1,5.876,5.876v34.581h1.841A1.231,1.231,0,0,1,2634.507,5472.687Zm-2.46,4.453v-3.222h-69.472v3.222a2.64,2.64,0,0,0,2.636,2.636h64.2A2.64,2.64,0,0,0,2632.047,5477.14Zm-3.071-5.683v-34.581a3.419,3.419,0,0,0-3.416-3.416h-56.5a3.419,3.419,0,0,0-3.415,3.416v34.581Z" transform="translate(-2560.114 -5431)"/>
        <path id="Path_3643-2" data-name="Path 3643" d="M2632.919,5489.132v3.222a2.64,2.64,0,0,1-2.636,2.636h-64.2a2.64,2.64,0,0,1-2.636-2.636v-3.222Z" transform="translate(-2560.987 -5446.215)" fill="#3ecef0"/>
        <path id="Path_3644-2" data-name="Path 3644" d="M2630.937,5437.749v34.581h-63.33v-34.581a3.419,3.419,0,0,1,3.415-3.416h56.5A3.419,3.419,0,0,1,2630.937,5437.749Zm-2.643,31.273V5437.64a1.229,1.229,0,0,0-1.23-1.23h-55.582a1.229,1.229,0,0,0-1.23,1.23v31.382a1.231,1.231,0,0,0,1.23,1.23h55.582A1.23,1.23,0,0,0,2628.293,5469.022Z" transform="translate(-2562.075 -5431.873)" fill="#3ecef0"/>
        <path id="Path_3645-2" data-name="Path 3645" d="M2629.231,5438.376v31.382a1.23,1.23,0,0,1-1.229,1.23h-55.583a1.231,1.231,0,0,1-1.23-1.23v-31.382a1.229,1.229,0,0,1,1.23-1.23H2628A1.229,1.229,0,0,1,2629.231,5438.376Zm-2.46,30.151v-28.921H2573.65v28.921Z" transform="translate(-2563.012 -5432.609)"/>
      </g>
      <g id="Group_2366-2" data-name="Group 2366" transform="translate(20.803 13.662)">
        <g id="Group_2365-2" data-name="Group 2365" transform="translate(0 0.155)">
          <path id="Path_3650-2" data-name="Path 3650" d="M2588.2,5456.706c3.645,3.846,17.226,15.836,32.557.036a1.6,1.6,0,0,0,0-2.231c-15.332-15.8-28.912-3.81-32.557.037A1.569,1.569,0,0,0,2588.2,5456.706Z" transform="translate(-2587.766 -5446.565)"/>
          <path id="Path_3651-2" data-name="Path 3651" d="M2590.28,5456.044s13.9,17.535,29.72,0C2604.181,5438.511,2590.28,5456.044,2590.28,5456.044Z" transform="translate(-2588.389 -5446.983)" fill="#fff"/>
        </g>
        <circle id="Ellipse_70-2" data-name="Ellipse 70" cx="7.681" cy="7.681" r="7.681" transform="translate(7.535 14.966) rotate(-76.959)" fill="#01c7e2"/>
        <path id="Path_3652-2" data-name="Path 3652" d="M2613.277,5457.017a4.838,4.838,0,1,1-4.837-4.838A4.838,4.838,0,0,1,2613.277,5457.017Z" transform="translate(-2591.689 -5447.8)" fill="#110239"/>
        <path id="Path_3653-2" data-name="Path 3653" d="M2616.346,5453.912a1.968,1.968,0,1,1-1.968-1.968A1.968,1.968,0,0,1,2616.346,5453.912Z" transform="translate(-2593.87 -5447.743)" fill="#fff"/>
      </g>
    </g>
  </g>
</svg>
