<svg xmlns="http://www.w3.org/2000/svg" width="97.057" height="60.194" viewBox="0 0 97.057 60.194">
  <g id="Group_2835" data-name="Group 2835" transform="translate(-389.782 -2919.51)">
    <g id="Component_8_1" data-name="Component 8 – 1" transform="translate(389.782 2919.51)">
      <g id="Group_2387" data-name="Group 2387" transform="translate(0 3.36)">
        <g id="Group_2374" data-name="Group 2374" transform="translate(32.357 43.079)">
          <rect id="Rectangle_712" data-name="Rectangle 712" width="28.764" height="11.054" rx="1.94" transform="translate(1.011 1.011)" fill="#e61853"/>
          <path id="Path_3681" data-name="Path 3681" d="M2621.407,5750.654h-26.151a2.319,2.319,0,0,1-2.318-2.316V5739.9a2.32,2.32,0,0,1,2.318-2.318h26.151a2.319,2.319,0,0,1,2.316,2.318v8.441A2.319,2.319,0,0,1,2621.407,5750.654Zm-26.151-11.054a.3.3,0,0,0-.3.3v8.441a.3.3,0,0,0,.3.3h26.151a.3.3,0,0,0,.3-.3V5739.9a.3.3,0,0,0-.3-.3Z" transform="translate(-2592.938 -5737.58)"/>
        </g>
        <g id="Group_2375" data-name="Group 2375" transform="translate(25.008 10.43)">
          <path id="Path_3682" data-name="Path 3682" d="M2585.884,5693.78a8.358,8.358,0,0,0-2.086,7.926,38.817,38.817,0,0,0,9.374,14.538v7.01h24.47v-6.571l3.331-2.89a6.725,6.725,0,0,0,2.378-5.038V5690.6h-12.937" transform="translate(-2582.518 -5689.593)" fill="#fff"/>
          <path id="Path_3683" data-name="Path 3683" d="M2618.161,5723.773h-26.49v-7.588a39.566,39.566,0,0,1-9.325-14.659l-.019-.069a9.319,9.319,0,0,1,2.384-8.912,1.01,1.01,0,0,1,1.368,1.486,7.3,7.3,0,0,0-1.8,6.9,38.135,38.135,0,0,0,9.1,14.084l.317.3v6.434h22.449v-6.021l3.68-3.192a5.675,5.675,0,0,0,2.029-4.27v-17.145h-11.926a1.011,1.011,0,0,1,0-2.021h13.947v19.161a7.717,7.717,0,0,1-2.771,5.839l-2.937,2.55Z" transform="translate(-2582.027 -5689.104)"/>
        </g>
        <g id="Group_2380" data-name="Group 2380" transform="translate(0)">
          <g id="Group_2376" data-name="Group 2376">
            <path id="Path_3684" data-name="Path 3684" d="M2613.251,5682.815c-.062,0-.12-.01-.187-.01H2570.7a3.81,3.81,0,0,0-.741.071,12.339,12.339,0,0,0-22.776-.334H2558.5v9.829h-11.318a12.339,12.339,0,0,0,22.776-.333,4.008,4.008,0,0,0,.741.072h42.361c.038,0,.07-.007.107-.007a12.339,12.339,0,0,0,22.792.374h-11.32v-9.831h11.32a12.344,12.344,0,0,0-22.712.17Z" transform="translate(-2545.644 -5674.107)" fill="#3ecef0"/>
            <path id="Path_3685" data-name="Path 3685" d="M2623.895,5700.422a13.271,13.271,0,0,1-12.135-7.791h-41.914a13.349,13.349,0,0,1-24.333-.345l-.616-1.414h11.85v-7.808H2544.9l.616-1.414a13.349,13.349,0,0,1,24.335-.342h42.006a13.352,13.352,0,0,1,24.288.447l.616,1.414h-11.852v7.811h11.851l-.615,1.413A13.354,13.354,0,0,1,2623.895,5700.422Zm-11.471-9.819h.687l.252.639a11.328,11.328,0,0,0,20.189,1.756h-10.667v-11.852h10.667a11.331,11.331,0,0,0-20.116,1.568l-.281.672-.838-.061h-42.361a3.007,3.007,0,0,0-.551.052l-.82.158-.309-.774a11.328,11.328,0,0,0-20.176-1.718h10.666v11.849H2548.1a11.329,11.329,0,0,0,20.176-1.718l.307-.77.815.152a3.039,3.039,0,0,0,.557.056h42.361A.434.434,0,0,1,2612.424,5690.6Z" transform="translate(-2544.896 -5673.617)"/>
          </g>
          <g id="Group_2377" data-name="Group 2377" transform="translate(25.154 11.177)">
            <path id="Path_3686" data-name="Path 3686" d="M2622.062,5691.712a1.216,1.216,0,0,1,1.214,1.215h0a1.214,1.214,0,0,1-1.214,1.214h-37.1a1.214,1.214,0,0,1-1.217-1.214h0a1.215,1.215,0,0,1,1.217-1.215Z" transform="translate(-2582.734 -5690.702)" fill="#fff"/>
            <path id="Path_3687" data-name="Path 3687" d="M2621.573,5694.662h-37.1a2.225,2.225,0,1,1,0-4.45h37.1a2.225,2.225,0,0,1,0,4.45Zm-37.1-2.429a.207.207,0,0,0-.208.206.2.2,0,0,0,.208.2h37.1a.2.2,0,0,0,.2-.2.207.207,0,0,0-.2-.206Z" transform="translate(-2582.244 -5690.212)"/>
          </g>
          <g id="Group_2378" data-name="Group 2378" transform="translate(12.468 3.252)">
            <path id="Path_3688" data-name="Path 3688" d="M2573.24,5689.711h-.024a1.011,1.011,0,0,1-.987-1.033,8.023,8.023,0,0,0-7.833-8.212,1.011,1.011,0,1,1,.047-2.021,10.045,10.045,0,0,1,9.807,10.279A1.011,1.011,0,0,1,2573.24,5689.711Z" transform="translate(-2563.408 -5678.445)"/>
          </g>
          <g id="Group_2379" data-name="Group 2379" transform="translate(70.928 12.286)">
            <path id="Path_3689" data-name="Path 3689" d="M2660.043,5703.125h-.025a10.059,10.059,0,0,1-9.806-10.278,1.032,1.032,0,0,1,1.034-.987,1.012,1.012,0,0,1,.987,1.035,8.036,8.036,0,0,0,7.833,8.211,1.01,1.01,0,0,1-.023,2.02Z" transform="translate(-2650.209 -5691.86)"/>
          </g>
        </g>
        <g id="Group_2381" data-name="Group 2381" transform="translate(34.652 1.618)">
          <path id="Path_3690" data-name="Path 3690" d="M2605.269,5688.177a3.71,3.71,0,0,1-3.71,3.711h0a3.711,3.711,0,0,1-3.713-3.711v-6.945a3.712,3.712,0,0,1,3.713-3.712h0a3.711,3.711,0,0,1,3.71,3.712Z" transform="translate(-2596.836 -5676.509)" fill="#fff"/>
          <path id="Path_3691" data-name="Path 3691" d="M2601.068,5692.409a4.728,4.728,0,0,1-4.722-4.722v-6.947a4.722,4.722,0,0,1,9.443,0v6.947A4.727,4.727,0,0,1,2601.068,5692.409Zm0-14.369a2.7,2.7,0,0,0-2.7,2.7v6.947a2.7,2.7,0,0,0,5.4,0v-6.947A2.7,2.7,0,0,0,2601.068,5678.041Z" transform="translate(-2596.346 -5676.02)"/>
        </g>
        <g id="Group_2382" data-name="Group 2382" transform="translate(42.568)">
          <path id="Path_3692" data-name="Path 3692" d="M2617.021,5686.869a3.713,3.713,0,0,1-3.711,3.711h0a3.713,3.713,0,0,1-3.712-3.711v-8.041a3.711,3.711,0,0,1,3.712-3.71h0a3.711,3.711,0,0,1,3.711,3.71Z" transform="translate(-2608.588 -5674.107)" fill="#fff"/>
          <path id="Path_3693" data-name="Path 3693" d="M2612.82,5691.1a4.726,4.726,0,0,1-4.721-4.721v-8.041a4.722,4.722,0,0,1,9.443,0v8.041A4.727,4.727,0,0,1,2612.82,5691.1Zm0-15.463a2.7,2.7,0,0,0-2.7,2.7v8.041a2.7,2.7,0,1,0,5.4,0v-8.041A2.7,2.7,0,0,0,2612.82,5675.638Z" transform="translate(-2608.099 -5673.617)"/>
        </g>
        <g id="Group_2383" data-name="Group 2383" transform="translate(49.99 1.618)">
          <path id="Path_3694" data-name="Path 3694" d="M2628.039,5686.323a3.71,3.71,0,0,1-3.71,3.709h0a3.709,3.709,0,0,1-3.709-3.709v-5.092a3.709,3.709,0,0,1,3.709-3.712h0a3.71,3.71,0,0,1,3.71,3.712Z" transform="translate(-2619.61 -5676.509)" fill="#fff"/>
          <path id="Path_3695" data-name="Path 3695" d="M2623.839,5690.554a4.726,4.726,0,0,1-4.719-4.721v-5.092a4.719,4.719,0,1,1,9.439,0v5.092A4.727,4.727,0,0,1,2623.839,5690.554Zm0-12.513a2.7,2.7,0,0,0-2.7,2.7v5.092a2.7,2.7,0,1,0,5.4,0v-5.092A2.7,2.7,0,0,0,2623.839,5678.041Z" transform="translate(-2619.12 -5676.02)"/>
        </g>
        <g id="Group_2384" data-name="Group 2384" transform="translate(57.409 3.252)">
          <path id="Path_3696" data-name="Path 3696" d="M2639.057,5687.125a3.71,3.71,0,0,1-3.709,3.711h0a3.713,3.713,0,0,1-3.713-3.711v-3.469a3.712,3.712,0,0,1,3.713-3.711h0a3.71,3.71,0,0,1,3.709,3.711Z" transform="translate(-2630.625 -5678.935)" fill="#fff"/>
          <path id="Path_3697" data-name="Path 3697" d="M2634.857,5691.356a4.727,4.727,0,0,1-4.723-4.722v-3.467a4.721,4.721,0,1,1,9.442,0v3.467A4.725,4.725,0,0,1,2634.857,5691.356Zm0-10.89a2.7,2.7,0,0,0-2.7,2.7v3.467a2.7,2.7,0,1,0,5.4,0v-3.467A2.7,2.7,0,0,0,2634.857,5680.466Z" transform="translate(-2630.135 -5678.446)"/>
        </g>
        <g id="Group_2385" data-name="Group 2385" transform="translate(25.079 8.803)">
          <path id="Path_3698" data-name="Path 3698" d="M2600.793,5709.1c1.406-11.17-7.914-13.732-7.914-13.732h10.779c4.887-1.054,4.887-7.184,4.887-7.184h-16.932l-5.694,4.8a9.54,9.54,0,0,0-2.086,7.925,39.064,39.064,0,0,0,9.374,14.539" transform="translate(-2582.624 -5687.177)" fill="#fff"/>
          <path id="Path_3699" data-name="Path 3699" d="M2592.716,5715.975a1.013,1.013,0,0,1-.712-.293,39.765,39.765,0,0,1-9.627-14.958.8.8,0,0,1-.021-.083,10.5,10.5,0,0,1,2.328-8.822.919.919,0,0,1,.094-.089l5.694-4.8a1.009,1.009,0,0,1,.651-.237h16.932a1.01,1.01,0,0,1,1.01,1.01c0,2.4-1.188,7.2-5.684,8.17a1.014,1.014,0,0,1-.214.024h-6.747c2.714,2.036,5.759,5.916,4.886,12.847a1.01,1.01,0,0,1-2.005-.252c1.275-10.132-6.836-12.535-7.182-12.633a1.01,1.01,0,0,1,.27-1.983h10.667c2.886-.685,3.684-3.591,3.906-5.163h-15.469l-5.353,4.515a8.592,8.592,0,0,0-1.819,6.942,38.641,38.641,0,0,0,9.109,14.081,1.011,1.011,0,0,1-.712,1.728Z" transform="translate(-2582.133 -5686.688)"/>
        </g>
        <g id="Group_2386" data-name="Group 2386" transform="translate(54.698 46.635)">
          <path id="Path_3700" data-name="Path 3700" d="M2631.554,5746.332a1.972,1.972,0,1,1-1.973-1.971A1.974,1.974,0,0,1,2631.554,5746.332Z" transform="translate(-2626.6 -5743.35)" fill="#fff"/>
          <path id="Path_3701" data-name="Path 3701" d="M2629.091,5748.824a2.982,2.982,0,1,1,2.984-2.982A2.985,2.985,0,0,1,2629.091,5748.824Zm0-3.943a.961.961,0,1,0,.963.961A.962.962,0,0,0,2629.091,5744.881Z" transform="translate(-2626.11 -5742.859)"/>
        </g>
      </g>
    </g>
    <g id="Component_8_2" data-name="Component 8 – 2" transform="translate(389.782 2919.51)">
      <g id="Group_2387-2" data-name="Group 2387" transform="translate(0 3.36)">
        <g id="Group_2374-2" data-name="Group 2374" transform="translate(32.357 43.079)">
          <rect id="Rectangle_712-2" data-name="Rectangle 712" width="28.764" height="11.054" rx="1.94" transform="translate(1.011 1.011)" fill="#e61853"/>
          <path id="Path_3681-2" data-name="Path 3681" d="M2621.407,5750.654h-26.151a2.319,2.319,0,0,1-2.318-2.316V5739.9a2.32,2.32,0,0,1,2.318-2.318h26.151a2.319,2.319,0,0,1,2.316,2.318v8.441A2.319,2.319,0,0,1,2621.407,5750.654Zm-26.151-11.054a.3.3,0,0,0-.3.3v8.441a.3.3,0,0,0,.3.3h26.151a.3.3,0,0,0,.3-.3V5739.9a.3.3,0,0,0-.3-.3Z" transform="translate(-2592.938 -5737.58)"/>
        </g>
        <g id="Group_2375-2" data-name="Group 2375" transform="translate(25.008 10.43)">
          <path id="Path_3682-2" data-name="Path 3682" d="M2585.884,5693.78a8.358,8.358,0,0,0-2.086,7.926,38.817,38.817,0,0,0,9.374,14.538v7.01h24.47v-6.571l3.331-2.89a6.725,6.725,0,0,0,2.378-5.038V5690.6h-12.937" transform="translate(-2582.518 -5689.593)" fill="#fff"/>
          <path id="Path_3683-2" data-name="Path 3683" d="M2618.161,5723.773h-26.49v-7.588a39.566,39.566,0,0,1-9.325-14.659l-.019-.069a9.319,9.319,0,0,1,2.384-8.912,1.01,1.01,0,0,1,1.368,1.486,7.3,7.3,0,0,0-1.8,6.9,38.135,38.135,0,0,0,9.1,14.084l.317.3v6.434h22.449v-6.021l3.68-3.192a5.675,5.675,0,0,0,2.029-4.27v-17.145h-11.926a1.011,1.011,0,0,1,0-2.021h13.947v19.161a7.717,7.717,0,0,1-2.771,5.839l-2.937,2.55Z" transform="translate(-2582.027 -5689.104)"/>
        </g>
        <g id="Group_2380-2" data-name="Group 2380" transform="translate(0)">
          <g id="Group_2376-2" data-name="Group 2376">
            <path id="Path_3684-2" data-name="Path 3684" d="M2613.251,5682.815c-.062,0-.12-.01-.187-.01H2570.7a3.81,3.81,0,0,0-.741.071,12.339,12.339,0,0,0-22.776-.334H2558.5v9.829h-11.318a12.339,12.339,0,0,0,22.776-.333,4.008,4.008,0,0,0,.741.072h42.361c.038,0,.07-.007.107-.007a12.339,12.339,0,0,0,22.792.374h-11.32v-9.831h11.32a12.344,12.344,0,0,0-22.712.17Z" transform="translate(-2545.644 -5674.107)" fill="#3ecef0"/>
            <path id="Path_3685-2" data-name="Path 3685" d="M2623.895,5700.422a13.271,13.271,0,0,1-12.135-7.791h-41.914a13.349,13.349,0,0,1-24.333-.345l-.616-1.414h11.85v-7.808H2544.9l.616-1.414a13.349,13.349,0,0,1,24.335-.342h42.006a13.352,13.352,0,0,1,24.288.447l.616,1.414h-11.852v7.811h11.851l-.615,1.413A13.354,13.354,0,0,1,2623.895,5700.422Zm-11.471-9.819h.687l.252.639a11.328,11.328,0,0,0,20.189,1.756h-10.667v-11.852h10.667a11.331,11.331,0,0,0-20.116,1.568l-.281.672-.838-.061h-42.361a3.007,3.007,0,0,0-.551.052l-.82.158-.309-.774a11.328,11.328,0,0,0-20.176-1.718h10.666v11.849H2548.1a11.329,11.329,0,0,0,20.176-1.718l.307-.77.815.152a3.039,3.039,0,0,0,.557.056h42.361A.434.434,0,0,1,2612.424,5690.6Z" transform="translate(-2544.896 -5673.617)"/>
          </g>
          <g id="Group_2377-2" data-name="Group 2377" transform="translate(25.154 11.177)">
            <path id="Path_3686-2" data-name="Path 3686" d="M2622.062,5691.712a1.216,1.216,0,0,1,1.214,1.215h0a1.214,1.214,0,0,1-1.214,1.214h-37.1a1.214,1.214,0,0,1-1.217-1.214h0a1.215,1.215,0,0,1,1.217-1.215Z" transform="translate(-2582.734 -5690.702)" fill="#fff"/>
            <path id="Path_3687-2" data-name="Path 3687" d="M2621.573,5694.662h-37.1a2.225,2.225,0,1,1,0-4.45h37.1a2.225,2.225,0,0,1,0,4.45Zm-37.1-2.429a.207.207,0,0,0-.208.206.2.2,0,0,0,.208.2h37.1a.2.2,0,0,0,.2-.2.207.207,0,0,0-.2-.206Z" transform="translate(-2582.244 -5690.212)"/>
          </g>
          <g id="Group_2378-2" data-name="Group 2378" transform="translate(12.468 3.252)">
            <path id="Path_3688-2" data-name="Path 3688" d="M2573.24,5689.711h-.024a1.011,1.011,0,0,1-.987-1.033,8.023,8.023,0,0,0-7.833-8.212,1.011,1.011,0,1,1,.047-2.021,10.045,10.045,0,0,1,9.807,10.279A1.011,1.011,0,0,1,2573.24,5689.711Z" transform="translate(-2563.408 -5678.445)"/>
          </g>
          <g id="Group_2379-2" data-name="Group 2379" transform="translate(70.928 12.286)">
            <path id="Path_3689-2" data-name="Path 3689" d="M2660.043,5703.125h-.025a10.059,10.059,0,0,1-9.806-10.278,1.032,1.032,0,0,1,1.034-.987,1.012,1.012,0,0,1,.987,1.035,8.036,8.036,0,0,0,7.833,8.211,1.01,1.01,0,0,1-.023,2.02Z" transform="translate(-2650.209 -5691.86)"/>
          </g>
        </g>
        <g id="Group_2381-2" data-name="Group 2381" transform="translate(34.652 1.618)">
          <path id="Path_3690-2" data-name="Path 3690" d="M2605.269,5688.177a3.71,3.71,0,0,1-3.71,3.711h0a3.711,3.711,0,0,1-3.713-3.711v-6.945a3.712,3.712,0,0,1,3.713-3.712h0a3.711,3.711,0,0,1,3.71,3.712Z" transform="translate(-2596.836 -5676.509)" fill="#fff"/>
          <path id="Path_3691-2" data-name="Path 3691" d="M2601.068,5692.409a4.728,4.728,0,0,1-4.722-4.722v-6.947a4.722,4.722,0,0,1,9.443,0v6.947A4.727,4.727,0,0,1,2601.068,5692.409Zm0-14.369a2.7,2.7,0,0,0-2.7,2.7v6.947a2.7,2.7,0,0,0,5.4,0v-6.947A2.7,2.7,0,0,0,2601.068,5678.041Z" transform="translate(-2596.346 -5676.02)"/>
        </g>
        <g id="Group_2382-2" data-name="Group 2382" transform="translate(42.568)">
          <path id="Path_3692-2" data-name="Path 3692" d="M2617.021,5686.869a3.713,3.713,0,0,1-3.711,3.711h0a3.713,3.713,0,0,1-3.712-3.711v-8.041a3.711,3.711,0,0,1,3.712-3.71h0a3.711,3.711,0,0,1,3.711,3.71Z" transform="translate(-2608.588 -5674.107)" fill="#fff"/>
          <path id="Path_3693-2" data-name="Path 3693" d="M2612.82,5691.1a4.726,4.726,0,0,1-4.721-4.721v-8.041a4.722,4.722,0,0,1,9.443,0v8.041A4.727,4.727,0,0,1,2612.82,5691.1Zm0-15.463a2.7,2.7,0,0,0-2.7,2.7v8.041a2.7,2.7,0,1,0,5.4,0v-8.041A2.7,2.7,0,0,0,2612.82,5675.638Z" transform="translate(-2608.099 -5673.617)"/>
        </g>
        <g id="Group_2383-2" data-name="Group 2383" transform="translate(49.99 1.618)">
          <path id="Path_3694-2" data-name="Path 3694" d="M2628.039,5686.323a3.71,3.71,0,0,1-3.71,3.709h0a3.709,3.709,0,0,1-3.709-3.709v-5.092a3.709,3.709,0,0,1,3.709-3.712h0a3.71,3.71,0,0,1,3.71,3.712Z" transform="translate(-2619.61 -5676.509)" fill="#fff"/>
          <path id="Path_3695-2" data-name="Path 3695" d="M2623.839,5690.554a4.726,4.726,0,0,1-4.719-4.721v-5.092a4.719,4.719,0,1,1,9.439,0v5.092A4.727,4.727,0,0,1,2623.839,5690.554Zm0-12.513a2.7,2.7,0,0,0-2.7,2.7v5.092a2.7,2.7,0,1,0,5.4,0v-5.092A2.7,2.7,0,0,0,2623.839,5678.041Z" transform="translate(-2619.12 -5676.02)"/>
        </g>
        <g id="Group_2384-2" data-name="Group 2384" transform="translate(57.409 3.252)">
          <path id="Path_3696-2" data-name="Path 3696" d="M2639.057,5687.125a3.71,3.71,0,0,1-3.709,3.711h0a3.713,3.713,0,0,1-3.713-3.711v-3.469a3.712,3.712,0,0,1,3.713-3.711h0a3.71,3.71,0,0,1,3.709,3.711Z" transform="translate(-2630.625 -5678.935)" fill="#fff"/>
          <path id="Path_3697-2" data-name="Path 3697" d="M2634.857,5691.356a4.727,4.727,0,0,1-4.723-4.722v-3.467a4.721,4.721,0,1,1,9.442,0v3.467A4.725,4.725,0,0,1,2634.857,5691.356Zm0-10.89a2.7,2.7,0,0,0-2.7,2.7v3.467a2.7,2.7,0,1,0,5.4,0v-3.467A2.7,2.7,0,0,0,2634.857,5680.466Z" transform="translate(-2630.135 -5678.446)"/>
        </g>
        <g id="Group_2385-2" data-name="Group 2385" transform="translate(25.079 8.803)">
          <path id="Path_3698-2" data-name="Path 3698" d="M2600.793,5709.1c1.406-11.17-7.914-13.732-7.914-13.732h10.779c4.887-1.054,4.887-7.184,4.887-7.184h-16.932l-5.694,4.8a9.54,9.54,0,0,0-2.086,7.925,39.064,39.064,0,0,0,9.374,14.539" transform="translate(-2582.624 -5687.177)" fill="#fff"/>
          <path id="Path_3699-2" data-name="Path 3699" d="M2592.716,5715.975a1.013,1.013,0,0,1-.712-.293,39.765,39.765,0,0,1-9.627-14.958.8.8,0,0,1-.021-.083,10.5,10.5,0,0,1,2.328-8.822.919.919,0,0,1,.094-.089l5.694-4.8a1.009,1.009,0,0,1,.651-.237h16.932a1.01,1.01,0,0,1,1.01,1.01c0,2.4-1.188,7.2-5.684,8.17a1.014,1.014,0,0,1-.214.024h-6.747c2.714,2.036,5.759,5.916,4.886,12.847a1.01,1.01,0,0,1-2.005-.252c1.275-10.132-6.836-12.535-7.182-12.633a1.01,1.01,0,0,1,.27-1.983h10.667c2.886-.685,3.684-3.591,3.906-5.163h-15.469l-5.353,4.515a8.592,8.592,0,0,0-1.819,6.942,38.641,38.641,0,0,0,9.109,14.081,1.011,1.011,0,0,1-.712,1.728Z" transform="translate(-2582.133 -5686.688)"/>
        </g>
        <g id="Group_2386-2" data-name="Group 2386" transform="translate(54.698 46.635)">
          <path id="Path_3700-2" data-name="Path 3700" d="M2631.554,5746.332a1.972,1.972,0,1,1-1.973-1.971A1.974,1.974,0,0,1,2631.554,5746.332Z" transform="translate(-2626.6 -5743.35)" fill="#fff"/>
          <path id="Path_3701-2" data-name="Path 3701" d="M2629.091,5748.824a2.982,2.982,0,1,1,2.984-2.982A2.985,2.985,0,0,1,2629.091,5748.824Zm0-3.943a.961.961,0,1,0,.963.961A.962.962,0,0,0,2629.091,5744.881Z" transform="translate(-2626.11 -5742.859)"/>
        </g>
      </g>
    </g>
  </g>
</svg>
