<svg xmlns="http://www.w3.org/2000/svg" width="75.841" height="72.222" viewBox="0 0 75.841 72.222">
  <g id="Group_2822" data-name="Group 2822" transform="translate(-908.128 -2349.567)">
    <g id="Group_2350" data-name="Group 2350" transform="translate(908.128 2349.567)">
      <path id="Path_3551" data-name="Path 3551" d="M3293.734,4925.936v60.041a6.1,6.1,0,0,1-6.093,6.091H3253.36a6.1,6.1,0,0,1-6.09-6.091v-60.041a6.1,6.1,0,0,1,6.09-6.091h34.281A6.1,6.1,0,0,1,3293.734,4925.936Zm-2.446,60.041v-5h-41.573v5a3.649,3.649,0,0,0,3.645,3.646h34.281A3.651,3.651,0,0,0,3291.288,4985.976Zm0-7.44v-45.159h-41.573v45.159Zm0-47.605v-4.995a3.651,3.651,0,0,0-3.647-3.646H3253.36a3.649,3.649,0,0,0-3.645,3.646v4.995Z" transform="translate(-3247.27 -4919.845)"/>
      <path id="Path_3552" data-name="Path 3552" d="M3291.934,4997.121v4.995a3.65,3.65,0,0,1-3.647,3.646h-34.281a3.648,3.648,0,0,1-3.645-3.646v-4.995Zm-17.119,4.255a3.668,3.668,0,1,0-3.668,3.668A3.673,3.673,0,0,0,3274.815,5001.376Z" transform="translate(-3247.916 -4935.985)" fill="#3ecef0"/>
      <path id="Path_3553" data-name="Path 3553" d="M3291.934,4926.581v5h-41.573v-5a3.649,3.649,0,0,1,3.645-3.646h34.281A3.651,3.651,0,0,1,3291.934,4926.581Zm-14.347.675a1.224,1.224,0,0,0-1.223-1.223H3265.93a1.223,1.223,0,0,0,0,2.446h10.434A1.224,1.224,0,0,0,3277.587,4927.255Z" transform="translate(-3247.916 -4920.49)" fill="#3ecef0"/>
      <path id="Path_3554" data-name="Path 3554" d="M3297.351,4943.325v36.191a1.223,1.223,0,0,1-1.222,1.223h-5.136a1.223,1.223,0,0,1-1.222-1.223v-36.191a1.222,1.222,0,0,1,1.222-1.222h5.136A1.222,1.222,0,0,1,3297.351,4943.325Zm-2.445,34.969v-33.746h-2.69v33.746Z" transform="translate(-3256.147 -4924.494)"/>
      <rect id="Rectangle_696" data-name="Rectangle 696" width="2.69" height="33.746" transform="translate(36.069 20.054)" fill="#e61853"/>
      <path id="Path_3555" data-name="Path 3555" d="M3285.4,4953.937v27.795a1.223,1.223,0,0,1-1.223,1.224h-5.134a1.222,1.222,0,0,1-1.222-1.224v-27.795a1.222,1.222,0,0,1,1.222-1.222h5.134A1.222,1.222,0,0,1,3285.4,4953.937Zm-2.446,26.573v-25.35h-2.688v25.35Z" transform="translate(-3253.651 -4926.71)"/>
      <path id="Path_3556" data-name="Path 3556" d="M3280.152,4926.85a1.223,1.223,0,0,1,0,2.446h-10.434a1.223,1.223,0,0,1,0-2.446Z" transform="translate(-3251.704 -4921.308)"/>
      <rect id="Rectangle_697" data-name="Rectangle 697" width="2.688" height="25.35" transform="translate(26.614 28.45)" fill="#e61853"/>
      <path id="Path_3557" data-name="Path 3557" d="M3275.667,4997.863a3.668,3.668,0,1,1-3.668,3.669A3.673,3.673,0,0,1,3275.667,4997.863Zm1.222,3.669a1.223,1.223,0,1,0-1.222,1.222A1.225,1.225,0,0,0,3276.889,5001.532Z" transform="translate(-3252.435 -4936.14)"/>
      <path id="Path_3558" data-name="Path 3558" d="M3276.313,5000.954a1.222,1.222,0,1,1-1.223,1.222A1.224,1.224,0,0,1,3276.313,5000.954Z" transform="translate(-3253.081 -4936.786)" fill="#3ecef0"/>
      <path id="Path_3559" data-name="Path 3559" d="M3273.449,4964.551v19.4a1.224,1.224,0,0,1-1.223,1.223h-5.136a1.223,1.223,0,0,1-1.222-1.223v-19.4a1.223,1.223,0,0,1,1.222-1.223h5.136A1.223,1.223,0,0,1,3273.449,4964.551ZM3271,4982.727v-16.954h-2.689v16.954Z" transform="translate(-3251.155 -4928.927)"/>
      <rect id="Rectangle_698" data-name="Rectangle 698" width="2.69" height="16.954" transform="translate(17.158 36.847)" fill="#e61853"/>
      <path id="Path_3560" data-name="Path 3560" d="M3261.5,4975.163v11a1.224,1.224,0,0,1-1.223,1.223h-5.135a1.224,1.224,0,0,1-1.223-1.223v-11a1.222,1.222,0,0,1,1.223-1.223h5.135A1.223,1.223,0,0,1,3261.5,4975.163Zm-2.446,9.78v-8.558h-2.691v8.558Z" transform="translate(-3248.658 -4931.143)"/>
      <rect id="Rectangle_699" data-name="Rectangle 699" width="2.69" height="8.558" transform="translate(7.703 45.243)" fill="#e61853"/>
    </g>
    <g id="Group_2816" data-name="Group 2816" transform="translate(908.128 2349.567)">
      <path id="Path_3551-2" data-name="Path 3551" d="M3293.734,4925.936v60.041a6.1,6.1,0,0,1-6.093,6.091H3253.36a6.1,6.1,0,0,1-6.09-6.091v-60.041a6.1,6.1,0,0,1,6.09-6.091h34.281A6.1,6.1,0,0,1,3293.734,4925.936Zm-2.446,60.041v-5h-41.573v5a3.649,3.649,0,0,0,3.645,3.646h34.281A3.651,3.651,0,0,0,3291.288,4985.976Zm0-7.44v-45.159h-41.573v45.159Zm0-47.605v-4.995a3.651,3.651,0,0,0-3.647-3.646H3253.36a3.649,3.649,0,0,0-3.645,3.646v4.995Z" transform="translate(-3247.27 -4919.845)"/>
      <path id="Path_3552-2" data-name="Path 3552" d="M3291.934,4997.121v4.995a3.65,3.65,0,0,1-3.647,3.646h-34.281a3.648,3.648,0,0,1-3.645-3.646v-4.995Zm-17.119,4.255a3.668,3.668,0,1,0-3.668,3.668A3.673,3.673,0,0,0,3274.815,5001.376Z" transform="translate(-3247.916 -4935.985)" fill="#3ecef0"/>
      <path id="Path_3553-2" data-name="Path 3553" d="M3291.934,4926.581v5h-41.573v-5a3.649,3.649,0,0,1,3.645-3.646h34.281A3.651,3.651,0,0,1,3291.934,4926.581Zm-14.347.675a1.224,1.224,0,0,0-1.223-1.223H3265.93a1.223,1.223,0,0,0,0,2.446h10.434A1.224,1.224,0,0,0,3277.587,4927.255Z" transform="translate(-3247.916 -4920.49)" fill="#3ecef0"/>
      <path id="Path_3554-2" data-name="Path 3554" d="M3297.351,4943.325v36.191a1.223,1.223,0,0,1-1.222,1.223h-5.136a1.223,1.223,0,0,1-1.222-1.223v-36.191a1.222,1.222,0,0,1,1.222-1.222h5.136A1.222,1.222,0,0,1,3297.351,4943.325Zm-2.445,34.969v-33.746h-2.69v33.746Z" transform="translate(-3256.147 -4924.494)"/>
      <rect id="Rectangle_696-2" data-name="Rectangle 696" width="2.69" height="33.746" transform="translate(36.069 20.054)" fill="#e61853"/>
      <path id="Path_3555-2" data-name="Path 3555" d="M3285.4,4953.937v27.795a1.223,1.223,0,0,1-1.223,1.224h-5.134a1.222,1.222,0,0,1-1.222-1.224v-27.795a1.222,1.222,0,0,1,1.222-1.222h5.134A1.222,1.222,0,0,1,3285.4,4953.937Zm-2.446,26.573v-25.35h-2.688v25.35Z" transform="translate(-3253.651 -4926.71)"/>
      <path id="Path_3556-2" data-name="Path 3556" d="M3280.152,4926.85a1.223,1.223,0,0,1,0,2.446h-10.434a1.223,1.223,0,0,1,0-2.446Z" transform="translate(-3251.704 -4921.308)"/>
      <rect id="Rectangle_697-2" data-name="Rectangle 697" width="2.688" height="25.35" transform="translate(26.614 28.45)" fill="#e61853"/>
      <path id="Path_3557-2" data-name="Path 3557" d="M3275.667,4997.863a3.668,3.668,0,1,1-3.668,3.669A3.673,3.673,0,0,1,3275.667,4997.863Zm1.222,3.669a1.223,1.223,0,1,0-1.222,1.222A1.225,1.225,0,0,0,3276.889,5001.532Z" transform="translate(-3252.435 -4936.14)"/>
      <path id="Path_3558-2" data-name="Path 3558" d="M3276.313,5000.954a1.222,1.222,0,1,1-1.223,1.222A1.224,1.224,0,0,1,3276.313,5000.954Z" transform="translate(-3253.081 -4936.786)" fill="#3ecef0"/>
      <path id="Path_3559-2" data-name="Path 3559" d="M3273.449,4964.551v19.4a1.224,1.224,0,0,1-1.223,1.223h-5.136a1.223,1.223,0,0,1-1.222-1.223v-19.4a1.223,1.223,0,0,1,1.222-1.223h5.136A1.223,1.223,0,0,1,3273.449,4964.551ZM3271,4982.727v-16.954h-2.689v16.954Z" transform="translate(-3251.155 -4928.927)"/>
      <rect id="Rectangle_698-2" data-name="Rectangle 698" width="2.69" height="16.954" transform="translate(17.158 36.847)" fill="#e61853"/>
      <path id="Path_3560-2" data-name="Path 3560" d="M3261.5,4975.163v11a1.224,1.224,0,0,1-1.223,1.223h-5.135a1.224,1.224,0,0,1-1.223-1.223v-11a1.222,1.222,0,0,1,1.223-1.223h5.135A1.223,1.223,0,0,1,3261.5,4975.163Zm-2.446,9.78v-8.558h-2.691v8.558Z" transform="translate(-3248.658 -4931.143)"/>
      <rect id="Rectangle_699-2" data-name="Rectangle 699" width="2.69" height="8.558" transform="translate(7.703 45.243)" fill="#e61853"/>
    </g>
  </g>
</svg>
