<svg xmlns="http://www.w3.org/2000/svg" width="67.362" height="73.767" viewBox="0 0 67.362 73.767">
  <g id="Group_2833" data-name="Group 2833" transform="translate(-1167.129 -2719.362)">
    <g id="Component_12_1" data-name="Component 12 – 1" transform="translate(1167.129 2719.362)">
      <g id="Group_2353" data-name="Group 2353">
        <path id="Path_3569" data-name="Path 3569" d="M3624.454,5417.636v57.1a5.8,5.8,0,0,1-5.793,5.792h-32.6a5.8,5.8,0,0,1-5.791-5.792v-57.1a5.8,5.8,0,0,1,5.791-5.792h32.6A5.8,5.8,0,0,1,3624.454,5417.636Zm-2.325,57.1v-4.75H3582.6v4.75a3.47,3.47,0,0,0,3.466,3.466h32.6A3.472,3.472,0,0,0,3622.128,5474.731Zm0-7.076v-42.943H3582.6v42.943Zm0-45.269v-4.75a3.471,3.471,0,0,0-3.468-3.466h-32.6a3.47,3.47,0,0,0-3.466,3.466v4.75Z" transform="translate(-3580.27 -5411.844)"/>
        <path id="Path_3570" data-name="Path 3570" d="M3622.894,5489.121v4.75a3.471,3.471,0,0,1-3.468,3.467h-32.6a3.47,3.47,0,0,1-3.466-3.467v-4.75Zm-16.278,4.047a3.488,3.488,0,1,0-3.488,3.488A3.492,3.492,0,0,0,3606.615,5493.168Z" transform="translate(-3581.036 -5430.985)" fill="#3ecef0"/>
        <path id="Path_3571" data-name="Path 3571" d="M3622.894,5418.4v4.75h-39.532v-4.75a3.47,3.47,0,0,1,3.466-3.466h32.6A3.471,3.471,0,0,1,3622.894,5418.4Zm-13.643.642a1.163,1.163,0,0,0-1.163-1.163h-9.922a1.163,1.163,0,0,0,0,2.326h9.922A1.164,1.164,0,0,0,3609.251,5419.043Z" transform="translate(-3581.036 -5412.61)" fill="#3ecef0"/>
        <path id="Path_3572" data-name="Path 3572" d="M3612.58,5418.85a1.163,1.163,0,0,1,0,2.326h-9.922a1.163,1.163,0,0,1,0-2.326Z" transform="translate(-3585.527 -5413.58)"/>
        <path id="Path_3573" data-name="Path 3573" d="M3608.487,5489.863a3.488,3.488,0,1,1-3.489,3.489A3.492,3.492,0,0,1,3608.487,5489.863Zm1.162,3.489a1.163,1.163,0,1,0-1.162,1.162A1.165,1.165,0,0,0,3609.649,5493.352Z" transform="translate(-3586.395 -5431.168)"/>
        <path id="Path_3574" data-name="Path 3574" d="M3609.252,5492.954a1.163,1.163,0,1,1-1.163,1.163A1.165,1.165,0,0,1,3609.252,5492.954Z" transform="translate(-3587.16 -5431.934)" fill="#3ecef0"/>
      </g>
      <g id="Group_2358" data-name="Group 2358" transform="translate(8.432 17.421)">
        <path id="Path_3624" data-name="Path 3624" d="M3615.381,5439.1a14.02,14.02,0,0,1,0,19.807l-8.847,8.849a1.5,1.5,0,0,1-2.113,0l-8.847-8.849a14.006,14.006,0,1,1,19.808-19.807Zm-2.111,17.7a11.019,11.019,0,1,0-15.583,0l7.792,7.792Z" transform="translate(-3591.478 -5435)"/>
        <path id="Path_3625" data-name="Path 3625" d="M3614.253,5442.2a11.034,11.034,0,0,1,0,15.583l-7.792,7.792-7.792-7.792a11.019,11.019,0,1,1,15.583-15.583Zm-.665,7.748a7.128,7.128,0,1,0-7.127,7.127A7.136,7.136,0,0,0,3613.588,5449.946Z" transform="translate(-3592.461 -5435.983)" fill="#e61853"/>
      </g>
      <path id="Path_3626" data-name="Path 3626" d="M3607.74,5444.084a7.128,7.128,0,1,1-7.129,7.129A7.136,7.136,0,0,1,3607.74,5444.084Zm4.14,7.129a4.141,4.141,0,1,0-4.14,4.139A4.146,4.146,0,0,0,3611.88,5451.213Z" transform="translate(-3585.308 -5419.829)"/>
    </g>
    <g id="Component_12_2" data-name="Component 12 – 2" transform="translate(1167.129 2719.362)">
      <g id="Group_2353-2" data-name="Group 2353">
        <path id="Path_3569-2" data-name="Path 3569" d="M3624.454,5417.636v57.1a5.8,5.8,0,0,1-5.793,5.792h-32.6a5.8,5.8,0,0,1-5.791-5.792v-57.1a5.8,5.8,0,0,1,5.791-5.792h32.6A5.8,5.8,0,0,1,3624.454,5417.636Zm-2.325,57.1v-4.75H3582.6v4.75a3.47,3.47,0,0,0,3.466,3.466h32.6A3.472,3.472,0,0,0,3622.128,5474.731Zm0-7.076v-42.943H3582.6v42.943Zm0-45.269v-4.75a3.471,3.471,0,0,0-3.468-3.466h-32.6a3.47,3.47,0,0,0-3.466,3.466v4.75Z" transform="translate(-3580.27 -5411.844)"/>
        <path id="Path_3570-2" data-name="Path 3570" d="M3622.894,5489.121v4.75a3.471,3.471,0,0,1-3.468,3.467h-32.6a3.47,3.47,0,0,1-3.466-3.467v-4.75Zm-16.278,4.047a3.488,3.488,0,1,0-3.488,3.488A3.492,3.492,0,0,0,3606.615,5493.168Z" transform="translate(-3581.036 -5430.985)" fill="#3ecef0"/>
        <path id="Path_3571-2" data-name="Path 3571" d="M3622.894,5418.4v4.75h-39.532v-4.75a3.47,3.47,0,0,1,3.466-3.466h32.6A3.471,3.471,0,0,1,3622.894,5418.4Zm-13.643.642a1.163,1.163,0,0,0-1.163-1.163h-9.922a1.163,1.163,0,0,0,0,2.326h9.922A1.164,1.164,0,0,0,3609.251,5419.043Z" transform="translate(-3581.036 -5412.61)" fill="#3ecef0"/>
        <path id="Path_3572-2" data-name="Path 3572" d="M3612.58,5418.85a1.163,1.163,0,0,1,0,2.326h-9.922a1.163,1.163,0,0,1,0-2.326Z" transform="translate(-3585.527 -5413.58)"/>
        <path id="Path_3573-2" data-name="Path 3573" d="M3608.487,5489.863a3.488,3.488,0,1,1-3.489,3.489A3.492,3.492,0,0,1,3608.487,5489.863Zm1.162,3.489a1.163,1.163,0,1,0-1.162,1.162A1.165,1.165,0,0,0,3609.649,5493.352Z" transform="translate(-3586.395 -5431.168)"/>
        <path id="Path_3574-2" data-name="Path 3574" d="M3609.252,5492.954a1.163,1.163,0,1,1-1.163,1.163A1.165,1.165,0,0,1,3609.252,5492.954Z" transform="translate(-3587.16 -5431.934)" fill="#3ecef0"/>
      </g>
      <g id="Group_2358-2" data-name="Group 2358" transform="translate(8.432 17.421)">
        <path id="Path_3624-2" data-name="Path 3624" d="M3615.381,5439.1a14.02,14.02,0,0,1,0,19.807l-8.847,8.849a1.5,1.5,0,0,1-2.113,0l-8.847-8.849a14.006,14.006,0,1,1,19.808-19.807Zm-2.111,17.7a11.019,11.019,0,1,0-15.583,0l7.792,7.792Z" transform="translate(-3591.478 -5435)"/>
        <path id="Path_3625-2" data-name="Path 3625" d="M3614.253,5442.2a11.034,11.034,0,0,1,0,15.583l-7.792,7.792-7.792-7.792a11.019,11.019,0,1,1,15.583-15.583Zm-.665,7.748a7.128,7.128,0,1,0-7.127,7.127A7.136,7.136,0,0,0,3613.588,5449.946Z" transform="translate(-3592.461 -5435.983)" fill="#e61853"/>
      </g>
      <path id="Path_3626-2" data-name="Path 3626" d="M3607.74,5444.084a7.128,7.128,0,1,1-7.129,7.129A7.136,7.136,0,0,1,3607.74,5444.084Zm4.14,7.129a4.141,4.141,0,1,0-4.14,4.139A4.146,4.146,0,0,0,3611.88,5451.213Z" transform="translate(-3585.308 -5419.829)"/>
    </g>
  </g>
</svg>
