<svg xmlns="http://www.w3.org/2000/svg" width="80.533" height="67.131" viewBox="0 0 80.533 67.131">
  <g id="Group_2826" data-name="Group 2826" transform="translate(-652.915 -2539.896)">
    <g id="Component_15_1" data-name="Component 15 – 1" transform="translate(652.915 2539.896)">
      <g id="Group_2347" data-name="Group 2347">
        <path id="Path_3530" data-name="Path 3530" d="M2946.329,5192.81a25.249,25.249,0,0,1,0,11.149,1.823,1.823,0,0,1-1.775,1.416h-2.279a21.646,21.646,0,0,1-1.04,2.5l1.612,1.612a1.816,1.816,0,0,1,.253,2.255,25.36,25.36,0,0,1-7.878,7.882,1.821,1.821,0,0,1-2.258-.254l-1.612-1.612a21.479,21.479,0,0,1-2.507,1.04v2.282a1.818,1.818,0,0,1-1.413,1.772,25.264,25.264,0,0,1-11.148,0,1.818,1.818,0,0,1-1.416-1.772V5218.8a21.285,21.285,0,0,1-2.5-1.038l-1.613,1.61a1.819,1.819,0,0,1-2.255.254,25.244,25.244,0,0,1-7.879-7.884,1.815,1.815,0,0,1,.252-2.252l1.613-1.61a21.262,21.262,0,0,1-1.041-2.506h-2.281a1.819,1.819,0,0,1-1.772-1.416,25.22,25.22,0,0,1,0-11.149,1.817,1.817,0,0,1,1.772-1.414h2.279a21.3,21.3,0,0,1,1.043-2.506l-1.613-1.612a1.815,1.815,0,0,1-.252-2.252,25.265,25.265,0,0,1,7.879-7.884,1.819,1.819,0,0,1,2.255.254l1.613,1.612a21.464,21.464,0,0,1,2.5-1.04v-2.282a1.818,1.818,0,0,1,1.416-1.772,25.366,25.366,0,0,1,11.148,0,1.819,1.819,0,0,1,1.413,1.772v2.282a21.479,21.479,0,0,1,2.507,1.04l1.612-1.612a1.819,1.819,0,0,1,2.258-.251,25.326,25.326,0,0,1,7.878,7.879,1.816,1.816,0,0,1-.253,2.255l-1.612,1.612a21.462,21.462,0,0,1,1.04,2.506h2.279A1.821,1.821,0,0,1,2946.329,5192.81Zm-3.014,5.575a21.41,21.41,0,0,0-.262-3.351h-2.121a1.818,1.818,0,0,1-1.755-1.346,17.875,17.875,0,0,0-1.755-4.226,1.821,1.821,0,0,1,.291-2.192l1.5-1.5a21.668,21.668,0,0,0-4.737-4.74l-1.5,1.5a1.817,1.817,0,0,1-2.192.292,17.853,17.853,0,0,0-4.229-1.756,1.816,1.816,0,0,1-1.343-1.755v-2.122a21.706,21.706,0,0,0-6.7,0v2.122a1.816,1.816,0,0,1-1.344,1.755,17.836,17.836,0,0,0-4.226,1.756,1.827,1.827,0,0,1-2.194-.292l-1.5-1.5a21.692,21.692,0,0,0-4.738,4.742l1.5,1.5a1.82,1.82,0,0,1,.289,2.192,17.917,17.917,0,0,0-1.753,4.229,1.819,1.819,0,0,1-1.755,1.346h-2.125a21.771,21.771,0,0,0,0,6.7h2.125a1.819,1.819,0,0,1,1.755,1.344,17.888,17.888,0,0,0,1.753,4.228,1.819,1.819,0,0,1-.289,2.192l-1.5,1.5a21.747,21.747,0,0,0,4.738,4.74l1.5-1.5a1.819,1.819,0,0,1,2.194-.291,17.846,17.846,0,0,0,4.226,1.752,1.816,1.816,0,0,1,1.344,1.755v2.124a21.857,21.857,0,0,0,6.7,0v-2.124a1.815,1.815,0,0,1,1.343-1.755,17.732,17.732,0,0,0,4.229-1.756,1.822,1.822,0,0,1,2.192.291l1.5,1.5a21.69,21.69,0,0,0,4.737-4.742l-1.5-1.5a1.821,1.821,0,0,1-.291-2.192,17.889,17.889,0,0,0,1.755-4.226,1.818,1.818,0,0,1,1.755-1.344h2.121A21.463,21.463,0,0,0,2943.315,5198.384Z" transform="translate(-2896.764 -5173.293)"/>
        <path id="Path_3531" data-name="Path 3531" d="M2944.25,5196.23a21.571,21.571,0,0,1,0,6.7h-2.122a1.818,1.818,0,0,0-1.755,1.344,17.9,17.9,0,0,1-1.755,4.226,1.82,1.82,0,0,0,.291,2.192l1.5,1.5a21.684,21.684,0,0,1-4.737,4.742l-1.5-1.5a1.821,1.821,0,0,0-2.192-.291,17.747,17.747,0,0,1-4.229,1.756,1.815,1.815,0,0,0-1.343,1.755v2.124a21.888,21.888,0,0,1-6.7,0v-2.124a1.816,1.816,0,0,0-1.344-1.755,17.866,17.866,0,0,1-4.226-1.752,1.818,1.818,0,0,0-2.194.291l-1.5,1.5a21.747,21.747,0,0,1-4.738-4.74l1.5-1.5a1.82,1.82,0,0,0,.289-2.192,17.867,17.867,0,0,1-1.753-4.228,1.819,1.819,0,0,0-1.755-1.344h-2.125a21.771,21.771,0,0,1,0-6.7h2.125a1.818,1.818,0,0,0,1.755-1.346,17.9,17.9,0,0,1,1.753-4.228,1.82,1.82,0,0,0-.289-2.192l-1.5-1.5a21.681,21.681,0,0,1,4.738-4.742l1.5,1.5a1.828,1.828,0,0,0,2.194.292,17.816,17.816,0,0,1,4.226-1.756,1.817,1.817,0,0,0,1.344-1.755v-2.122a21.706,21.706,0,0,1,6.7,0v2.122a1.816,1.816,0,0,0,1.343,1.755,17.828,17.828,0,0,1,4.229,1.756,1.817,1.817,0,0,0,2.192-.292l1.5-1.5a21.663,21.663,0,0,1,4.737,4.74l-1.5,1.5a1.821,1.821,0,0,0-.291,2.192,17.883,17.883,0,0,1,1.755,4.226,1.816,1.816,0,0,0,1.755,1.346Zm-7.375,3.351a13.821,13.821,0,1,0-13.82,13.822A13.838,13.838,0,0,0,2936.875,5199.581Z" transform="translate(-2897.961 -5174.49)" fill="#e61853"/>
        <path id="Path_3532" data-name="Path 3532" d="M2925.57,5188.271a13.822,13.822,0,1,1-13.823,13.823A13.838,13.838,0,0,1,2925.57,5188.271Zm10.183,13.823a10.185,10.185,0,1,0-10.183,10.185A10.2,10.2,0,0,0,2935.753,5202.094Z" transform="translate(-2900.475 -5177.003)"/>
        <path id="Path_3533" data-name="Path 3533" d="M2926.767,5193.106a10.185,10.185,0,1,1-10.186,10.186A10.2,10.2,0,0,1,2926.767,5193.106Zm6.374,10.186a6.375,6.375,0,1,0-6.374,6.374A6.381,6.381,0,0,0,2933.141,5203.292Z" transform="translate(-2901.672 -5178.201)" fill="#fff"/>
        <path id="Path_3534" data-name="Path 3534" d="M2928.021,5198.172a6.374,6.374,0,1,1-6.377,6.375A6.381,6.381,0,0,1,2928.021,5198.172Zm2.737,6.375a2.739,2.739,0,1,0-2.737,2.737A2.741,2.741,0,0,0,2930.758,5204.546Z" transform="translate(-2902.926 -5179.455)"/>
      </g>
      <g id="Group_2348" data-name="Group 2348" transform="translate(33.854 33.102)">
        <path id="Path_3535" data-name="Path 3535" d="M2975.373,5230.527a17.114,17.114,0,0,1,0,7.56,1.236,1.236,0,0,1-1.2.96h-1.546a14.683,14.683,0,0,1-.706,1.7l1.093,1.093a1.231,1.231,0,0,1,.171,1.529,17.211,17.211,0,0,1-5.341,5.345,1.235,1.235,0,0,1-1.531-.173l-1.093-1.093a14.445,14.445,0,0,1-1.7.7v1.548a1.232,1.232,0,0,1-.958,1.2,17.1,17.1,0,0,1-7.559,0,1.232,1.232,0,0,1-.96-1.2v-1.548a14.554,14.554,0,0,1-1.7-.7l-1.094,1.091a1.234,1.234,0,0,1-1.529.173,17.124,17.124,0,0,1-5.343-5.347,1.23,1.23,0,0,1,.171-1.527l1.093-1.092a14.451,14.451,0,0,1-.7-1.7h-1.548a1.234,1.234,0,0,1-1.2-.96,17.1,17.1,0,0,1,0-7.56,1.233,1.233,0,0,1,1.2-.958h1.546a14.5,14.5,0,0,1,.706-1.7l-1.093-1.093a1.23,1.23,0,0,1-.171-1.527,17.135,17.135,0,0,1,5.343-5.347,1.234,1.234,0,0,1,1.529.173l1.094,1.093a14.479,14.479,0,0,1,1.7-.7v-1.548a1.232,1.232,0,0,1,.96-1.2,17.2,17.2,0,0,1,7.559,0,1.232,1.232,0,0,1,.958,1.2v1.548a14.445,14.445,0,0,1,1.7.7l1.093-1.093a1.233,1.233,0,0,1,1.531-.171,17.174,17.174,0,0,1,5.341,5.343,1.231,1.231,0,0,1-.171,1.528l-1.093,1.093a14.59,14.59,0,0,1,.706,1.7h1.546A1.235,1.235,0,0,1,2975.373,5230.527Zm-2.043,3.78a14.578,14.578,0,0,0-.177-2.272h-1.439a1.231,1.231,0,0,1-1.19-.913,12.15,12.15,0,0,0-1.19-2.865,1.233,1.233,0,0,1,.2-1.486l1.018-1.018a14.693,14.693,0,0,0-3.213-3.214l-1.019,1.018a1.232,1.232,0,0,1-1.486.2,12.138,12.138,0,0,0-2.867-1.191,1.231,1.231,0,0,1-.911-1.19v-1.437a14.719,14.719,0,0,0-4.545,0v1.438a1.231,1.231,0,0,1-.911,1.19,12.134,12.134,0,0,0-2.865,1.191,1.238,1.238,0,0,1-1.487-.2l-1.018-1.02a14.711,14.711,0,0,0-3.212,3.217l1.018,1.015a1.235,1.235,0,0,1,.2,1.486,12.152,12.152,0,0,0-1.189,2.867,1.234,1.234,0,0,1-1.19.913h-1.441a14.76,14.76,0,0,0,0,4.545h1.441a1.234,1.234,0,0,1,1.19.912,12.118,12.118,0,0,0,1.189,2.867,1.235,1.235,0,0,1-.2,1.486l-1.018,1.017a14.724,14.724,0,0,0,3.212,3.215l1.018-1.018a1.232,1.232,0,0,1,1.487-.2,12.106,12.106,0,0,0,2.865,1.188,1.231,1.231,0,0,1,.911,1.19v1.44a14.841,14.841,0,0,0,4.545,0v-1.44a1.231,1.231,0,0,1,.911-1.19,12.017,12.017,0,0,0,2.867-1.191,1.234,1.234,0,0,1,1.486.2l1.019,1.019a14.691,14.691,0,0,0,3.213-3.216l-1.018-1.018a1.232,1.232,0,0,1-.2-1.485,12.17,12.17,0,0,0,1.19-2.866,1.231,1.231,0,0,1,1.19-.912h1.439A14.606,14.606,0,0,0,2973.33,5234.307Z" transform="translate(-2941.764 -5217.293)"/>
        <path id="Path_3536" data-name="Path 3536" d="M2973.964,5232.847a14.656,14.656,0,0,1,0,4.545h-1.439a1.231,1.231,0,0,0-1.19.911,12.162,12.162,0,0,1-1.19,2.866,1.232,1.232,0,0,0,.2,1.485l1.018,1.019a14.711,14.711,0,0,1-3.213,3.216l-1.019-1.02a1.233,1.233,0,0,0-1.486-.2,12.079,12.079,0,0,1-2.867,1.191,1.23,1.23,0,0,0-.911,1.19v1.44a14.872,14.872,0,0,1-4.545,0v-1.44a1.23,1.23,0,0,0-.911-1.19,12.147,12.147,0,0,1-2.865-1.189,1.231,1.231,0,0,0-1.488.2l-1.018,1.018a14.726,14.726,0,0,1-3.212-3.215l1.018-1.016a1.236,1.236,0,0,0,.2-1.487,12.11,12.11,0,0,1-1.189-2.867,1.234,1.234,0,0,0-1.19-.911h-1.441a14.757,14.757,0,0,1,0-4.545h1.441a1.234,1.234,0,0,0,1.19-.913,12.14,12.14,0,0,1,1.189-2.867,1.235,1.235,0,0,0-.2-1.486l-1.018-1.016a14.741,14.741,0,0,1,3.212-3.216l1.018,1.02a1.237,1.237,0,0,0,1.488.2,12.092,12.092,0,0,1,2.865-1.191,1.231,1.231,0,0,0,.911-1.19v-1.438a14.78,14.78,0,0,1,4.545,0v1.438a1.231,1.231,0,0,0,.911,1.19,12.1,12.1,0,0,1,2.867,1.191,1.233,1.233,0,0,0,1.486-.2l1.019-1.017a14.7,14.7,0,0,1,3.213,3.213l-1.018,1.018a1.233,1.233,0,0,0-.2,1.486,12.15,12.15,0,0,1,1.19,2.865,1.231,1.231,0,0,0,1.19.913Zm-5,2.271a9.372,9.372,0,1,0-9.371,9.373A9.382,9.382,0,0,0,2968.963,5235.118Z" transform="translate(-2942.576 -5218.105)" fill="#3ecef0"/>
        <path id="Path_3537" data-name="Path 3537" d="M2961.3,5227.45a9.373,9.373,0,1,1-9.373,9.373A9.382,9.382,0,0,1,2961.3,5227.45Zm6.906,9.373a6.906,6.906,0,1,0-6.906,6.906A6.915,6.915,0,0,0,2968.2,5236.823Z" transform="translate(-2944.28 -5219.809)"/>
        <path id="Path_3538" data-name="Path 3538" d="M2962.108,5230.728a6.906,6.906,0,1,1-6.907,6.906A6.914,6.914,0,0,1,2962.108,5230.728Zm4.322,6.906a4.323,4.323,0,1,0-4.322,4.322A4.326,4.326,0,0,0,2966.43,5237.634Z" transform="translate(-2945.092 -5220.621)" fill="#fff"/>
        <path id="Path_3539" data-name="Path 3539" d="M2962.958,5234.163a4.322,4.322,0,1,1-4.323,4.322A4.326,4.326,0,0,1,2962.958,5234.163Zm1.856,4.322a1.857,1.857,0,1,0-1.856,1.856A1.859,1.859,0,0,0,2964.815,5238.485Z" transform="translate(-2945.942 -5221.472)"/>
      </g>
    </g>
    <g id="Component_15_2" data-name="Component 15 – 2" transform="translate(652.915 2539.896)">
      <g id="Group_2347-2" data-name="Group 2347">
        <path id="Path_3530-2" data-name="Path 3530" d="M2946.329,5192.81a25.249,25.249,0,0,1,0,11.149,1.823,1.823,0,0,1-1.775,1.416h-2.279a21.646,21.646,0,0,1-1.04,2.5l1.612,1.612a1.816,1.816,0,0,1,.253,2.255,25.36,25.36,0,0,1-7.878,7.882,1.821,1.821,0,0,1-2.258-.254l-1.612-1.612a21.479,21.479,0,0,1-2.507,1.04v2.282a1.818,1.818,0,0,1-1.413,1.772,25.264,25.264,0,0,1-11.148,0,1.818,1.818,0,0,1-1.416-1.772V5218.8a21.285,21.285,0,0,1-2.5-1.038l-1.613,1.61a1.819,1.819,0,0,1-2.255.254,25.244,25.244,0,0,1-7.879-7.884,1.815,1.815,0,0,1,.252-2.252l1.613-1.61a21.262,21.262,0,0,1-1.041-2.506h-2.281a1.819,1.819,0,0,1-1.772-1.416,25.22,25.22,0,0,1,0-11.149,1.817,1.817,0,0,1,1.772-1.414h2.279a21.3,21.3,0,0,1,1.043-2.506l-1.613-1.612a1.815,1.815,0,0,1-.252-2.252,25.265,25.265,0,0,1,7.879-7.884,1.819,1.819,0,0,1,2.255.254l1.613,1.612a21.464,21.464,0,0,1,2.5-1.04v-2.282a1.818,1.818,0,0,1,1.416-1.772,25.366,25.366,0,0,1,11.148,0,1.819,1.819,0,0,1,1.413,1.772v2.282a21.479,21.479,0,0,1,2.507,1.04l1.612-1.612a1.819,1.819,0,0,1,2.258-.251,25.326,25.326,0,0,1,7.878,7.879,1.816,1.816,0,0,1-.253,2.255l-1.612,1.612a21.462,21.462,0,0,1,1.04,2.506h2.279A1.821,1.821,0,0,1,2946.329,5192.81Zm-3.014,5.575a21.41,21.41,0,0,0-.262-3.351h-2.121a1.818,1.818,0,0,1-1.755-1.346,17.875,17.875,0,0,0-1.755-4.226,1.821,1.821,0,0,1,.291-2.192l1.5-1.5a21.668,21.668,0,0,0-4.737-4.74l-1.5,1.5a1.817,1.817,0,0,1-2.192.292,17.853,17.853,0,0,0-4.229-1.756,1.816,1.816,0,0,1-1.343-1.755v-2.122a21.706,21.706,0,0,0-6.7,0v2.122a1.816,1.816,0,0,1-1.344,1.755,17.836,17.836,0,0,0-4.226,1.756,1.827,1.827,0,0,1-2.194-.292l-1.5-1.5a21.692,21.692,0,0,0-4.738,4.742l1.5,1.5a1.82,1.82,0,0,1,.289,2.192,17.917,17.917,0,0,0-1.753,4.229,1.819,1.819,0,0,1-1.755,1.346h-2.125a21.771,21.771,0,0,0,0,6.7h2.125a1.819,1.819,0,0,1,1.755,1.344,17.888,17.888,0,0,0,1.753,4.228,1.819,1.819,0,0,1-.289,2.192l-1.5,1.5a21.747,21.747,0,0,0,4.738,4.74l1.5-1.5a1.819,1.819,0,0,1,2.194-.291,17.846,17.846,0,0,0,4.226,1.752,1.816,1.816,0,0,1,1.344,1.755v2.124a21.857,21.857,0,0,0,6.7,0v-2.124a1.815,1.815,0,0,1,1.343-1.755,17.732,17.732,0,0,0,4.229-1.756,1.822,1.822,0,0,1,2.192.291l1.5,1.5a21.69,21.69,0,0,0,4.737-4.742l-1.5-1.5a1.821,1.821,0,0,1-.291-2.192,17.889,17.889,0,0,0,1.755-4.226,1.818,1.818,0,0,1,1.755-1.344h2.121A21.463,21.463,0,0,0,2943.315,5198.384Z" transform="translate(-2896.764 -5173.293)"/>
        <path id="Path_3531-2" data-name="Path 3531" d="M2944.25,5196.23a21.571,21.571,0,0,1,0,6.7h-2.122a1.818,1.818,0,0,0-1.755,1.344,17.9,17.9,0,0,1-1.755,4.226,1.82,1.82,0,0,0,.291,2.192l1.5,1.5a21.684,21.684,0,0,1-4.737,4.742l-1.5-1.5a1.821,1.821,0,0,0-2.192-.291,17.747,17.747,0,0,1-4.229,1.756,1.815,1.815,0,0,0-1.343,1.755v2.124a21.888,21.888,0,0,1-6.7,0v-2.124a1.816,1.816,0,0,0-1.344-1.755,17.866,17.866,0,0,1-4.226-1.752,1.818,1.818,0,0,0-2.194.291l-1.5,1.5a21.747,21.747,0,0,1-4.738-4.74l1.5-1.5a1.82,1.82,0,0,0,.289-2.192,17.867,17.867,0,0,1-1.753-4.228,1.819,1.819,0,0,0-1.755-1.344h-2.125a21.771,21.771,0,0,1,0-6.7h2.125a1.818,1.818,0,0,0,1.755-1.346,17.9,17.9,0,0,1,1.753-4.228,1.82,1.82,0,0,0-.289-2.192l-1.5-1.5a21.681,21.681,0,0,1,4.738-4.742l1.5,1.5a1.828,1.828,0,0,0,2.194.292,17.816,17.816,0,0,1,4.226-1.756,1.817,1.817,0,0,0,1.344-1.755v-2.122a21.706,21.706,0,0,1,6.7,0v2.122a1.816,1.816,0,0,0,1.343,1.755,17.828,17.828,0,0,1,4.229,1.756,1.817,1.817,0,0,0,2.192-.292l1.5-1.5a21.663,21.663,0,0,1,4.737,4.74l-1.5,1.5a1.821,1.821,0,0,0-.291,2.192,17.883,17.883,0,0,1,1.755,4.226,1.816,1.816,0,0,0,1.755,1.346Zm-7.375,3.351a13.821,13.821,0,1,0-13.82,13.822A13.838,13.838,0,0,0,2936.875,5199.581Z" transform="translate(-2897.961 -5174.49)" fill="#e61853"/>
        <path id="Path_3532-2" data-name="Path 3532" d="M2925.57,5188.271a13.822,13.822,0,1,1-13.823,13.823A13.838,13.838,0,0,1,2925.57,5188.271Zm10.183,13.823a10.185,10.185,0,1,0-10.183,10.185A10.2,10.2,0,0,0,2935.753,5202.094Z" transform="translate(-2900.475 -5177.003)"/>
        <path id="Path_3533-2" data-name="Path 3533" d="M2926.767,5193.106a10.185,10.185,0,1,1-10.186,10.186A10.2,10.2,0,0,1,2926.767,5193.106Zm6.374,10.186a6.375,6.375,0,1,0-6.374,6.374A6.381,6.381,0,0,0,2933.141,5203.292Z" transform="translate(-2901.672 -5178.201)" fill="#fff"/>
        <path id="Path_3534-2" data-name="Path 3534" d="M2928.021,5198.172a6.374,6.374,0,1,1-6.377,6.375A6.381,6.381,0,0,1,2928.021,5198.172Zm2.737,6.375a2.739,2.739,0,1,0-2.737,2.737A2.741,2.741,0,0,0,2930.758,5204.546Z" transform="translate(-2902.926 -5179.455)"/>
      </g>
      <g id="Group_2348-2" data-name="Group 2348" transform="translate(33.854 33.102)">
        <path id="Path_3535-2" data-name="Path 3535" d="M2975.373,5230.527a17.114,17.114,0,0,1,0,7.56,1.236,1.236,0,0,1-1.2.96h-1.546a14.683,14.683,0,0,1-.706,1.7l1.093,1.093a1.231,1.231,0,0,1,.171,1.529,17.211,17.211,0,0,1-5.341,5.345,1.235,1.235,0,0,1-1.531-.173l-1.093-1.093a14.445,14.445,0,0,1-1.7.7v1.548a1.232,1.232,0,0,1-.958,1.2,17.1,17.1,0,0,1-7.559,0,1.232,1.232,0,0,1-.96-1.2v-1.548a14.554,14.554,0,0,1-1.7-.7l-1.094,1.091a1.234,1.234,0,0,1-1.529.173,17.124,17.124,0,0,1-5.343-5.347,1.23,1.23,0,0,1,.171-1.527l1.093-1.092a14.451,14.451,0,0,1-.7-1.7h-1.548a1.234,1.234,0,0,1-1.2-.96,17.1,17.1,0,0,1,0-7.56,1.233,1.233,0,0,1,1.2-.958h1.546a14.5,14.5,0,0,1,.706-1.7l-1.093-1.093a1.23,1.23,0,0,1-.171-1.527,17.135,17.135,0,0,1,5.343-5.347,1.234,1.234,0,0,1,1.529.173l1.094,1.093a14.479,14.479,0,0,1,1.7-.7v-1.548a1.232,1.232,0,0,1,.96-1.2,17.2,17.2,0,0,1,7.559,0,1.232,1.232,0,0,1,.958,1.2v1.548a14.445,14.445,0,0,1,1.7.7l1.093-1.093a1.233,1.233,0,0,1,1.531-.171,17.174,17.174,0,0,1,5.341,5.343,1.231,1.231,0,0,1-.171,1.528l-1.093,1.093a14.59,14.59,0,0,1,.706,1.7h1.546A1.235,1.235,0,0,1,2975.373,5230.527Zm-2.043,3.78a14.578,14.578,0,0,0-.177-2.272h-1.439a1.231,1.231,0,0,1-1.19-.913,12.15,12.15,0,0,0-1.19-2.865,1.233,1.233,0,0,1,.2-1.486l1.018-1.018a14.693,14.693,0,0,0-3.213-3.214l-1.019,1.018a1.232,1.232,0,0,1-1.486.2,12.138,12.138,0,0,0-2.867-1.191,1.231,1.231,0,0,1-.911-1.19v-1.437a14.719,14.719,0,0,0-4.545,0v1.438a1.231,1.231,0,0,1-.911,1.19,12.134,12.134,0,0,0-2.865,1.191,1.238,1.238,0,0,1-1.487-.2l-1.018-1.02a14.711,14.711,0,0,0-3.212,3.217l1.018,1.015a1.235,1.235,0,0,1,.2,1.486,12.152,12.152,0,0,0-1.189,2.867,1.234,1.234,0,0,1-1.19.913h-1.441a14.76,14.76,0,0,0,0,4.545h1.441a1.234,1.234,0,0,1,1.19.912,12.118,12.118,0,0,0,1.189,2.867,1.235,1.235,0,0,1-.2,1.486l-1.018,1.017a14.724,14.724,0,0,0,3.212,3.215l1.018-1.018a1.232,1.232,0,0,1,1.487-.2,12.106,12.106,0,0,0,2.865,1.188,1.231,1.231,0,0,1,.911,1.19v1.44a14.841,14.841,0,0,0,4.545,0v-1.44a1.231,1.231,0,0,1,.911-1.19,12.017,12.017,0,0,0,2.867-1.191,1.234,1.234,0,0,1,1.486.2l1.019,1.019a14.691,14.691,0,0,0,3.213-3.216l-1.018-1.018a1.232,1.232,0,0,1-.2-1.485,12.17,12.17,0,0,0,1.19-2.866,1.231,1.231,0,0,1,1.19-.912h1.439A14.606,14.606,0,0,0,2973.33,5234.307Z" transform="translate(-2941.764 -5217.293)"/>
        <path id="Path_3536-2" data-name="Path 3536" d="M2973.964,5232.847a14.656,14.656,0,0,1,0,4.545h-1.439a1.231,1.231,0,0,0-1.19.911,12.162,12.162,0,0,1-1.19,2.866,1.232,1.232,0,0,0,.2,1.485l1.018,1.019a14.711,14.711,0,0,1-3.213,3.216l-1.019-1.02a1.233,1.233,0,0,0-1.486-.2,12.079,12.079,0,0,1-2.867,1.191,1.23,1.23,0,0,0-.911,1.19v1.44a14.872,14.872,0,0,1-4.545,0v-1.44a1.23,1.23,0,0,0-.911-1.19,12.147,12.147,0,0,1-2.865-1.189,1.231,1.231,0,0,0-1.488.2l-1.018,1.018a14.726,14.726,0,0,1-3.212-3.215l1.018-1.016a1.236,1.236,0,0,0,.2-1.487,12.11,12.11,0,0,1-1.189-2.867,1.234,1.234,0,0,0-1.19-.911h-1.441a14.757,14.757,0,0,1,0-4.545h1.441a1.234,1.234,0,0,0,1.19-.913,12.14,12.14,0,0,1,1.189-2.867,1.235,1.235,0,0,0-.2-1.486l-1.018-1.016a14.741,14.741,0,0,1,3.212-3.216l1.018,1.02a1.237,1.237,0,0,0,1.488.2,12.092,12.092,0,0,1,2.865-1.191,1.231,1.231,0,0,0,.911-1.19v-1.438a14.78,14.78,0,0,1,4.545,0v1.438a1.231,1.231,0,0,0,.911,1.19,12.1,12.1,0,0,1,2.867,1.191,1.233,1.233,0,0,0,1.486-.2l1.019-1.017a14.7,14.7,0,0,1,3.213,3.213l-1.018,1.018a1.233,1.233,0,0,0-.2,1.486,12.15,12.15,0,0,1,1.19,2.865,1.231,1.231,0,0,0,1.19.913Zm-5,2.271a9.372,9.372,0,1,0-9.371,9.373A9.382,9.382,0,0,0,2968.963,5235.118Z" transform="translate(-2942.576 -5218.105)" fill="#3ecef0"/>
        <path id="Path_3537-2" data-name="Path 3537" d="M2961.3,5227.45a9.373,9.373,0,1,1-9.373,9.373A9.382,9.382,0,0,1,2961.3,5227.45Zm6.906,9.373a6.906,6.906,0,1,0-6.906,6.906A6.915,6.915,0,0,0,2968.2,5236.823Z" transform="translate(-2944.28 -5219.809)"/>
        <path id="Path_3538-2" data-name="Path 3538" d="M2962.108,5230.728a6.906,6.906,0,1,1-6.907,6.906A6.914,6.914,0,0,1,2962.108,5230.728Zm4.322,6.906a4.323,4.323,0,1,0-4.322,4.322A4.326,4.326,0,0,0,2966.43,5237.634Z" transform="translate(-2945.092 -5220.621)" fill="#fff"/>
        <path id="Path_3539-2" data-name="Path 3539" d="M2962.958,5234.163a4.322,4.322,0,1,1-4.323,4.322A4.326,4.326,0,0,1,2962.958,5234.163Zm1.856,4.322a1.857,1.857,0,1,0-1.856,1.856A1.859,1.859,0,0,0,2964.815,5238.485Z" transform="translate(-2945.942 -5221.472)"/>
      </g>
    </g>
  </g>
</svg>
