<svg xmlns="http://www.w3.org/2000/svg" width="78.85" height="71.299" viewBox="0 0 78.85 71.299">
  <g id="Group_2831" data-name="Group 2831" transform="translate(-654.598 -2723.639)">
    <g id="Component_10_1" data-name="Component 10 – 1" transform="translate(654.598 2723.639)">
      <g id="Group_2349" data-name="Group 2349">
        <path id="Path_3540" data-name="Path 3540" d="M2957.69,5423.542v59.274a6.02,6.02,0,0,1-6.015,6.013h-33.842a6.019,6.019,0,0,1-6.013-6.013v-59.274a6.019,6.019,0,0,1,6.013-6.012h33.842A6.02,6.02,0,0,1,2957.69,5423.542Zm-2.414,59.274v-4.932h-41.041v4.932a3.6,3.6,0,0,0,3.6,3.6h33.842A3.6,3.6,0,0,0,2955.276,5482.816Zm0-7.346v-44.582h-41.041v44.582Zm0-47v-4.932a3.605,3.605,0,0,0-3.6-3.6h-33.842a3.6,3.6,0,0,0-3.6,3.6v4.932Z" transform="translate(-2911.82 -5417.53)"/>
        <path id="Path_3541" data-name="Path 3541" d="M2955.789,5490.727v4.932a3.6,3.6,0,0,1-3.6,3.6h-33.842a3.6,3.6,0,0,1-3.6-3.6v-4.932Zm-16.9,4.2a3.622,3.622,0,1,0-3.622,3.621A3.626,3.626,0,0,0,2938.89,5494.927Z" transform="translate(-2912.334 -5430.372)" fill="#3ecef0"/>
        <path id="Path_3542" data-name="Path 3542" d="M2955.789,5424.057v4.932h-41.041v-4.932a3.6,3.6,0,0,1,3.6-3.6h33.842A3.6,3.6,0,0,1,2955.789,5424.057Zm-14.163.667a1.208,1.208,0,0,0-1.207-1.208h-10.3a1.207,1.207,0,0,0,0,2.415h10.3A1.207,1.207,0,0,0,2941.626,5424.723Z" transform="translate(-2912.334 -5418.044)" fill="#3ecef0"/>
        <path id="Path_3543" data-name="Path 3543" d="M2952.335,5453.521a16.769,16.769,0,0,1,0,7.4,1.211,1.211,0,0,1-1.178.94h-1.513a14.477,14.477,0,0,1-.69,1.664l1.07,1.07a1.2,1.2,0,0,1,.167,1.5,16.841,16.841,0,0,1-5.229,5.233,1.211,1.211,0,0,1-1.5-.169l-1.07-1.07a14.221,14.221,0,0,1-1.664.69v1.515a1.206,1.206,0,0,1-.938,1.175,16.759,16.759,0,0,1-7.4,0,1.206,1.206,0,0,1-.94-1.175v-1.515a14.258,14.258,0,0,1-1.663-.688l-1.07,1.068a1.209,1.209,0,0,1-1.5.169,16.782,16.782,0,0,1-5.231-5.234,1.2,1.2,0,0,1,.167-1.495l1.07-1.069a14.125,14.125,0,0,1-.69-1.665h-1.515a1.208,1.208,0,0,1-1.177-.94,16.74,16.74,0,0,1,0-7.4,1.206,1.206,0,0,1,1.177-.937h1.513a14.149,14.149,0,0,1,.692-1.665l-1.07-1.07a1.2,1.2,0,0,1-.167-1.5,16.787,16.787,0,0,1,5.231-5.234,1.209,1.209,0,0,1,1.5.169l1.07,1.07a14.177,14.177,0,0,1,1.663-.689v-1.515a1.208,1.208,0,0,1,.94-1.177,16.852,16.852,0,0,1,7.4,0,1.207,1.207,0,0,1,.938,1.177v1.515a14.129,14.129,0,0,1,1.664.689l1.07-1.07a1.209,1.209,0,0,1,1.5-.167,16.816,16.816,0,0,1,5.229,5.23,1.205,1.205,0,0,1-.167,1.5l-1.07,1.07a14.32,14.32,0,0,1,.69,1.665h1.513A1.209,1.209,0,0,1,2952.335,5453.521Zm-2,3.7a14.163,14.163,0,0,0-.174-2.226h-1.407a1.206,1.206,0,0,1-1.166-.893,11.867,11.867,0,0,0-1.165-2.806,1.208,1.208,0,0,1,.193-1.455l1-1a14.406,14.406,0,0,0-3.145-3.147l-1,1a1.2,1.2,0,0,1-1.454.194,11.885,11.885,0,0,0-2.807-1.166,1.205,1.205,0,0,1-.892-1.165v-1.408a14.378,14.378,0,0,0-4.45,0v1.408a1.205,1.205,0,0,1-.891,1.165,11.841,11.841,0,0,0-2.805,1.166,1.213,1.213,0,0,1-1.457-.194l-1-1a14.41,14.41,0,0,0-3.145,3.148l1,.994a1.209,1.209,0,0,1,.191,1.456,11.907,11.907,0,0,0-1.164,2.807,1.207,1.207,0,0,1-1.165.893h-1.41a14.448,14.448,0,0,0,0,4.45h1.41a1.208,1.208,0,0,1,1.165.893,11.916,11.916,0,0,0,1.164,2.807,1.207,1.207,0,0,1-.191,1.455l-1,1a14.433,14.433,0,0,0,3.145,3.146l1-1a1.208,1.208,0,0,1,1.457-.193,11.855,11.855,0,0,0,2.805,1.164,1.2,1.2,0,0,1,.891,1.165v1.41a14.53,14.53,0,0,0,4.45,0v-1.41a1.2,1.2,0,0,1,.892-1.165,11.824,11.824,0,0,0,2.807-1.166,1.207,1.207,0,0,1,1.454.193l1,1a14.416,14.416,0,0,0,3.145-3.147l-1-1a1.209,1.209,0,0,1-.193-1.456,11.869,11.869,0,0,0,1.165-2.8,1.208,1.208,0,0,1,1.166-.893h1.407A14.16,14.16,0,0,0,2950.334,5457.222Z" transform="translate(-2913.156 -5421.571)"/>
        <path id="Path_3544" data-name="Path 3544" d="M2950.673,5455.51a14.328,14.328,0,0,1,0,4.45h-1.407a1.209,1.209,0,0,0-1.166.892,11.872,11.872,0,0,1-1.165,2.806,1.209,1.209,0,0,0,.193,1.455l1,1a14.426,14.426,0,0,1-3.145,3.148l-1-1a1.208,1.208,0,0,0-1.455-.194,11.784,11.784,0,0,1-2.807,1.166,1.205,1.205,0,0,0-.892,1.166v1.41a14.531,14.531,0,0,1-4.45,0v-1.41a1.206,1.206,0,0,0-.891-1.166,11.836,11.836,0,0,1-2.805-1.164,1.209,1.209,0,0,0-1.457.193l-1,1a14.446,14.446,0,0,1-3.145-3.146l1-1a1.208,1.208,0,0,0,.191-1.455,11.9,11.9,0,0,1-1.164-2.807,1.209,1.209,0,0,0-1.165-.892h-1.41a14.448,14.448,0,0,1,0-4.45h1.41a1.207,1.207,0,0,0,1.165-.893,11.887,11.887,0,0,1,1.164-2.807,1.209,1.209,0,0,0-.191-1.456l-1-.994a14.412,14.412,0,0,1,3.145-3.148l1,1a1.214,1.214,0,0,0,1.457.193,11.843,11.843,0,0,1,2.805-1.166,1.2,1.2,0,0,0,.891-1.165v-1.408a14.38,14.38,0,0,1,4.45,0v1.408a1.2,1.2,0,0,0,.892,1.165,11.885,11.885,0,0,1,2.807,1.166,1.2,1.2,0,0,0,1.455-.193l1-1a14.4,14.4,0,0,1,3.145,3.146l-1,1a1.21,1.21,0,0,0-.193,1.456,11.835,11.835,0,0,1,1.165,2.805,1.207,1.207,0,0,0,1.166.893Zm-4.9,2.225a9.175,9.175,0,1,0-9.174,9.175A9.185,9.185,0,0,0,2945.778,5457.735Z" transform="translate(-2913.669 -5422.085)" fill="#e61853"/>
        <path id="Path_3545" data-name="Path 3545" d="M2937.683,5449.637a9.176,9.176,0,1,1-9.176,9.176A9.185,9.185,0,0,1,2937.683,5449.637Zm6.76,9.176a6.76,6.76,0,1,0-6.76,6.761A6.769,6.769,0,0,0,2944.443,5458.813Z" transform="translate(-2914.749 -5423.163)"/>
        <path id="Path_3546" data-name="Path 3546" d="M2943.433,5424.166a1.208,1.208,0,0,1,0,2.415h-10.3a1.208,1.208,0,0,1,0-2.415Z" transform="translate(-2915.348 -5418.694)"/>
        <path id="Path_3547" data-name="Path 3547" d="M2938.2,5452.565a6.761,6.761,0,1,1-6.761,6.762A6.769,6.769,0,0,1,2938.2,5452.565Zm4.23,6.762a4.232,4.232,0,1,0-4.23,4.231A4.235,4.235,0,0,0,2942.427,5459.327Z" transform="translate(-2915.262 -5423.677)" fill="#fff"/>
        <path id="Path_3548" data-name="Path 3548" d="M2938.735,5455.633a4.232,4.232,0,1,1-4.233,4.232A4.236,4.236,0,0,1,2938.735,5455.633Zm1.816,4.232a1.818,1.818,0,1,0-1.816,1.817A1.819,1.819,0,0,0,2940.551,5459.865Z" transform="translate(-2915.8 -5424.216)"/>
        <path id="Path_3549" data-name="Path 3549" d="M2938.865,5491.43a3.621,3.621,0,1,1-3.621,3.621A3.626,3.626,0,0,1,2938.865,5491.43Zm1.207,3.621a1.207,1.207,0,1,0-1.207,1.208A1.21,1.21,0,0,0,2940.072,5495.05Z" transform="translate(-2915.93 -5430.495)"/>
        <path id="Path_3550" data-name="Path 3550" d="M2939.378,5494.357a1.207,1.207,0,1,1-1.207,1.208A1.21,1.21,0,0,1,2939.378,5494.357Z" transform="translate(-2916.443 -5431.01)" fill="#3ecef0"/>
      </g>
    </g>
    <g id="Component_10_2" data-name="Component 10 – 2" transform="translate(654.598 2723.639)">
      <g id="Group_2349-2" data-name="Group 2349">
        <path id="Path_3540-2" data-name="Path 3540" d="M2957.69,5423.542v59.274a6.02,6.02,0,0,1-6.015,6.013h-33.842a6.019,6.019,0,0,1-6.013-6.013v-59.274a6.019,6.019,0,0,1,6.013-6.012h33.842A6.02,6.02,0,0,1,2957.69,5423.542Zm-2.414,59.274v-4.932h-41.041v4.932a3.6,3.6,0,0,0,3.6,3.6h33.842A3.6,3.6,0,0,0,2955.276,5482.816Zm0-7.346v-44.582h-41.041v44.582Zm0-47v-4.932a3.605,3.605,0,0,0-3.6-3.6h-33.842a3.6,3.6,0,0,0-3.6,3.6v4.932Z" transform="translate(-2911.82 -5417.53)"/>
        <path id="Path_3541-2" data-name="Path 3541" d="M2955.789,5490.727v4.932a3.6,3.6,0,0,1-3.6,3.6h-33.842a3.6,3.6,0,0,1-3.6-3.6v-4.932Zm-16.9,4.2a3.622,3.622,0,1,0-3.622,3.621A3.626,3.626,0,0,0,2938.89,5494.927Z" transform="translate(-2912.334 -5430.372)" fill="#3ecef0"/>
        <path id="Path_3542-2" data-name="Path 3542" d="M2955.789,5424.057v4.932h-41.041v-4.932a3.6,3.6,0,0,1,3.6-3.6h33.842A3.6,3.6,0,0,1,2955.789,5424.057Zm-14.163.667a1.208,1.208,0,0,0-1.207-1.208h-10.3a1.207,1.207,0,0,0,0,2.415h10.3A1.207,1.207,0,0,0,2941.626,5424.723Z" transform="translate(-2912.334 -5418.044)" fill="#3ecef0"/>
        <path id="Path_3543-2" data-name="Path 3543" d="M2952.335,5453.521a16.769,16.769,0,0,1,0,7.4,1.211,1.211,0,0,1-1.178.94h-1.513a14.477,14.477,0,0,1-.69,1.664l1.07,1.07a1.2,1.2,0,0,1,.167,1.5,16.841,16.841,0,0,1-5.229,5.233,1.211,1.211,0,0,1-1.5-.169l-1.07-1.07a14.221,14.221,0,0,1-1.664.69v1.515a1.206,1.206,0,0,1-.938,1.175,16.759,16.759,0,0,1-7.4,0,1.206,1.206,0,0,1-.94-1.175v-1.515a14.258,14.258,0,0,1-1.663-.688l-1.07,1.068a1.209,1.209,0,0,1-1.5.169,16.782,16.782,0,0,1-5.231-5.234,1.2,1.2,0,0,1,.167-1.495l1.07-1.069a14.125,14.125,0,0,1-.69-1.665h-1.515a1.208,1.208,0,0,1-1.177-.94,16.74,16.74,0,0,1,0-7.4,1.206,1.206,0,0,1,1.177-.937h1.513a14.149,14.149,0,0,1,.692-1.665l-1.07-1.07a1.2,1.2,0,0,1-.167-1.5,16.787,16.787,0,0,1,5.231-5.234,1.209,1.209,0,0,1,1.5.169l1.07,1.07a14.177,14.177,0,0,1,1.663-.689v-1.515a1.208,1.208,0,0,1,.94-1.177,16.852,16.852,0,0,1,7.4,0,1.207,1.207,0,0,1,.938,1.177v1.515a14.129,14.129,0,0,1,1.664.689l1.07-1.07a1.209,1.209,0,0,1,1.5-.167,16.816,16.816,0,0,1,5.229,5.23,1.205,1.205,0,0,1-.167,1.5l-1.07,1.07a14.32,14.32,0,0,1,.69,1.665h1.513A1.209,1.209,0,0,1,2952.335,5453.521Zm-2,3.7a14.163,14.163,0,0,0-.174-2.226h-1.407a1.206,1.206,0,0,1-1.166-.893,11.867,11.867,0,0,0-1.165-2.806,1.208,1.208,0,0,1,.193-1.455l1-1a14.406,14.406,0,0,0-3.145-3.147l-1,1a1.2,1.2,0,0,1-1.454.194,11.885,11.885,0,0,0-2.807-1.166,1.205,1.205,0,0,1-.892-1.165v-1.408a14.378,14.378,0,0,0-4.45,0v1.408a1.205,1.205,0,0,1-.891,1.165,11.841,11.841,0,0,0-2.805,1.166,1.213,1.213,0,0,1-1.457-.194l-1-1a14.41,14.41,0,0,0-3.145,3.148l1,.994a1.209,1.209,0,0,1,.191,1.456,11.907,11.907,0,0,0-1.164,2.807,1.207,1.207,0,0,1-1.165.893h-1.41a14.448,14.448,0,0,0,0,4.45h1.41a1.208,1.208,0,0,1,1.165.893,11.916,11.916,0,0,0,1.164,2.807,1.207,1.207,0,0,1-.191,1.455l-1,1a14.433,14.433,0,0,0,3.145,3.146l1-1a1.208,1.208,0,0,1,1.457-.193,11.855,11.855,0,0,0,2.805,1.164,1.2,1.2,0,0,1,.891,1.165v1.41a14.53,14.53,0,0,0,4.45,0v-1.41a1.2,1.2,0,0,1,.892-1.165,11.824,11.824,0,0,0,2.807-1.166,1.207,1.207,0,0,1,1.454.193l1,1a14.416,14.416,0,0,0,3.145-3.147l-1-1a1.209,1.209,0,0,1-.193-1.456,11.869,11.869,0,0,0,1.165-2.8,1.208,1.208,0,0,1,1.166-.893h1.407A14.16,14.16,0,0,0,2950.334,5457.222Z" transform="translate(-2913.156 -5421.571)"/>
        <path id="Path_3544-2" data-name="Path 3544" d="M2950.673,5455.51a14.328,14.328,0,0,1,0,4.45h-1.407a1.209,1.209,0,0,0-1.166.892,11.872,11.872,0,0,1-1.165,2.806,1.209,1.209,0,0,0,.193,1.455l1,1a14.426,14.426,0,0,1-3.145,3.148l-1-1a1.208,1.208,0,0,0-1.455-.194,11.784,11.784,0,0,1-2.807,1.166,1.205,1.205,0,0,0-.892,1.166v1.41a14.531,14.531,0,0,1-4.45,0v-1.41a1.206,1.206,0,0,0-.891-1.166,11.836,11.836,0,0,1-2.805-1.164,1.209,1.209,0,0,0-1.457.193l-1,1a14.446,14.446,0,0,1-3.145-3.146l1-1a1.208,1.208,0,0,0,.191-1.455,11.9,11.9,0,0,1-1.164-2.807,1.209,1.209,0,0,0-1.165-.892h-1.41a14.448,14.448,0,0,1,0-4.45h1.41a1.207,1.207,0,0,0,1.165-.893,11.887,11.887,0,0,1,1.164-2.807,1.209,1.209,0,0,0-.191-1.456l-1-.994a14.412,14.412,0,0,1,3.145-3.148l1,1a1.214,1.214,0,0,0,1.457.193,11.843,11.843,0,0,1,2.805-1.166,1.2,1.2,0,0,0,.891-1.165v-1.408a14.38,14.38,0,0,1,4.45,0v1.408a1.2,1.2,0,0,0,.892,1.165,11.885,11.885,0,0,1,2.807,1.166,1.2,1.2,0,0,0,1.455-.193l1-1a14.4,14.4,0,0,1,3.145,3.146l-1,1a1.21,1.21,0,0,0-.193,1.456,11.835,11.835,0,0,1,1.165,2.805,1.207,1.207,0,0,0,1.166.893Zm-4.9,2.225a9.175,9.175,0,1,0-9.174,9.175A9.185,9.185,0,0,0,2945.778,5457.735Z" transform="translate(-2913.669 -5422.085)" fill="#e61853"/>
        <path id="Path_3545-2" data-name="Path 3545" d="M2937.683,5449.637a9.176,9.176,0,1,1-9.176,9.176A9.185,9.185,0,0,1,2937.683,5449.637Zm6.76,9.176a6.76,6.76,0,1,0-6.76,6.761A6.769,6.769,0,0,0,2944.443,5458.813Z" transform="translate(-2914.749 -5423.163)"/>
        <path id="Path_3546-2" data-name="Path 3546" d="M2943.433,5424.166a1.208,1.208,0,0,1,0,2.415h-10.3a1.208,1.208,0,0,1,0-2.415Z" transform="translate(-2915.348 -5418.694)"/>
        <path id="Path_3547-2" data-name="Path 3547" d="M2938.2,5452.565a6.761,6.761,0,1,1-6.761,6.762A6.769,6.769,0,0,1,2938.2,5452.565Zm4.23,6.762a4.232,4.232,0,1,0-4.23,4.231A4.235,4.235,0,0,0,2942.427,5459.327Z" transform="translate(-2915.262 -5423.677)" fill="#fff"/>
        <path id="Path_3548-2" data-name="Path 3548" d="M2938.735,5455.633a4.232,4.232,0,1,1-4.233,4.232A4.236,4.236,0,0,1,2938.735,5455.633Zm1.816,4.232a1.818,1.818,0,1,0-1.816,1.817A1.819,1.819,0,0,0,2940.551,5459.865Z" transform="translate(-2915.8 -5424.216)"/>
        <path id="Path_3549-2" data-name="Path 3549" d="M2938.865,5491.43a3.621,3.621,0,1,1-3.621,3.621A3.626,3.626,0,0,1,2938.865,5491.43Zm1.207,3.621a1.207,1.207,0,1,0-1.207,1.208A1.21,1.21,0,0,0,2940.072,5495.05Z" transform="translate(-2915.93 -5430.495)"/>
        <path id="Path_3550-2" data-name="Path 3550" d="M2939.378,5494.357a1.207,1.207,0,1,1-1.207,1.208A1.21,1.21,0,0,1,2939.378,5494.357Z" transform="translate(-2916.443 -5431.01)" fill="#3ecef0"/>
      </g>
    </g>
  </g>
</svg>
