<svg xmlns="http://www.w3.org/2000/svg" width="78.864" height="74.402" viewBox="0 0 78.864 74.402">
  <g id="Group_2825" data-name="Group 2825" transform="translate(-905.105 -2530.648)">
    <g id="Component_14_1" data-name="Component 14 – 1" transform="translate(905.105 2530.648)">
      <g id="Group_2357" data-name="Group 2357">
        <path id="Path_3607" data-name="Path 3607" d="M3299.7,5195.313a1.071,1.071,0,0,1,0,2.143h-6a1.071,1.071,0,0,1,0-2.143Z" transform="translate(-3247.004 -5169.499)"/>
        <path id="Path_3608" data-name="Path 3608" d="M3296.3,5178.692a1.072,1.072,0,0,1-.391,1.463l-5.193,3a1.071,1.071,0,0,1-1.071-1.855l5.193-3A1.069,1.069,0,0,1,3296.3,5178.692Z" transform="translate(-3246.131 -5165.25)"/>
        <path id="Path_3609" data-name="Path 3609" d="M3295.908,5211.627a1.071,1.071,0,0,1-1.071,1.855l-5.193-3a1.072,1.072,0,1,1,1.071-1.856Z" transform="translate(-3246.131 -5172.761)"/>
        <path id="Path_3610" data-name="Path 3610" d="M3278.926,5190.986a16.564,16.564,0,0,1-3.388,10.088,27.413,27.413,0,0,0-5.694,16.665v6.461a5.2,5.2,0,0,1-5.2,5.2h-4.834a5.2,5.2,0,0,1-5.2-5.2v-6.461a27.672,27.672,0,0,0-5.7-16.64,16.71,16.71,0,1,1,30.012-10.114Zm-5.095,8.792a14.567,14.567,0,0,0-11.826-23.357,14.648,14.648,0,0,0-14.356,14.429,14.435,14.435,0,0,0,2.969,8.953,29.846,29.846,0,0,1,6.131,17.533h10.931A29.582,29.582,0,0,1,3273.831,5199.779Zm-6.13,24.422v-.339l-10.948-1.253v.867l10.9,1.248A3.071,3.071,0,0,0,3267.7,5224.2Zm0-2.5v-2.227h-10.948v.973Zm-1.345,5.026-9.223-1.057a3.06,3.06,0,0,0,2.677,1.582h4.834A3.041,3.041,0,0,0,3266.356,5226.732Z" transform="translate(-3235.331 -5164.289)"/>
        <path id="Path_3611" data-name="Path 3611" d="M3284.07,5165.741a1.07,1.07,0,0,1,.392,1.462l-3,5.193a1.071,1.071,0,1,1-1.855-1.071l3-5.193A1.07,1.07,0,0,1,3284.07,5165.741Z" transform="translate(-3243.742 -5162.139)"/>
        <path id="Path_3612" data-name="Path 3612" d="M3280.218,5192.257c0,.4-.018.806-.054,1.2a1.072,1.072,0,0,1-1.065.975c-.033,0-.065,0-.1,0a1.072,1.072,0,0,1-.968-1.166c.03-.332.046-.67.046-1.006a10.722,10.722,0,0,0-10.711-10.71,1.071,1.071,0,0,1,0-2.143A12.867,12.867,0,0,1,3280.218,5192.257Z" transform="translate(-3240.48 -5165.559)"/>
        <path id="Path_3613" data-name="Path 3613" d="M3281.713,5201.335a1.07,1.07,0,0,1,.56,1.407,12.785,12.785,0,0,1-1.565,2.682,1.071,1.071,0,1,1-1.707-1.294,10.786,10.786,0,0,0,1.305-2.235A1.07,1.07,0,0,1,3281.713,5201.335Z" transform="translate(-3243.573 -5170.969)"/>
        <path id="Path_3614" data-name="Path 3614" d="M3271.4,5239.774v.339a3.072,3.072,0,0,1-.049.523l-10.9-1.248v-.867Z" transform="translate(-3239.034 -5180.201)" fill="#3ecef0"/>
        <path id="Path_3615" data-name="Path 3615" d="M3271.4,5234.361v2.227l-10.948-1.254v-.973Z" transform="translate(-3239.034 -5179.17)" fill="#3ecef0"/>
        <path id="Path_3616" data-name="Path 3616" d="M3260.961,5242.6l9.223,1.057a3.038,3.038,0,0,1-1.711.525h-4.834A3.058,3.058,0,0,1,3260.961,5242.6Z" transform="translate(-3239.159 -5181.21)" fill="#3ecef0"/>
        <path id="Path_3617" data-name="Path 3617" d="M3268.437,5162.071v6a1.071,1.071,0,0,1-2.143,0v-6a1.071,1.071,0,0,1,2.143,0Z" transform="translate(-3240.48 -5161)"/>
        <path id="Path_3618" data-name="Path 3618" d="M3260.643,5214.387a1.072,1.072,0,0,1-.684,1.353,1.1,1.1,0,0,1-.334.054,1.071,1.071,0,0,1-1.017-.736,31.815,31.815,0,0,0-4.929-9.368,13.091,13.091,0,0,1-1.2-1.9,1.071,1.071,0,1,1,1.9-.983,10.824,10.824,0,0,0,1,1.583A33.968,33.968,0,0,1,3260.643,5214.387Z" transform="translate(-3237.028 -5171.211)"/>
        <path id="Path_3619" data-name="Path 3619" d="M3254.133,5171.325a1.071,1.071,0,1,1-1.855,1.071l-3-5.193a1.071,1.071,0,0,1,1.856-1.071Z" transform="translate(-3236.23 -5162.139)"/>
        <path id="Path_3620" data-name="Path 3620" d="M3252.893,5197.71a1.071,1.071,0,0,1-.9,1.218,1.092,1.092,0,0,1-.159.012,1.071,1.071,0,0,1-1.059-.913,13.07,13.07,0,0,1-.141-2.047,1.071,1.071,0,1,1,2.142.02A11.034,11.034,0,0,0,3252.893,5197.71Z" transform="translate(-3236.601 -5169.401)"/>
        <path id="Path_3621" data-name="Path 3621" d="M3243.377,5181.3a1.071,1.071,0,0,1-1.072,1.855l-5.193-3a1.071,1.071,0,1,1,1.071-1.855Z" transform="translate(-3233.119 -5165.25)"/>
        <path id="Path_3622" data-name="Path 3622" d="M3243.768,5209.021a1.074,1.074,0,0,1-.391,1.464l-5.193,3a1.071,1.071,0,0,1-1.071-1.855l5.193-3A1.069,1.069,0,0,1,3243.768,5209.021Z" transform="translate(-3233.119 -5172.761)"/>
        <path id="Path_3623" data-name="Path 3623" d="M3239.051,5195.313a1.071,1.071,0,0,1,0,2.143h-6a1.071,1.071,0,0,1,0-2.143Z" transform="translate(-3231.981 -5169.499)"/>
      </g>
    </g>
    <g id="Component_14_2" data-name="Component 14 – 2" transform="translate(905.105 2530.648)">
      <g id="Group_2357-2" data-name="Group 2357">
        <path id="Path_3607-2" data-name="Path 3607" d="M3299.7,5195.313a1.071,1.071,0,0,1,0,2.143h-6a1.071,1.071,0,0,1,0-2.143Z" transform="translate(-3247.004 -5169.499)"/>
        <path id="Path_3608-2" data-name="Path 3608" d="M3296.3,5178.692a1.072,1.072,0,0,1-.391,1.463l-5.193,3a1.071,1.071,0,0,1-1.071-1.855l5.193-3A1.069,1.069,0,0,1,3296.3,5178.692Z" transform="translate(-3246.131 -5165.25)"/>
        <path id="Path_3609-2" data-name="Path 3609" d="M3295.908,5211.627a1.071,1.071,0,0,1-1.071,1.855l-5.193-3a1.072,1.072,0,1,1,1.071-1.856Z" transform="translate(-3246.131 -5172.761)"/>
        <path id="Path_3610-2" data-name="Path 3610" d="M3278.926,5190.986a16.564,16.564,0,0,1-3.388,10.088,27.413,27.413,0,0,0-5.694,16.665v6.461a5.2,5.2,0,0,1-5.2,5.2h-4.834a5.2,5.2,0,0,1-5.2-5.2v-6.461a27.672,27.672,0,0,0-5.7-16.64,16.71,16.71,0,1,1,30.012-10.114Zm-5.095,8.792a14.567,14.567,0,0,0-11.826-23.357,14.648,14.648,0,0,0-14.356,14.429,14.435,14.435,0,0,0,2.969,8.953,29.846,29.846,0,0,1,6.131,17.533h10.931A29.582,29.582,0,0,1,3273.831,5199.779Zm-6.13,24.422v-.339l-10.948-1.253v.867l10.9,1.248A3.071,3.071,0,0,0,3267.7,5224.2Zm0-2.5v-2.227h-10.948v.973Zm-1.345,5.026-9.223-1.057a3.06,3.06,0,0,0,2.677,1.582h4.834A3.041,3.041,0,0,0,3266.356,5226.732Z" transform="translate(-3235.331 -5164.289)"/>
        <path id="Path_3611-2" data-name="Path 3611" d="M3284.07,5165.741a1.07,1.07,0,0,1,.392,1.462l-3,5.193a1.071,1.071,0,1,1-1.855-1.071l3-5.193A1.07,1.07,0,0,1,3284.07,5165.741Z" transform="translate(-3243.742 -5162.139)"/>
        <path id="Path_3612-2" data-name="Path 3612" d="M3280.218,5192.257c0,.4-.018.806-.054,1.2a1.072,1.072,0,0,1-1.065.975c-.033,0-.065,0-.1,0a1.072,1.072,0,0,1-.968-1.166c.03-.332.046-.67.046-1.006a10.722,10.722,0,0,0-10.711-10.71,1.071,1.071,0,0,1,0-2.143A12.867,12.867,0,0,1,3280.218,5192.257Z" transform="translate(-3240.48 -5165.559)"/>
        <path id="Path_3613-2" data-name="Path 3613" d="M3281.713,5201.335a1.07,1.07,0,0,1,.56,1.407,12.785,12.785,0,0,1-1.565,2.682,1.071,1.071,0,1,1-1.707-1.294,10.786,10.786,0,0,0,1.305-2.235A1.07,1.07,0,0,1,3281.713,5201.335Z" transform="translate(-3243.573 -5170.969)"/>
        <path id="Path_3614-2" data-name="Path 3614" d="M3271.4,5239.774v.339a3.072,3.072,0,0,1-.049.523l-10.9-1.248v-.867Z" transform="translate(-3239.034 -5180.201)" fill="#3ecef0"/>
        <path id="Path_3615-2" data-name="Path 3615" d="M3271.4,5234.361v2.227l-10.948-1.254v-.973Z" transform="translate(-3239.034 -5179.17)" fill="#3ecef0"/>
        <path id="Path_3616-2" data-name="Path 3616" d="M3260.961,5242.6l9.223,1.057a3.038,3.038,0,0,1-1.711.525h-4.834A3.058,3.058,0,0,1,3260.961,5242.6Z" transform="translate(-3239.159 -5181.21)" fill="#3ecef0"/>
        <path id="Path_3617-2" data-name="Path 3617" d="M3268.437,5162.071v6a1.071,1.071,0,0,1-2.143,0v-6a1.071,1.071,0,0,1,2.143,0Z" transform="translate(-3240.48 -5161)"/>
        <path id="Path_3618-2" data-name="Path 3618" d="M3260.643,5214.387a1.072,1.072,0,0,1-.684,1.353,1.1,1.1,0,0,1-.334.054,1.071,1.071,0,0,1-1.017-.736,31.815,31.815,0,0,0-4.929-9.368,13.091,13.091,0,0,1-1.2-1.9,1.071,1.071,0,1,1,1.9-.983,10.824,10.824,0,0,0,1,1.583A33.968,33.968,0,0,1,3260.643,5214.387Z" transform="translate(-3237.028 -5171.211)"/>
        <path id="Path_3619-2" data-name="Path 3619" d="M3254.133,5171.325a1.071,1.071,0,1,1-1.855,1.071l-3-5.193a1.071,1.071,0,0,1,1.856-1.071Z" transform="translate(-3236.23 -5162.139)"/>
        <path id="Path_3620-2" data-name="Path 3620" d="M3252.893,5197.71a1.071,1.071,0,0,1-.9,1.218,1.092,1.092,0,0,1-.159.012,1.071,1.071,0,0,1-1.059-.913,13.07,13.07,0,0,1-.141-2.047,1.071,1.071,0,1,1,2.142.02A11.034,11.034,0,0,0,3252.893,5197.71Z" transform="translate(-3236.601 -5169.401)"/>
        <path id="Path_3621-2" data-name="Path 3621" d="M3243.377,5181.3a1.071,1.071,0,0,1-1.072,1.855l-5.193-3a1.071,1.071,0,1,1,1.071-1.855Z" transform="translate(-3233.119 -5165.25)"/>
        <path id="Path_3622-2" data-name="Path 3622" d="M3243.768,5209.021a1.074,1.074,0,0,1-.391,1.464l-5.193,3a1.071,1.071,0,0,1-1.071-1.855l5.193-3A1.069,1.069,0,0,1,3243.768,5209.021Z" transform="translate(-3233.119 -5172.761)"/>
        <path id="Path_3623-2" data-name="Path 3623" d="M3239.051,5195.313a1.071,1.071,0,0,1,0,2.143h-6a1.071,1.071,0,0,1,0-2.143Z" transform="translate(-3231.981 -5169.499)"/>
      </g>
    </g>
  </g>
</svg>
