<svg xmlns="http://www.w3.org/2000/svg" width="87.64" height="60.194" viewBox="0 0 87.64 60.194">
  <g id="Group_2823" data-name="Group 2823" transform="translate(-1146.851 -2359.034)">
    <g id="Group_2346" data-name="Group 2346" transform="translate(1146.851 2363.218)">
      <path id="Path_3514" data-name="Path 3514" d="M3621.539,4939.553v48.537a1.1,1.1,0,0,1-1.1,1.1h-66.012a1.1,1.1,0,0,1-1.1-1.1v-48.537a1.1,1.1,0,0,1,1.1-1.1h66.012A1.1,1.1,0,0,1,3621.539,4939.553Zm-2.21,47.431V4951h-63.8v35.988Zm0-38.2v-8.127h-63.8v8.127Z" transform="translate(-3553.317 -4938.449)"/>
      <path id="Path_3515" data-name="Path 3515" d="M3620.057,4941.387v8.126h-63.8v-8.126Zm-2.263,6.125v-4.125a1.106,1.106,0,0,0-1.1-1.1h-47a1.106,1.106,0,0,0-1.1,1.1v4.125a1.105,1.105,0,0,0,1.1,1.105h47A1.105,1.105,0,0,0,3617.794,4947.512Zm-50.734-2.062a1.106,1.106,0,1,0-.323.781A1.112,1.112,0,0,0,3567.06,4945.45Zm-3.571,0a1.107,1.107,0,1,0-.324.781A1.113,1.113,0,0,0,3563.489,4945.45Zm-3.572,0a1.1,1.1,0,1,0-.323.781A1.118,1.118,0,0,0,3559.917,4945.45Z" transform="translate(-3554.045 -4939.177)" fill="#3ecef0"/>
      <path id="Path_3516" data-name="Path 3516" d="M3621.852,4943.681v4.126a1.106,1.106,0,0,1-1.1,1.105h-47a1.106,1.106,0,0,1-1.105-1.105v-4.126a1.106,1.106,0,0,1,1.105-1.1h47A1.106,1.106,0,0,1,3621.852,4943.681Zm-2.21,3.021v-1.916h-44.791v1.916Z" transform="translate(-3558.103 -4939.471)"/>
      <path id="Path_3517" data-name="Path 3517" d="M3603.747,4961.215v10.513a1.105,1.105,0,0,1-1.105,1.105h-12.965a1.106,1.106,0,0,1-1.1-1.105v-10.513a1.105,1.105,0,0,1,1.1-1.1h12.965A1.1,1.1,0,0,1,3603.747,4961.215Zm-2.21,9.408v-8.3h-10.755v8.3Z" transform="translate(-3562.049 -4943.814)"/>
      <path id="Path_3518" data-name="Path 3518" d="M3602.642,4981.071a1.1,1.1,0,1,1,0,2.209h-12.965a1.1,1.1,0,1,1,0-2.209Z" transform="translate(-3562.049 -4949.005)"/>
      <path id="Path_3519" data-name="Path 3519" d="M3597.469,4988.057c.387,0,.7.5.7,1.105s-.312,1.1-.7,1.1h-8.2c-.386,0-.7-.5-.7-1.1s.313-1.105.7-1.105Z" transform="translate(-3562.049 -4950.736)"/>
      <path id="Path_3520" data-name="Path 3520" d="M3597.469,4995.043c.387,0,.7.495.7,1.105s-.312,1.1-.7,1.1h-8.2c-.386,0-.7-.5-.7-1.1s.313-1.105.7-1.105Z" transform="translate(-3562.049 -4952.466)"/>
      <rect id="Rectangle_695" data-name="Rectangle 695" width="10.755" height="8.303" transform="translate(28.733 18.507)" fill="#f28a6c"/>
      <path id="Path_3521" data-name="Path 3521" d="M3577.554,4960.11a1.1,1.1,0,1,1,0,2.21h-12.966a1.1,1.1,0,0,1,0-2.21Z" transform="translate(-3555.835 -4943.814)"/>
      <path id="Path_3522" data-name="Path 3522" d="M3577.554,4967.1a1.105,1.105,0,1,1,0,2.21h-12.966a1.105,1.105,0,0,1,0-2.21Z" transform="translate(-3555.835 -4945.544)"/>
      <path id="Path_3523" data-name="Path 3523" d="M3577.554,4974.084a1.1,1.1,0,1,1,0,2.21h-12.966a1.1,1.1,0,1,1,0-2.21Z" transform="translate(-3555.835 -4947.274)"/>
      <path id="Path_3524" data-name="Path 3524" d="M3577.554,4981.071a1.1,1.1,0,1,1,0,2.209h-12.966a1.1,1.1,0,1,1,0-2.209Z" transform="translate(-3555.835 -4949.005)"/>
      <path id="Path_3525" data-name="Path 3525" d="M3577.554,4988.057a1.105,1.105,0,1,1,0,2.21h-12.966a1.105,1.105,0,0,1,0-2.21Z" transform="translate(-3555.835 -4950.736)"/>
      <path id="Path_3526" data-name="Path 3526" d="M3577.554,4995.043a1.105,1.105,0,1,1,0,2.21h-12.966a1.105,1.105,0,0,1,0-2.21Z" transform="translate(-3555.835 -4952.466)"/>
      <path id="Path_3527" data-name="Path 3527" d="M3569.566,4945.641a1.106,1.106,0,0,1,0,1.563,1.1,1.1,0,0,1-1.886-.781,1.106,1.106,0,0,1,1.886-.783Z" transform="translate(-3556.875 -4940.15)"/>
      <path id="Path_3528" data-name="Path 3528" d="M3564.818,4945.641a1.1,1.1,0,0,1,0,1.563,1.105,1.105,0,0,1-1.886-.781,1.106,1.106,0,0,1,1.886-.783Z" transform="translate(-3555.698 -4940.15)"/>
      <path id="Path_3529" data-name="Path 3529" d="M3560.072,4945.641a1.109,1.109,0,0,1,0,1.563,1.1,1.1,0,1,1,0-1.563Z" transform="translate(-3554.522 -4940.15)"/>
    </g>
    <g id="Group_2817" data-name="Group 2817" transform="translate(1146.851 2363.218)">
      <path id="Path_3514-2" data-name="Path 3514" d="M3621.539,4939.553v48.537a1.1,1.1,0,0,1-1.1,1.1h-66.012a1.1,1.1,0,0,1-1.1-1.1v-48.537a1.1,1.1,0,0,1,1.1-1.1h66.012A1.1,1.1,0,0,1,3621.539,4939.553Zm-2.21,47.431V4951h-63.8v35.988Zm0-38.2v-8.127h-63.8v8.127Z" transform="translate(-3553.317 -4938.449)"/>
      <path id="Path_3515-2" data-name="Path 3515" d="M3620.057,4941.387v8.126h-63.8v-8.126Zm-2.263,6.125v-4.125a1.106,1.106,0,0,0-1.1-1.1h-47a1.106,1.106,0,0,0-1.1,1.1v4.125a1.105,1.105,0,0,0,1.1,1.105h47A1.105,1.105,0,0,0,3617.794,4947.512Zm-50.734-2.062a1.106,1.106,0,1,0-.323.781A1.112,1.112,0,0,0,3567.06,4945.45Zm-3.571,0a1.107,1.107,0,1,0-.324.781A1.113,1.113,0,0,0,3563.489,4945.45Zm-3.572,0a1.1,1.1,0,1,0-.323.781A1.118,1.118,0,0,0,3559.917,4945.45Z" transform="translate(-3554.045 -4939.177)" fill="#3ecef0"/>
      <path id="Path_3516-2" data-name="Path 3516" d="M3621.852,4943.681v4.126a1.106,1.106,0,0,1-1.1,1.105h-47a1.106,1.106,0,0,1-1.105-1.105v-4.126a1.106,1.106,0,0,1,1.105-1.1h47A1.106,1.106,0,0,1,3621.852,4943.681Zm-2.21,3.021v-1.916h-44.791v1.916Z" transform="translate(-3558.103 -4939.471)"/>
      <path id="Path_3517-2" data-name="Path 3517" d="M3603.747,4961.215v10.513a1.105,1.105,0,0,1-1.105,1.105h-12.965a1.106,1.106,0,0,1-1.1-1.105v-10.513a1.105,1.105,0,0,1,1.1-1.1h12.965A1.1,1.1,0,0,1,3603.747,4961.215Zm-2.21,9.408v-8.3h-10.755v8.3Z" transform="translate(-3562.049 -4943.814)"/>
      <path id="Path_3518-2" data-name="Path 3518" d="M3602.642,4981.071a1.1,1.1,0,1,1,0,2.209h-12.965a1.1,1.1,0,1,1,0-2.209Z" transform="translate(-3562.049 -4949.005)"/>
      <path id="Path_3519-2" data-name="Path 3519" d="M3597.469,4988.057c.387,0,.7.5.7,1.105s-.312,1.1-.7,1.1h-8.2c-.386,0-.7-.5-.7-1.1s.313-1.105.7-1.105Z" transform="translate(-3562.049 -4950.736)"/>
      <path id="Path_3520-2" data-name="Path 3520" d="M3597.469,4995.043c.387,0,.7.495.7,1.105s-.312,1.1-.7,1.1h-8.2c-.386,0-.7-.5-.7-1.1s.313-1.105.7-1.105Z" transform="translate(-3562.049 -4952.466)"/>
      <rect id="Rectangle_695-2" data-name="Rectangle 695" width="10.755" height="8.303" transform="translate(28.733 18.507)" fill="#f28a6c"/>
      <path id="Path_3521-2" data-name="Path 3521" d="M3577.554,4960.11a1.1,1.1,0,1,1,0,2.21h-12.966a1.1,1.1,0,0,1,0-2.21Z" transform="translate(-3555.835 -4943.814)"/>
      <path id="Path_3522-2" data-name="Path 3522" d="M3577.554,4967.1a1.105,1.105,0,1,1,0,2.21h-12.966a1.105,1.105,0,0,1,0-2.21Z" transform="translate(-3555.835 -4945.544)"/>
      <path id="Path_3523-2" data-name="Path 3523" d="M3577.554,4974.084a1.1,1.1,0,1,1,0,2.21h-12.966a1.1,1.1,0,1,1,0-2.21Z" transform="translate(-3555.835 -4947.274)"/>
      <path id="Path_3524-2" data-name="Path 3524" d="M3577.554,4981.071a1.1,1.1,0,1,1,0,2.209h-12.966a1.1,1.1,0,1,1,0-2.209Z" transform="translate(-3555.835 -4949.005)"/>
      <path id="Path_3525-2" data-name="Path 3525" d="M3577.554,4988.057a1.105,1.105,0,1,1,0,2.21h-12.966a1.105,1.105,0,0,1,0-2.21Z" transform="translate(-3555.835 -4950.736)"/>
      <path id="Path_3526-2" data-name="Path 3526" d="M3577.554,4995.043a1.105,1.105,0,1,1,0,2.21h-12.966a1.105,1.105,0,0,1,0-2.21Z" transform="translate(-3555.835 -4952.466)"/>
      <path id="Path_3527-2" data-name="Path 3527" d="M3569.566,4945.641a1.106,1.106,0,0,1,0,1.563,1.1,1.1,0,0,1-1.886-.781,1.106,1.106,0,0,1,1.886-.783Z" transform="translate(-3556.875 -4940.15)"/>
      <path id="Path_3528-2" data-name="Path 3528" d="M3564.818,4945.641a1.1,1.1,0,0,1,0,1.563,1.105,1.105,0,0,1-1.886-.781,1.106,1.106,0,0,1,1.886-.783Z" transform="translate(-3555.698 -4940.15)"/>
      <path id="Path_3529-2" data-name="Path 3529" d="M3560.072,4945.641a1.109,1.109,0,0,1,0,1.563,1.1,1.1,0,1,1,0-1.563Z" transform="translate(-3554.522 -4940.15)"/>
    </g>
    <g id="Group_2351" data-name="Group 2351" transform="translate(1185.692 2380.925)">
      <path id="Path_3561" data-name="Path 3561" d="M3636.8,4962.845v25.461a.861.861,0,0,1-.86.861h-3.613a.861.861,0,0,1-.861-.861v-25.461a.861.861,0,0,1,.861-.86h3.613A.86.86,0,0,1,3636.8,4962.845Zm-1.72,24.6v-23.741h-1.893v23.741Z" transform="translate(-3611.515 -4961.985)"/>
      <rect id="Rectangle_700" data-name="Rectangle 700" width="1.892" height="23.741" transform="translate(21.677 1.721)" fill="#e61853"/>
      <path id="Path_3562" data-name="Path 3562" d="M3627.963,4970.7v19.554a.86.86,0,0,1-.86.861h-3.612a.86.86,0,0,1-.861-.861V4970.7a.86.86,0,0,1,.861-.86h3.612A.86.86,0,0,1,3627.963,4970.7Zm-1.721,18.694v-17.833h-1.891v17.833Z" transform="translate(-3609.326 -4963.93)"/>
      <rect id="Rectangle_701" data-name="Rectangle 701" width="1.891" height="17.834" transform="translate(15.025 7.627)" fill="#e61853"/>
      <path id="Path_3563" data-name="Path 3563" d="M3619.121,4978.549V4992.2a.86.86,0,0,1-.86.861h-3.613a.86.86,0,0,1-.86-.861v-13.647a.861.861,0,0,1,.86-.861h3.613A.861.861,0,0,1,3619.121,4978.549Zm-1.72,12.787v-11.927h-1.892v11.927Z" transform="translate(-3607.135 -4965.875)"/>
      <rect id="Rectangle_702" data-name="Rectangle 702" width="1.892" height="11.927" transform="translate(8.373 13.534)" fill="#e61853"/>
      <path id="Path_3564" data-name="Path 3564" d="M3610.279,4986.4v7.741a.861.861,0,0,1-.861.86h-3.613a.86.86,0,0,1-.861-.86V4986.4a.859.859,0,0,1,.861-.86h3.613A.86.86,0,0,1,3610.279,4986.4Zm-1.721,6.881v-6.021h-1.893v6.021Z" transform="translate(-3604.945 -4967.819)"/>
      <rect id="Rectangle_703" data-name="Rectangle 703" width="1.892" height="6.02" transform="translate(1.721 19.441)" fill="#e61853"/>
    </g>
    <g id="Group_2818" data-name="Group 2818" transform="translate(1185.692 2380.925)">
      <path id="Path_3561-2" data-name="Path 3561" d="M3636.8,4962.845v25.461a.861.861,0,0,1-.86.861h-3.613a.861.861,0,0,1-.861-.861v-25.461a.861.861,0,0,1,.861-.86h3.613A.86.86,0,0,1,3636.8,4962.845Zm-1.72,24.6v-23.741h-1.893v23.741Z" transform="translate(-3611.515 -4961.985)"/>
      <rect id="Rectangle_700-2" data-name="Rectangle 700" width="1.892" height="23.741" transform="translate(21.677 1.721)" fill="#e61853"/>
      <path id="Path_3562-2" data-name="Path 3562" d="M3627.963,4970.7v19.554a.86.86,0,0,1-.86.861h-3.612a.86.86,0,0,1-.861-.861V4970.7a.86.86,0,0,1,.861-.86h3.612A.86.86,0,0,1,3627.963,4970.7Zm-1.721,18.694v-17.833h-1.891v17.833Z" transform="translate(-3609.326 -4963.93)"/>
      <rect id="Rectangle_701-2" data-name="Rectangle 701" width="1.891" height="17.834" transform="translate(15.025 7.627)" fill="#e61853"/>
      <path id="Path_3563-2" data-name="Path 3563" d="M3619.121,4978.549V4992.2a.86.86,0,0,1-.86.861h-3.613a.86.86,0,0,1-.86-.861v-13.647a.861.861,0,0,1,.86-.861h3.613A.861.861,0,0,1,3619.121,4978.549Zm-1.72,12.787v-11.927h-1.892v11.927Z" transform="translate(-3607.135 -4965.875)"/>
      <rect id="Rectangle_702-2" data-name="Rectangle 702" width="1.892" height="11.927" transform="translate(8.373 13.534)" fill="#e61853"/>
      <path id="Path_3564-2" data-name="Path 3564" d="M3610.279,4986.4v7.741a.861.861,0,0,1-.861.86h-3.613a.86.86,0,0,1-.861-.86V4986.4a.859.859,0,0,1,.861-.86h3.613A.86.86,0,0,1,3610.279,4986.4Zm-1.721,6.881v-6.021h-1.893v6.021Z" transform="translate(-3604.945 -4967.819)"/>
      <rect id="Rectangle_703-2" data-name="Rectangle 703" width="1.892" height="6.02" transform="translate(1.721 19.441)" fill="#e61853"/>
    </g>
  </g>
</svg>
