<svg xmlns="http://www.w3.org/2000/svg" width="102.315" height="61.87" viewBox="0 0 102.315 61.87">
  <g id="Group_2832" data-name="Group 2832" transform="translate(-889.32 -2732.936)">
    <g id="Component_11_1" data-name="Component 11 – 1" transform="translate(889.32 2732.936)">
      <g id="Group_2362" data-name="Group 2362" transform="translate(0 1.817)">
        <g id="Group_2359" data-name="Group 2359" transform="translate(67.306 0)">
          <path id="Path_3627" data-name="Path 3627" d="M3315.633,5431.083V5446.2a3.74,3.74,0,0,1-3.736,3.736h-18.573l-6.8,3.155a.74.74,0,0,1-1.028-.854l.585-2.3h-1.719a3.739,3.739,0,0,1-3.734-3.736v-15.113a3.739,3.739,0,0,1,3.734-3.734H3311.9A3.739,3.739,0,0,1,3315.633,5431.083Zm-1.479,15.113v-15.113a2.258,2.258,0,0,0-2.256-2.255h-27.539a2.258,2.258,0,0,0-2.255,2.255V5446.2a2.258,2.258,0,0,0,2.255,2.256h2.672a.739.739,0,0,1,.716.922l-.436,1.715,5.54-2.569a.747.747,0,0,1,.311-.068H3311.9A2.259,2.259,0,0,0,3314.154,5446.2Z" transform="translate(-3280.624 -5427.348)"/>
          <path id="Path_3628" data-name="Path 3628" d="M3314.381,5431.31v15.113a2.259,2.259,0,0,1-2.256,2.256h-18.737a.745.745,0,0,0-.31.068l-5.54,2.569.436-1.715a.739.739,0,0,0-.716-.922h-2.672a2.258,2.258,0,0,1-2.255-2.256V5431.31a2.258,2.258,0,0,1,2.255-2.255h27.539A2.259,2.259,0,0,1,3314.381,5431.31Zm-3.353,1.344a.74.74,0,0,0-.74-.74h-23.865a.74.74,0,0,0,0,1.479h23.865A.74.74,0,0,0,3311.028,5432.653Zm0,4.076a.739.739,0,0,0-.74-.739h-23.865a.74.74,0,1,0,0,1.479h23.865A.74.74,0,0,0,3311.028,5436.729Zm0,4.077a.74.74,0,0,0-.74-.739h-23.865a.74.74,0,1,0,0,1.479h23.865A.739.739,0,0,0,3311.028,5440.806Zm0,4.077a.74.74,0,0,0-.74-.74h-23.865a.74.74,0,1,0,0,1.479h23.865A.74.74,0,0,0,3311.028,5444.882Z" transform="translate(-3280.851 -5427.575)" fill="#3ecef0"/>
          <path id="Path_3629" data-name="Path 3629" d="M3310.8,5432.352a.74.74,0,1,1,0,1.479h-23.865a.74.74,0,1,1,0-1.479Z" transform="translate(-3281.365 -5428.013)"/>
          <path id="Path_3630" data-name="Path 3630" d="M3310.8,5437.053a.74.74,0,1,1,0,1.479h-23.865a.74.74,0,1,1,0-1.479Z" transform="translate(-3281.365 -5428.638)"/>
          <path id="Path_3631" data-name="Path 3631" d="M3310.8,5441.754a.74.74,0,0,1,0,1.479h-23.865a.74.74,0,0,1,0-1.479Z" transform="translate(-3281.365 -5429.263)"/>
          <path id="Path_3632" data-name="Path 3632" d="M3310.8,5446.455a.74.74,0,1,1,0,1.479h-23.865a.74.74,0,1,1,0-1.479Z" transform="translate(-3281.365 -5429.888)"/>
        </g>
        <g id="Group_2360" data-name="Group 2360" transform="translate(0 21.213)">
          <path id="Path_3633" data-name="Path 3633" d="M3206.656,5451.813h26.95a3.659,3.659,0,0,1,3.654,3.655v14.79a3.659,3.659,0,0,1-3.654,3.655h-1.683l.573,2.252a.723.723,0,0,1-.7.9.709.709,0,0,1-.3-.067l-6.657-3.087h-18.177a3.659,3.659,0,0,1-3.656-3.655v-14.79A3.659,3.659,0,0,1,3206.656,5451.813Zm0,20.652h18.336a.748.748,0,0,1,.3.066l5.421,2.514-.427-1.678a.722.722,0,0,1,.7-.9h2.615a2.21,2.21,0,0,0,2.208-2.208v-14.79a2.21,2.21,0,0,0-2.208-2.207h-26.95a2.209,2.209,0,0,0-2.208,2.207v14.79A2.21,2.21,0,0,0,3206.656,5472.465Z" transform="translate(-3203 -5451.813)"/>
          <path id="Path_3634" data-name="Path 3634" d="M3206.878,5453.482h26.95a2.21,2.21,0,0,1,2.207,2.208v14.79a2.21,2.21,0,0,1-2.207,2.207h-2.614a.723.723,0,0,0-.7.9l.426,1.678-5.421-2.514a.748.748,0,0,0-.3-.067h-18.336a2.21,2.21,0,0,1-2.208-2.207v-14.79A2.21,2.21,0,0,1,3206.878,5453.482Zm1.8,4.246h23.354a.723.723,0,1,0,0-1.447h-23.354a.723.723,0,1,0,0,1.447Zm0,3.989h23.354a.723.723,0,1,0,0-1.447h-23.354a.723.723,0,1,0,0,1.447Zm0,3.99h23.354a.724.724,0,0,0,0-1.448h-23.354a.724.724,0,0,0,0,1.448Zm0,3.99h23.354a.724.724,0,0,0,0-1.448h-23.354a.724.724,0,1,0,0,1.448Z" transform="translate(-3203.222 -5452.035)" fill="#fff" opacity="0.5"/>
          <path id="Path_3635" data-name="Path 3635" d="M3209.178,5456.71a.723.723,0,1,0,0,1.447h23.354a.723.723,0,1,0,0-1.447Z" transform="translate(-3203.725 -5452.464)"/>
          <path id="Path_3636" data-name="Path 3636" d="M3209.178,5461.31a.724.724,0,1,0,0,1.448h23.354a.724.724,0,0,0,0-1.448Z" transform="translate(-3203.725 -5453.075)"/>
          <path id="Path_3637" data-name="Path 3637" d="M3209.178,5465.91a.724.724,0,1,0,0,1.448h23.354a.724.724,0,0,0,0-1.448Z" transform="translate(-3203.725 -5453.687)"/>
          <path id="Path_3638" data-name="Path 3638" d="M3209.178,5470.511a.724.724,0,1,0,0,1.448h23.354a.724.724,0,0,0,0-1.448Z" transform="translate(-3203.725 -5454.299)"/>
        </g>
        <g id="Group_2361" data-name="Group 2361" transform="translate(36.618 18.062)">
          <path id="Path_3639" data-name="Path 3639" d="M3275.468,5453.369a17.734,17.734,0,0,1,0,25.055l-11.192,11.194a1.893,1.893,0,0,1-2.672,0l-11.192-11.194a17.717,17.717,0,1,1,25.056-25.055Zm-2.67,22.385a13.939,13.939,0,1,0-19.713,0l9.856,9.856Z" transform="translate(-3245.232 -5448.179)"/>
          <path id="Path_3640" data-name="Path 3640" d="M3273.377,5456.62a13.958,13.958,0,0,1,0,19.713l-9.857,9.856-9.856-9.856a13.939,13.939,0,1,1,19.713-19.713Zm-.842,9.8a9.016,9.016,0,1,0-9.015,9.015A9.028,9.028,0,0,0,3272.535,5466.422Z" transform="translate(-3245.811 -5448.759)" fill="#e61853"/>
        </g>
        <path id="Path_3641" data-name="Path 3641" d="M3258.6,5474.172a9.017,9.017,0,1,1,12.684-1.333A9.028,9.028,0,0,1,3258.6,5474.172Zm1.606-10.3a5.238,5.238,0,1,0,7.365-.773A5.245,5.245,0,0,0,3260.2,5463.869Z" transform="translate(-3209.947 -5431.442)"/>
      </g>
    </g>
    <g id="Component_11_2" data-name="Component 11 – 2" transform="translate(889.32 2732.936)">
      <g id="Group_2362-2" data-name="Group 2362" transform="translate(0 1.817)">
        <g id="Group_2359-2" data-name="Group 2359" transform="translate(67.306 0)">
          <path id="Path_3627-2" data-name="Path 3627" d="M3315.633,5431.083V5446.2a3.74,3.74,0,0,1-3.736,3.736h-18.573l-6.8,3.155a.74.74,0,0,1-1.028-.854l.585-2.3h-1.719a3.739,3.739,0,0,1-3.734-3.736v-15.113a3.739,3.739,0,0,1,3.734-3.734H3311.9A3.739,3.739,0,0,1,3315.633,5431.083Zm-1.479,15.113v-15.113a2.258,2.258,0,0,0-2.256-2.255h-27.539a2.258,2.258,0,0,0-2.255,2.255V5446.2a2.258,2.258,0,0,0,2.255,2.256h2.672a.739.739,0,0,1,.716.922l-.436,1.715,5.54-2.569a.747.747,0,0,1,.311-.068H3311.9A2.259,2.259,0,0,0,3314.154,5446.2Z" transform="translate(-3280.624 -5427.348)"/>
          <path id="Path_3628-2" data-name="Path 3628" d="M3314.381,5431.31v15.113a2.259,2.259,0,0,1-2.256,2.256h-18.737a.745.745,0,0,0-.31.068l-5.54,2.569.436-1.715a.739.739,0,0,0-.716-.922h-2.672a2.258,2.258,0,0,1-2.255-2.256V5431.31a2.258,2.258,0,0,1,2.255-2.255h27.539A2.259,2.259,0,0,1,3314.381,5431.31Zm-3.353,1.344a.74.74,0,0,0-.74-.74h-23.865a.74.74,0,0,0,0,1.479h23.865A.74.74,0,0,0,3311.028,5432.653Zm0,4.076a.739.739,0,0,0-.74-.739h-23.865a.74.74,0,1,0,0,1.479h23.865A.74.74,0,0,0,3311.028,5436.729Zm0,4.077a.74.74,0,0,0-.74-.739h-23.865a.74.74,0,1,0,0,1.479h23.865A.739.739,0,0,0,3311.028,5440.806Zm0,4.077a.74.74,0,0,0-.74-.74h-23.865a.74.74,0,1,0,0,1.479h23.865A.74.74,0,0,0,3311.028,5444.882Z" transform="translate(-3280.851 -5427.575)" fill="#3ecef0"/>
          <path id="Path_3629-2" data-name="Path 3629" d="M3310.8,5432.352a.74.74,0,1,1,0,1.479h-23.865a.74.74,0,1,1,0-1.479Z" transform="translate(-3281.365 -5428.013)"/>
          <path id="Path_3630-2" data-name="Path 3630" d="M3310.8,5437.053a.74.74,0,1,1,0,1.479h-23.865a.74.74,0,1,1,0-1.479Z" transform="translate(-3281.365 -5428.638)"/>
          <path id="Path_3631-2" data-name="Path 3631" d="M3310.8,5441.754a.74.74,0,0,1,0,1.479h-23.865a.74.74,0,0,1,0-1.479Z" transform="translate(-3281.365 -5429.263)"/>
          <path id="Path_3632-2" data-name="Path 3632" d="M3310.8,5446.455a.74.74,0,1,1,0,1.479h-23.865a.74.74,0,1,1,0-1.479Z" transform="translate(-3281.365 -5429.888)"/>
        </g>
        <g id="Group_2360-2" data-name="Group 2360" transform="translate(0 21.213)">
          <path id="Path_3633-2" data-name="Path 3633" d="M3206.656,5451.813h26.95a3.659,3.659,0,0,1,3.654,3.655v14.79a3.659,3.659,0,0,1-3.654,3.655h-1.683l.573,2.252a.723.723,0,0,1-.7.9.709.709,0,0,1-.3-.067l-6.657-3.087h-18.177a3.659,3.659,0,0,1-3.656-3.655v-14.79A3.659,3.659,0,0,1,3206.656,5451.813Zm0,20.652h18.336a.748.748,0,0,1,.3.066l5.421,2.514-.427-1.678a.722.722,0,0,1,.7-.9h2.615a2.21,2.21,0,0,0,2.208-2.208v-14.79a2.21,2.21,0,0,0-2.208-2.207h-26.95a2.209,2.209,0,0,0-2.208,2.207v14.79A2.21,2.21,0,0,0,3206.656,5472.465Z" transform="translate(-3203 -5451.813)"/>
          <path id="Path_3634-2" data-name="Path 3634" d="M3206.878,5453.482h26.95a2.21,2.21,0,0,1,2.207,2.208v14.79a2.21,2.21,0,0,1-2.207,2.207h-2.614a.723.723,0,0,0-.7.9l.426,1.678-5.421-2.514a.748.748,0,0,0-.3-.067h-18.336a2.21,2.21,0,0,1-2.208-2.207v-14.79A2.21,2.21,0,0,1,3206.878,5453.482Zm1.8,4.246h23.354a.723.723,0,1,0,0-1.447h-23.354a.723.723,0,1,0,0,1.447Zm0,3.989h23.354a.723.723,0,1,0,0-1.447h-23.354a.723.723,0,1,0,0,1.447Zm0,3.99h23.354a.724.724,0,0,0,0-1.448h-23.354a.724.724,0,0,0,0,1.448Zm0,3.99h23.354a.724.724,0,0,0,0-1.448h-23.354a.724.724,0,1,0,0,1.448Z" transform="translate(-3203.222 -5452.035)" fill="#fff" opacity="0.5"/>
          <path id="Path_3635-2" data-name="Path 3635" d="M3209.178,5456.71a.723.723,0,1,0,0,1.447h23.354a.723.723,0,1,0,0-1.447Z" transform="translate(-3203.725 -5452.464)"/>
          <path id="Path_3636-2" data-name="Path 3636" d="M3209.178,5461.31a.724.724,0,1,0,0,1.448h23.354a.724.724,0,0,0,0-1.448Z" transform="translate(-3203.725 -5453.075)"/>
          <path id="Path_3637-2" data-name="Path 3637" d="M3209.178,5465.91a.724.724,0,1,0,0,1.448h23.354a.724.724,0,0,0,0-1.448Z" transform="translate(-3203.725 -5453.687)"/>
          <path id="Path_3638-2" data-name="Path 3638" d="M3209.178,5470.511a.724.724,0,1,0,0,1.448h23.354a.724.724,0,0,0,0-1.448Z" transform="translate(-3203.725 -5454.299)"/>
        </g>
        <g id="Group_2361-2" data-name="Group 2361" transform="translate(36.618 18.062)">
          <path id="Path_3639-2" data-name="Path 3639" d="M3275.468,5453.369a17.734,17.734,0,0,1,0,25.055l-11.192,11.194a1.893,1.893,0,0,1-2.672,0l-11.192-11.194a17.717,17.717,0,1,1,25.056-25.055Zm-2.67,22.385a13.939,13.939,0,1,0-19.713,0l9.856,9.856Z" transform="translate(-3245.232 -5448.179)"/>
          <path id="Path_3640-2" data-name="Path 3640" d="M3273.377,5456.62a13.958,13.958,0,0,1,0,19.713l-9.857,9.856-9.856-9.856a13.939,13.939,0,1,1,19.713-19.713Zm-.842,9.8a9.016,9.016,0,1,0-9.015,9.015A9.028,9.028,0,0,0,3272.535,5466.422Z" transform="translate(-3245.811 -5448.759)" fill="#e61853"/>
        </g>
        <path id="Path_3641-2" data-name="Path 3641" d="M3258.6,5474.172a9.017,9.017,0,1,1,12.684-1.333A9.028,9.028,0,0,1,3258.6,5474.172Zm1.606-10.3a5.238,5.238,0,1,0,7.365-.773A5.245,5.245,0,0,0,3260.2,5463.869Z" transform="translate(-3209.947 -5431.442)"/>
      </g>
    </g>
  </g>
</svg>
