<svg xmlns="http://www.w3.org/2000/svg" width="89.526" height="62.129" viewBox="0 0 89.526 62.129">
  <g id="Group_2834" data-name="Group 2834" transform="translate(-149.793 -2919.51)">
    <circle id="Ellipse_71" data-name="Ellipse 71" cx="12.225" cy="12.225" r="12.225" transform="translate(200.574 2944.61)" fill="#fff"/>
    <circle id="Ellipse_97" data-name="Ellipse 97" cx="12.225" cy="12.225" r="12.225" transform="translate(200.574 2944.61)" fill="#fff"/>
    <g id="Component_7_1" data-name="Component 7 – 1" transform="translate(149.793 2919.51)">
      <g id="Group_2364" data-name="Group 2364" transform="translate(0 2.912)">
        <path id="Path_3646" data-name="Path 3646" d="M2295.84,5721.674v4.334a4.966,4.966,0,0,1-4.961,4.961h-62.492a4.967,4.967,0,0,1-4.962-4.961v-4.334a1.2,1.2,0,0,1,1.2-1.2h1.792v-33.661a5.726,5.726,0,0,1,5.719-5.72h55a5.727,5.727,0,0,1,5.72,5.72v33.661h1.792A1.2,1.2,0,0,1,2295.84,5721.674Zm-2.4,4.334v-3.136H2225.82v3.136a2.569,2.569,0,0,0,2.566,2.566h62.492A2.569,2.569,0,0,0,2293.445,5726.008Zm-2.989-5.532v-33.661a3.328,3.328,0,0,0-3.325-3.324h-55a3.327,3.327,0,0,0-3.324,3.324v33.661Z" transform="translate(-2223.425 -5681.095)"/>
        <path id="Path_3647" data-name="Path 3647" d="M2294.382,5739.227v3.137a2.569,2.569,0,0,1-2.565,2.566h-62.492a2.569,2.569,0,0,1-2.566-2.566v-3.137Z" transform="translate(-2224.363 -5697.45)" fill="#3ecef0"/>
        <path id="Path_3648" data-name="Path 3648" d="M2292.564,5687.752v33.662h-61.646v-33.662a3.328,3.328,0,0,1,3.324-3.324h55A3.329,3.329,0,0,1,2292.564,5687.752Zm-2.573,30.442v-30.548a1.2,1.2,0,0,0-1.2-1.2h-54.1a1.2,1.2,0,0,0-1.2,1.2v30.548a1.2,1.2,0,0,0,1.2,1.2h54.1A1.2,1.2,0,0,0,2289.991,5718.195Z" transform="translate(-2225.533 -5682.033)" fill="#3ecef0"/>
        <path id="Path_3649" data-name="Path 3649" d="M2291,5688.438v30.548a1.2,1.2,0,0,1-1.2,1.2h-54.1a1.2,1.2,0,0,1-1.2-1.2v-30.548a1.2,1.2,0,0,1,1.2-1.2h54.1A1.2,1.2,0,0,1,2291,5688.438Zm-2.4,29.351v-28.152h-51.708v28.152Z" transform="translate(-2226.541 -5682.824)"/>
      </g>
      <g id="Group_2367" data-name="Group 2367" transform="translate(47.907 20.509)">
        <path id="Path_3654" data-name="Path 3654" d="M2330.711,5741.384a3.409,3.409,0,0,1-4.821,4.82l-9.937-9.937a.82.82,0,0,1,0-1.161l.4-.4-.976-.975a15.708,15.708,0,1,1,2.865-2.864l.975.974.4-.4a.821.821,0,0,1,1.161,0Zm-1.162,3.659a1.767,1.767,0,0,0,0-2.5l-9.356-9.358-2.5,2.5,9.356,9.356A1.769,1.769,0,0,0,2329.548,5745.043Zm-9.69-23.758a14.069,14.069,0,1,0-4.121,9.947A13.976,13.976,0,0,0,2319.859,5721.285Zm-2.347,12.262.542-.542-.887-.887c-.088.093-.177.184-.267.274s-.182.18-.275.268Z" transform="translate(-2290.088 -5705.582)"/>
        <path id="Path_3655" data-name="Path 3655" d="M2340.356,5753.353a1.766,1.766,0,0,1-2.5,2.5l-9.356-9.356,2.5-2.5Z" transform="translate(-2300.895 -5716.389)" fill="#3ecef0"/>
        <path id="Path_3656" data-name="Path 3656" d="M2316.378,5711.977a14.069,14.069,0,1,1-9.948-4.121A13.978,13.978,0,0,1,2316.378,5711.977Zm2.389,9.948a12.338,12.338,0,1,0-3.614,8.722A12.261,12.261,0,0,0,2318.767,5721.925Z" transform="translate(-2290.728 -5706.221)" fill="#e61853"/>
        <path id="Path_3657" data-name="Path 3657" d="M2328.443,5743.394l-.542.542-.887-.887c.092-.087.184-.175.274-.267s.18-.181.268-.275Z" transform="translate(-2300.478 -5715.97)" fill="#f28a6c"/>
        <path id="Path_3658" data-name="Path 3658" d="M2315.831,5713.879a12.337,12.337,0,1,1-8.722-3.612A12.26,12.26,0,0,1,2315.831,5713.879Zm-1.16,16.286a10.7,10.7,0,1,0-7.562,3.131A10.708,10.708,0,0,0,2314.67,5730.165Z" transform="translate(-2291.406 -5706.899)"/>
        <path id="Path_3659" data-name="Path 3659" d="M2320.206,5717.363a.821.821,0,1,1-1.161,1.161,8,8,0,0,0-1.5-1.181.822.822,0,0,1,.854-1.4A9.757,9.757,0,0,1,2320.206,5717.363Z" transform="translate(-2297.702 -5708.461)"/>
        <path id="Path_3660" data-name="Path 3660" d="M2318.01,5735.188a.817.817,0,0,1,0,1.159,9.556,9.556,0,0,1-6.786,2.82,10,10,0,0,1-1.156-.069.821.821,0,1,1,.194-1.63,7.945,7.945,0,0,0,6.586-2.28A.82.82,0,0,1,2318.01,5735.188Z" transform="translate(-2295.506 -5713.844)"/>
        <path id="Path_3661" data-name="Path 3661" d="M2310.668,5714.161a.821.821,0,1,1-.253,1.622,8.012,8.012,0,0,0-6.875,2.242.821.821,0,0,1-1.161-1.161A9.66,9.66,0,0,1,2310.668,5714.161Z" transform="translate(-2293.479 -5707.963)"/>
        <path id="Path_3662" data-name="Path 3662" d="M2304.966,5736.321a.821.821,0,1,1-.869,1.393,9.611,9.611,0,0,1-1.719-1.367.82.82,0,0,1,1.161-1.159A8.05,8.05,0,0,0,2304.966,5736.321Z" transform="translate(-2293.479 -5713.844)"/>
      </g>
    </g>
    <g id="Component_7_2" data-name="Component 7 – 2" transform="translate(149.793 2919.51)">
      <g id="Group_2364-2" data-name="Group 2364" transform="translate(0 2.912)">
        <path id="Path_3646-2" data-name="Path 3646" d="M2295.84,5721.674v4.334a4.966,4.966,0,0,1-4.961,4.961h-62.492a4.967,4.967,0,0,1-4.962-4.961v-4.334a1.2,1.2,0,0,1,1.2-1.2h1.792v-33.661a5.726,5.726,0,0,1,5.719-5.72h55a5.727,5.727,0,0,1,5.72,5.72v33.661h1.792A1.2,1.2,0,0,1,2295.84,5721.674Zm-2.4,4.334v-3.136H2225.82v3.136a2.569,2.569,0,0,0,2.566,2.566h62.492A2.569,2.569,0,0,0,2293.445,5726.008Zm-2.989-5.532v-33.661a3.328,3.328,0,0,0-3.325-3.324h-55a3.327,3.327,0,0,0-3.324,3.324v33.661Z" transform="translate(-2223.425 -5681.095)"/>
        <path id="Path_3647-2" data-name="Path 3647" d="M2294.382,5739.227v3.137a2.569,2.569,0,0,1-2.565,2.566h-62.492a2.569,2.569,0,0,1-2.566-2.566v-3.137Z" transform="translate(-2224.363 -5697.45)" fill="#3ecef0"/>
        <path id="Path_3648-2" data-name="Path 3648" d="M2292.564,5687.752v33.662h-61.646v-33.662a3.328,3.328,0,0,1,3.324-3.324h55A3.329,3.329,0,0,1,2292.564,5687.752Zm-2.573,30.442v-30.548a1.2,1.2,0,0,0-1.2-1.2h-54.1a1.2,1.2,0,0,0-1.2,1.2v30.548a1.2,1.2,0,0,0,1.2,1.2h54.1A1.2,1.2,0,0,0,2289.991,5718.195Z" transform="translate(-2225.533 -5682.033)" fill="#3ecef0"/>
        <path id="Path_3649-2" data-name="Path 3649" d="M2291,5688.438v30.548a1.2,1.2,0,0,1-1.2,1.2h-54.1a1.2,1.2,0,0,1-1.2-1.2v-30.548a1.2,1.2,0,0,1,1.2-1.2h54.1A1.2,1.2,0,0,1,2291,5688.438Zm-2.4,29.351v-28.152h-51.708v28.152Z" transform="translate(-2226.541 -5682.824)"/>
      </g>
      <g id="Group_2367-2" data-name="Group 2367" transform="translate(47.907 20.509)">
        <path id="Path_3654-2" data-name="Path 3654" d="M2330.711,5741.384a3.409,3.409,0,0,1-4.821,4.82l-9.937-9.937a.82.82,0,0,1,0-1.161l.4-.4-.976-.975a15.708,15.708,0,1,1,2.865-2.864l.975.974.4-.4a.821.821,0,0,1,1.161,0Zm-1.162,3.659a1.767,1.767,0,0,0,0-2.5l-9.356-9.358-2.5,2.5,9.356,9.356A1.769,1.769,0,0,0,2329.548,5745.043Zm-9.69-23.758a14.069,14.069,0,1,0-4.121,9.947A13.976,13.976,0,0,0,2319.859,5721.285Zm-2.347,12.262.542-.542-.887-.887c-.088.093-.177.184-.267.274s-.182.18-.275.268Z" transform="translate(-2290.088 -5705.582)"/>
        <path id="Path_3655-2" data-name="Path 3655" d="M2340.356,5753.353a1.766,1.766,0,0,1-2.5,2.5l-9.356-9.356,2.5-2.5Z" transform="translate(-2300.895 -5716.389)" fill="#3ecef0"/>
        <path id="Path_3656-2" data-name="Path 3656" d="M2316.378,5711.977a14.069,14.069,0,1,1-9.948-4.121A13.978,13.978,0,0,1,2316.378,5711.977Zm2.389,9.948a12.338,12.338,0,1,0-3.614,8.722A12.261,12.261,0,0,0,2318.767,5721.925Z" transform="translate(-2290.728 -5706.221)" fill="#e61853"/>
        <path id="Path_3657-2" data-name="Path 3657" d="M2328.443,5743.394l-.542.542-.887-.887c.092-.087.184-.175.274-.267s.18-.181.268-.275Z" transform="translate(-2300.478 -5715.97)" fill="#f28a6c"/>
        <path id="Path_3658-2" data-name="Path 3658" d="M2315.831,5713.879a12.337,12.337,0,1,1-8.722-3.612A12.26,12.26,0,0,1,2315.831,5713.879Zm-1.16,16.286a10.7,10.7,0,1,0-7.562,3.131A10.708,10.708,0,0,0,2314.67,5730.165Z" transform="translate(-2291.406 -5706.899)"/>
        <path id="Path_3659-2" data-name="Path 3659" d="M2320.206,5717.363a.821.821,0,1,1-1.161,1.161,8,8,0,0,0-1.5-1.181.822.822,0,0,1,.854-1.4A9.757,9.757,0,0,1,2320.206,5717.363Z" transform="translate(-2297.702 -5708.461)"/>
        <path id="Path_3660-2" data-name="Path 3660" d="M2318.01,5735.188a.817.817,0,0,1,0,1.159,9.556,9.556,0,0,1-6.786,2.82,10,10,0,0,1-1.156-.069.821.821,0,1,1,.194-1.63,7.945,7.945,0,0,0,6.586-2.28A.82.82,0,0,1,2318.01,5735.188Z" transform="translate(-2295.506 -5713.844)"/>
        <path id="Path_3661-2" data-name="Path 3661" d="M2310.668,5714.161a.821.821,0,1,1-.253,1.622,8.012,8.012,0,0,0-6.875,2.242.821.821,0,0,1-1.161-1.161A9.66,9.66,0,0,1,2310.668,5714.161Z" transform="translate(-2293.479 -5707.963)"/>
        <path id="Path_3662-2" data-name="Path 3662" d="M2304.966,5736.321a.821.821,0,1,1-.869,1.393,9.611,9.611,0,0,1-1.719-1.367.82.82,0,0,1,1.161-1.159A8.05,8.05,0,0,0,2304.966,5736.321Z" transform="translate(-2293.479 -5713.844)"/>
      </g>
    </g>
  </g>
</svg>
