<svg xmlns="http://www.w3.org/2000/svg" width="85.02" height="65.333" viewBox="0 0 85.02 65.333">
  <g id="Group_2827" data-name="Group 2827" transform="translate(-401.819 -2537.508)">
    <g id="Component_16_1" data-name="Component 16 – 1" transform="translate(401.819 2537.508)">
      <g id="Group_2368" data-name="Group 2368">
        <path id="Path_3663" data-name="Path 3663" d="M2646.269,5228v18.121a3.371,3.371,0,0,1-3.368,3.367h-10.288a3.371,3.371,0,0,1-3.367-3.367V5228a3.372,3.372,0,0,1,3.367-3.369H2642.9A3.372,3.372,0,0,1,2646.269,5228Zm-2.26,18.121v-.25h-12.5v.25a1.109,1.109,0,0,0,1.107,1.106H2642.9A1.109,1.109,0,0,0,2644.009,5246.119Zm0-2.508V5228a1.109,1.109,0,0,0-1.108-1.108h-10.288a1.109,1.109,0,0,0-1.107,1.108v15.612Z" transform="translate(-2580.065 -5184.152)"/>
        <path id="Path_3664" data-name="Path 3664" d="M2644.9,5254.269v.249a1.11,1.11,0,0,1-1.109,1.107h-10.287a1.11,1.11,0,0,1-1.108-1.107v-.249Z" transform="translate(-2580.958 -5192.551)" fill="#e61853"/>
        <path id="Path_3665" data-name="Path 3665" d="M2622.358,5211.525v4.1a1.13,1.13,0,0,1-2.26,0v-2.967h-22.33v2.967a1.13,1.13,0,1,1-2.26,0v-2.967h-22.331v2.967a1.13,1.13,0,1,1-2.26,0v-4.1a1.13,1.13,0,0,1,1.129-1.13h23.461v-5.2a1.13,1.13,0,0,1,2.26,0v5.2h23.461A1.131,1.131,0,0,1,2622.358,5211.525Z" transform="translate(-2563.535 -5178.325)"/>
        <path id="Path_3666" data-name="Path 3666" d="M2615.505,5171.507v14.214a3.368,3.368,0,0,1-3.364,3.364h-9.892v1.356h7.156a1.13,1.13,0,0,1,0,2.259h-16.57a1.13,1.13,0,1,1,0-2.259h7.155v-1.356H2590.1a3.367,3.367,0,0,1-3.362-3.364v-14.214a3.366,3.366,0,0,1,3.362-3.362h22.046A3.367,3.367,0,0,1,2615.505,5171.507Zm-2.26,14.214v-.783h-24.253v.783a1.1,1.1,0,0,0,1.1,1.1h22.046A1.106,1.106,0,0,0,2613.246,5185.721Zm0-3.043v-11.17a1.1,1.1,0,0,0-1.1-1.1H2590.1a1.1,1.1,0,0,0-1.1,1.1v11.17Z" transform="translate(-2568.017 -5168.146)"/>
        <path id="Path_3667" data-name="Path 3667" d="M2614.139,5191.578v.782a1.106,1.106,0,0,1-1.1,1.1h-22.046a1.1,1.1,0,0,1-1.1-1.1v-.782Z" transform="translate(-2568.91 -5174.786)" fill="#3ecef0"/>
        <path id="Path_3668" data-name="Path 3668" d="M2611.953,5228v18.121a3.371,3.371,0,0,1-3.368,3.367H2598.3a3.371,3.371,0,0,1-3.366-3.367V5228a3.372,3.372,0,0,1,3.366-3.369h10.288A3.372,3.372,0,0,1,2611.953,5228Zm-2.26,18.121v-.25h-12.5v.25a1.109,1.109,0,0,0,1.107,1.106h10.288A1.109,1.109,0,0,0,2609.694,5246.119Zm0-2.508V5228a1.11,1.11,0,0,0-1.109-1.108H2598.3a1.109,1.109,0,0,0-1.107,1.108v15.612Z" transform="translate(-2570.34 -5184.152)"/>
        <path id="Path_3669" data-name="Path 3669" d="M2610.587,5254.269v.249a1.11,1.11,0,0,1-1.108,1.107h-10.288a1.11,1.11,0,0,1-1.107-1.107v-.249Z" transform="translate(-2571.234 -5192.551)" fill="#e61853"/>
        <path id="Path_3670" data-name="Path 3670" d="M2577.638,5228v18.121a3.372,3.372,0,0,1-3.368,3.367h-10.287a3.372,3.372,0,0,1-3.367-3.367V5228a3.372,3.372,0,0,1,3.367-3.369h10.287A3.372,3.372,0,0,1,2577.638,5228Zm-2.26,18.121v-.25h-12.5v.25a1.109,1.109,0,0,0,1.108,1.106h10.287A1.109,1.109,0,0,0,2575.379,5246.119Zm0-2.508V5228a1.11,1.11,0,0,0-1.109-1.108h-10.287a1.109,1.109,0,0,0-1.108,1.108v15.612Z" transform="translate(-2560.616 -5184.152)"/>
        <path id="Path_3671" data-name="Path 3671" d="M2576.273,5254.269v.249a1.11,1.11,0,0,1-1.109,1.107h-10.287a1.11,1.11,0,0,1-1.108-1.107v-.249Z" transform="translate(-2561.51 -5192.551)" fill="#e61853"/>
      </g>
    </g>
    <g id="Component_16_2" data-name="Component 16 – 2" transform="translate(401.819 2537.508)">
      <g id="Group_2368-2" data-name="Group 2368">
        <path id="Path_3663-2" data-name="Path 3663" d="M2646.269,5228v18.121a3.371,3.371,0,0,1-3.368,3.367h-10.288a3.371,3.371,0,0,1-3.367-3.367V5228a3.372,3.372,0,0,1,3.367-3.369H2642.9A3.372,3.372,0,0,1,2646.269,5228Zm-2.26,18.121v-.25h-12.5v.25a1.109,1.109,0,0,0,1.107,1.106H2642.9A1.109,1.109,0,0,0,2644.009,5246.119Zm0-2.508V5228a1.109,1.109,0,0,0-1.108-1.108h-10.288a1.109,1.109,0,0,0-1.107,1.108v15.612Z" transform="translate(-2580.065 -5184.152)"/>
        <path id="Path_3664-2" data-name="Path 3664" d="M2644.9,5254.269v.249a1.11,1.11,0,0,1-1.109,1.107h-10.287a1.11,1.11,0,0,1-1.108-1.107v-.249Z" transform="translate(-2580.958 -5192.551)" fill="#e61853"/>
        <path id="Path_3665-2" data-name="Path 3665" d="M2622.358,5211.525v4.1a1.13,1.13,0,0,1-2.26,0v-2.967h-22.33v2.967a1.13,1.13,0,1,1-2.26,0v-2.967h-22.331v2.967a1.13,1.13,0,1,1-2.26,0v-4.1a1.13,1.13,0,0,1,1.129-1.13h23.461v-5.2a1.13,1.13,0,0,1,2.26,0v5.2h23.461A1.131,1.131,0,0,1,2622.358,5211.525Z" transform="translate(-2563.535 -5178.325)"/>
        <path id="Path_3666-2" data-name="Path 3666" d="M2615.505,5171.507v14.214a3.368,3.368,0,0,1-3.364,3.364h-9.892v1.356h7.156a1.13,1.13,0,0,1,0,2.259h-16.57a1.13,1.13,0,1,1,0-2.259h7.155v-1.356H2590.1a3.367,3.367,0,0,1-3.362-3.364v-14.214a3.366,3.366,0,0,1,3.362-3.362h22.046A3.367,3.367,0,0,1,2615.505,5171.507Zm-2.26,14.214v-.783h-24.253v.783a1.1,1.1,0,0,0,1.1,1.1h22.046A1.106,1.106,0,0,0,2613.246,5185.721Zm0-3.043v-11.17a1.1,1.1,0,0,0-1.1-1.1H2590.1a1.1,1.1,0,0,0-1.1,1.1v11.17Z" transform="translate(-2568.017 -5168.146)"/>
        <path id="Path_3667-2" data-name="Path 3667" d="M2614.139,5191.578v.782a1.106,1.106,0,0,1-1.1,1.1h-22.046a1.1,1.1,0,0,1-1.1-1.1v-.782Z" transform="translate(-2568.91 -5174.786)" fill="#3ecef0"/>
        <path id="Path_3668-2" data-name="Path 3668" d="M2611.953,5228v18.121a3.371,3.371,0,0,1-3.368,3.367H2598.3a3.371,3.371,0,0,1-3.366-3.367V5228a3.372,3.372,0,0,1,3.366-3.369h10.288A3.372,3.372,0,0,1,2611.953,5228Zm-2.26,18.121v-.25h-12.5v.25a1.109,1.109,0,0,0,1.107,1.106h10.288A1.109,1.109,0,0,0,2609.694,5246.119Zm0-2.508V5228a1.11,1.11,0,0,0-1.109-1.108H2598.3a1.109,1.109,0,0,0-1.107,1.108v15.612Z" transform="translate(-2570.34 -5184.152)"/>
        <path id="Path_3669-2" data-name="Path 3669" d="M2610.587,5254.269v.249a1.11,1.11,0,0,1-1.108,1.107h-10.288a1.11,1.11,0,0,1-1.107-1.107v-.249Z" transform="translate(-2571.234 -5192.551)" fill="#e61853"/>
        <path id="Path_3670-2" data-name="Path 3670" d="M2577.638,5228v18.121a3.372,3.372,0,0,1-3.368,3.367h-10.287a3.372,3.372,0,0,1-3.367-3.367V5228a3.372,3.372,0,0,1,3.367-3.369h10.287A3.372,3.372,0,0,1,2577.638,5228Zm-2.26,18.121v-.25h-12.5v.25a1.109,1.109,0,0,0,1.108,1.106h10.287A1.109,1.109,0,0,0,2575.379,5246.119Zm0-2.508V5228a1.11,1.11,0,0,0-1.109-1.108h-10.287a1.109,1.109,0,0,0-1.108,1.108v15.612Z" transform="translate(-2560.616 -5184.152)"/>
        <path id="Path_3671-2" data-name="Path 3671" d="M2576.273,5254.269v.249a1.11,1.11,0,0,1-1.109,1.107h-10.287a1.11,1.11,0,0,1-1.108-1.107v-.249Z" transform="translate(-2561.51 -5192.551)" fill="#e61853"/>
      </g>
    </g>
  </g>
</svg>
