<svg xmlns="http://www.w3.org/2000/svg" width="84.116" height="66.807" viewBox="0 0 84.116 66.807">
  <g id="Group_2829" data-name="Group 2829" transform="translate(-149.793 -2726.322)">
    <g id="Component_6_1" data-name="Component 6 – 1" transform="translate(149.793 2726.322)">
      <g id="Group_2799" data-name="Group 2799">
        <g id="Group_2343" data-name="Group 2343" transform="translate(43.099 28.93)">
          <g id="Group_2342" data-name="Group 2342">
            <rect id="Rectangle_694" data-name="Rectangle 694" width="28.691" height="19.409" rx="2.113"/>
          </g>
          <path id="Path_3500" data-name="Path 3500" d="M2298.987,5469.194v10.73l10.446-5.365Z" transform="translate(-2289.484 -5464.633)" fill="#e61853"/>
        </g>
        <g id="Group_2355" data-name="Group 2355" transform="translate(0 0)">
          <path id="Path_3585" data-name="Path 3585" d="M2291.263,5430.6v40.445a1.343,1.343,0,0,1-1.343,1.342h-56.192a1.342,1.342,0,0,1-1.343-1.342v-12.974h-17.269a1.344,1.344,0,0,1-1.342-1.344v-40.443a1.343,1.343,0,0,1,1.342-1.343h56.193a1.343,1.343,0,0,1,1.343,1.343v12.974h17.269A1.342,1.342,0,0,1,2291.263,5430.6Zm-2.684,39.1v-29.831h-34.607V5469.7Zm0-32.516v-5.244H2235.07v5.244Zm-18.612-7.928v-3.7h-53.509v29.832h15.927V5430.6a1.342,1.342,0,0,1,1.343-1.342Zm0-6.389v-5.243h-53.509v5.243Zm-18.679,46.833v-29.831H2235.07V5469.7Z" transform="translate(-2213.775 -5414.939)"/>
          <path id="Path_3586" data-name="Path 3586" d="M2301.781,5442.481v5.243h-53.509v-5.243Zm-42.74,2.622a1.344,1.344,0,1,0-.394.948A1.35,1.35,0,0,0,2259.041,5445.1Zm-3.325,0a1.34,1.34,0,1,0-.391.948A1.358,1.358,0,0,0,2255.716,5445.1Zm-3.323,0a1.34,1.34,0,1,0-.392.948A1.352,1.352,0,0,0,2252.393,5445.1Z" transform="translate(-2226.977 -5425.48)" fill="#3ecef0"/>
          <path id="Path_3587" data-name="Path 3587" d="M2271.631,5419.289v5.244h-53.508v-5.244Zm-42.74,2.622a1.344,1.344,0,1,0-.394.948A1.345,1.345,0,0,0,2228.891,5421.911Zm-3.325,0a1.342,1.342,0,1,0-.392.948A1.348,1.348,0,0,0,2225.566,5421.911Zm-3.323,0a1.341,1.341,0,1,0-.392.948A1.351,1.351,0,0,0,2222.243,5421.911Z" transform="translate(-2215.439 -5416.604)" fill="#e61853"/>
          <path id="Path_3588" data-name="Path 3588" d="M2262.209,5459.792a1.342,1.342,0,1,1,0,2.684h-8.59a1.342,1.342,0,1,1,0-2.684Z" transform="translate(-2228.51 -5432.105)"/>
          <path id="Path_3589" data-name="Path 3589" d="M2262.209,5467.619a1.342,1.342,0,1,1,0,2.684h-8.59a1.342,1.342,0,1,1,0-2.684Z" transform="translate(-2228.51 -5435.1)"/>
          <path id="Path_3590" data-name="Path 3590" d="M2262.209,5475.446a1.343,1.343,0,0,1,0,2.685h-8.59a1.343,1.343,0,0,1,0-2.685Z" transform="translate(-2228.51 -5438.096)"/>
          <path id="Path_3591" data-name="Path 3591" d="M2263.659,5444.946a1.346,1.346,0,1,1-.948-.392A1.353,1.353,0,0,1,2263.659,5444.946Z" transform="translate(-2231.989 -5426.273)"/>
          <path id="Path_3592" data-name="Path 3592" d="M2258.276,5444.946a1.346,1.346,0,1,1-.95-.392A1.36,1.36,0,0,1,2258.276,5444.946Z" transform="translate(-2229.928 -5426.273)"/>
          <path id="Path_3593" data-name="Path 3593" d="M2252.891,5444.948a1.341,1.341,0,1,1-.95-.394A1.349,1.349,0,0,1,2252.891,5444.948Z" transform="translate(-2227.867 -5426.273)"/>
          <path id="Path_3594" data-name="Path 3594" d="M2232.058,5436.6a1.342,1.342,0,1,1,0,2.685h-8.589a1.342,1.342,0,0,1,0-2.685Z" transform="translate(-2216.971 -5423.229)"/>
          <path id="Path_3595" data-name="Path 3595" d="M2232.058,5444.426a1.342,1.342,0,1,1,0,2.684h-8.589a1.342,1.342,0,1,1,0-2.684Z" transform="translate(-2216.971 -5426.224)"/>
          <path id="Path_3596" data-name="Path 3596" d="M2232.058,5452.254a1.342,1.342,0,1,1,0,2.685h-8.589a1.342,1.342,0,0,1,0-2.685Z" transform="translate(-2216.971 -5429.22)"/>
          <path id="Path_3597" data-name="Path 3597" d="M2233.509,5421.756a1.339,1.339,0,1,1-.948-.395A1.342,1.342,0,0,1,2233.509,5421.756Z" transform="translate(-2220.45 -5417.397)"/>
          <path id="Path_3598" data-name="Path 3598" d="M2228.125,5421.756a1.34,1.34,0,1,1-.95-.395A1.347,1.347,0,0,1,2228.125,5421.756Z" transform="translate(-2218.39 -5417.397)"/>
          <path id="Path_3599" data-name="Path 3599" d="M2222.74,5421.756a1.339,1.339,0,1,1-.951-.395A1.348,1.348,0,0,1,2222.74,5421.756Z" transform="translate(-2216.328 -5417.397)"/>
        </g>
      </g>
    </g>
    <g id="Component_6_2" data-name="Component 6 – 2" transform="translate(149.793 2726.322)">
      <g id="Group_2799-2" data-name="Group 2799">
        <g id="Group_2343-2" data-name="Group 2343" transform="translate(43.099 28.93)">
          <g id="Group_2342-2" data-name="Group 2342">
            <rect id="Rectangle_694-2" data-name="Rectangle 694" width="28.691" height="19.409" rx="2.113"/>
          </g>
          <path id="Path_3500-2" data-name="Path 3500" d="M2298.987,5469.194v10.73l10.446-5.365Z" transform="translate(-2289.484 -5464.633)" fill="#e61853"/>
        </g>
        <g id="Group_2355-2" data-name="Group 2355" transform="translate(0 0)">
          <path id="Path_3585-2" data-name="Path 3585" d="M2291.263,5430.6v40.445a1.343,1.343,0,0,1-1.343,1.342h-56.192a1.342,1.342,0,0,1-1.343-1.342v-12.974h-17.269a1.344,1.344,0,0,1-1.342-1.344v-40.443a1.343,1.343,0,0,1,1.342-1.343h56.193a1.343,1.343,0,0,1,1.343,1.343v12.974h17.269A1.342,1.342,0,0,1,2291.263,5430.6Zm-2.684,39.1v-29.831h-34.607V5469.7Zm0-32.516v-5.244H2235.07v5.244Zm-18.612-7.928v-3.7h-53.509v29.832h15.927V5430.6a1.342,1.342,0,0,1,1.343-1.342Zm0-6.389v-5.243h-53.509v5.243Zm-18.679,46.833v-29.831H2235.07V5469.7Z" transform="translate(-2213.775 -5414.939)"/>
          <path id="Path_3586-2" data-name="Path 3586" d="M2301.781,5442.481v5.243h-53.509v-5.243Zm-42.74,2.622a1.344,1.344,0,1,0-.394.948A1.35,1.35,0,0,0,2259.041,5445.1Zm-3.325,0a1.34,1.34,0,1,0-.391.948A1.358,1.358,0,0,0,2255.716,5445.1Zm-3.323,0a1.34,1.34,0,1,0-.392.948A1.352,1.352,0,0,0,2252.393,5445.1Z" transform="translate(-2226.977 -5425.48)" fill="#3ecef0"/>
          <path id="Path_3587-2" data-name="Path 3587" d="M2271.631,5419.289v5.244h-53.508v-5.244Zm-42.74,2.622a1.344,1.344,0,1,0-.394.948A1.345,1.345,0,0,0,2228.891,5421.911Zm-3.325,0a1.342,1.342,0,1,0-.392.948A1.348,1.348,0,0,0,2225.566,5421.911Zm-3.323,0a1.341,1.341,0,1,0-.392.948A1.351,1.351,0,0,0,2222.243,5421.911Z" transform="translate(-2215.439 -5416.604)" fill="#e61853"/>
          <path id="Path_3588-2" data-name="Path 3588" d="M2262.209,5459.792a1.342,1.342,0,1,1,0,2.684h-8.59a1.342,1.342,0,1,1,0-2.684Z" transform="translate(-2228.51 -5432.105)"/>
          <path id="Path_3589-2" data-name="Path 3589" d="M2262.209,5467.619a1.342,1.342,0,1,1,0,2.684h-8.59a1.342,1.342,0,1,1,0-2.684Z" transform="translate(-2228.51 -5435.1)"/>
          <path id="Path_3590-2" data-name="Path 3590" d="M2262.209,5475.446a1.343,1.343,0,0,1,0,2.685h-8.59a1.343,1.343,0,0,1,0-2.685Z" transform="translate(-2228.51 -5438.096)"/>
          <path id="Path_3591-2" data-name="Path 3591" d="M2263.659,5444.946a1.346,1.346,0,1,1-.948-.392A1.353,1.353,0,0,1,2263.659,5444.946Z" transform="translate(-2231.989 -5426.273)"/>
          <path id="Path_3592-2" data-name="Path 3592" d="M2258.276,5444.946a1.346,1.346,0,1,1-.95-.392A1.36,1.36,0,0,1,2258.276,5444.946Z" transform="translate(-2229.928 -5426.273)"/>
          <path id="Path_3593-2" data-name="Path 3593" d="M2252.891,5444.948a1.341,1.341,0,1,1-.95-.394A1.349,1.349,0,0,1,2252.891,5444.948Z" transform="translate(-2227.867 -5426.273)"/>
          <path id="Path_3594-2" data-name="Path 3594" d="M2232.058,5436.6a1.342,1.342,0,1,1,0,2.685h-8.589a1.342,1.342,0,0,1,0-2.685Z" transform="translate(-2216.971 -5423.229)"/>
          <path id="Path_3595-2" data-name="Path 3595" d="M2232.058,5444.426a1.342,1.342,0,1,1,0,2.684h-8.589a1.342,1.342,0,1,1,0-2.684Z" transform="translate(-2216.971 -5426.224)"/>
          <path id="Path_3596-2" data-name="Path 3596" d="M2232.058,5452.254a1.342,1.342,0,1,1,0,2.685h-8.589a1.342,1.342,0,0,1,0-2.685Z" transform="translate(-2216.971 -5429.22)"/>
          <path id="Path_3597-2" data-name="Path 3597" d="M2233.509,5421.756a1.339,1.339,0,1,1-.948-.395A1.342,1.342,0,0,1,2233.509,5421.756Z" transform="translate(-2220.45 -5417.397)"/>
          <path id="Path_3598-2" data-name="Path 3598" d="M2228.125,5421.756a1.34,1.34,0,1,1-.95-.395A1.347,1.347,0,0,1,2228.125,5421.756Z" transform="translate(-2218.39 -5417.397)"/>
          <path id="Path_3599-2" data-name="Path 3599" d="M2222.74,5421.756a1.339,1.339,0,1,1-.951-.395A1.348,1.348,0,0,1,2222.74,5421.756Z" transform="translate(-2216.328 -5417.397)"/>
        </g>
      </g>
    </g>
  </g>
</svg>
