<svg xmlns="http://www.w3.org/2000/svg" width="84.259" height="60.194" viewBox="0 0 84.259 60.194">
  <g id="Group_2820" data-name="Group 2820" transform="translate(-401.819 -2359.034)">
    <g id="Component_4_2" data-name="Component 4 – 2" transform="translate(401.819 2359.034)">
      <g id="Group_2344" data-name="Group 2344" transform="translate(0 2.57)">
        <path id="Path_3501" data-name="Path 3501" d="M2635.463,4949.833v37.245a5.314,5.314,0,0,1-5.308,5.307h-17.461l2,2.152h3a1.232,1.232,0,1,1,0,2.464h-36.674a1.232,1.232,0,1,1,0-2.464h3l2-2.152h-17.461a5.314,5.314,0,0,1-5.308-5.307v-37.245a5.314,5.314,0,0,1,5.308-5.308h61.606A5.314,5.314,0,0,1,2635.463,4949.833ZM2633,4985.679v-34.447h-67.292v34.447Zm-67.081-36.912h66.871a2.847,2.847,0,0,0-2.633-1.777h-61.606A2.844,2.844,0,0,0,2565.917,4948.767Zm66.871,39.377h-66.871a2.844,2.844,0,0,0,2.632,1.775h61.606A2.847,2.847,0,0,0,2632.788,4988.144Zm-21.461,6.392-2-2.152h-19.956l-2,2.152Z" transform="translate(-2563.241 -4944.525)"/>
        <path id="Path_3502" data-name="Path 3502" d="M2633.66,4949.57h-66.871a2.845,2.845,0,0,1,2.632-1.777h61.606A2.847,2.847,0,0,1,2633.66,4949.57Z" transform="translate(-2564.113 -4945.328)" fill="#3ecef0"/>
        <path id="Path_3503" data-name="Path 3503" d="M2566.789,5002.36h66.871a2.848,2.848,0,0,1-2.633,1.774h-61.606A2.845,2.845,0,0,1,2566.789,5002.36Z" transform="translate(-2564.113 -4958.741)" fill="#3ecef0"/>
        <path id="Path_3504" data-name="Path 3504" d="M2627.864,4965.744a3.821,3.821,0,0,1-4.5,6.075l-9.842,7.758a3.833,3.833,0,0,1,.335,1.569,3.817,3.817,0,1,1-7.3-1.569l-9.842-7.758a3.832,3.832,0,0,1-3.589,0l-9.842,7.758a3.814,3.814,0,1,1-1.687-1.809l9.84-7.759a3.819,3.819,0,1,1,6.965,0l9.84,7.759a3.845,3.845,0,0,1,3.591,0l9.838-7.757a3.82,3.82,0,0,1,6.186-4.267Zm-1.743,3.66a1.355,1.355,0,1,0-1.916-1.916,1.353,1.353,0,0,0,0,1.916A1.356,1.356,0,0,0,2626.121,4969.4ZM2611,4982.1a1.356,1.356,0,1,0-1.918,0A1.36,1.36,0,0,0,2611,4982.1Zm-15.119-12.7a1.355,1.355,0,1,0-1.916,0A1.355,1.355,0,0,0,2595.884,4969.4Zm-15.117,12.7a1.356,1.356,0,1,0-1.918,0A1.359,1.359,0,0,0,2580.767,4982.1Z" transform="translate(-2566.375 -4949.465)"/>
        <path id="Path_3505" data-name="Path 3505" d="M2641.7,4968.292a1.354,1.354,0,1,1-.958-.4A1.356,1.356,0,0,1,2641.7,4968.292Z" transform="translate(-2581.958 -4950.269)" fill="#e61853"/>
        <path id="Path_3506" data-name="Path 3506" d="M2617.195,5007.981l2,2.151h-23.952l2-2.151Z" transform="translate(-2571.106 -4960.122)" fill="#3ecef0"/>
        <path id="Path_3507" data-name="Path 3507" d="M2621.66,4985.122a1.359,1.359,0,1,1-.96-.4A1.361,1.361,0,0,1,2621.66,4985.122Z" transform="translate(-2577.031 -4954.406)" fill="#e61853"/>
        <path id="Path_3508" data-name="Path 3508" d="M2601.614,4968.292a1.354,1.354,0,1,1-.958-.4A1.356,1.356,0,0,1,2601.614,4968.292Z" transform="translate(-2572.104 -4950.269)" fill="#e61853"/>
        <path id="Path_3509" data-name="Path 3509" d="M2581.57,4985.122a1.359,1.359,0,1,1-.959-.4A1.359,1.359,0,0,1,2581.57,4985.122Z" transform="translate(-2567.177 -4954.406)" fill="#e61853"/>
      </g>
    </g>
  </g>
</svg>
