<svg xmlns="http://www.w3.org/2000/svg" width="83.515" height="60.194" viewBox="0 0 83.515 60.194">
  <g id="Group_2828" data-name="Group 2828" transform="translate(-149.793 -2542.16)">
    <g id="Component_5_1" data-name="Component 5 – 1" transform="translate(149.793 2542.16)">
      <g id="Group_2800" data-name="Group 2800" transform="translate(0 1.672)">
        <g id="Group_2345" data-name="Group 2345" transform="translate(0 0)">
          <path id="Path_3510" data-name="Path 3510" d="M2294.282,5183.82v37.15a5.3,5.3,0,0,1-5.295,5.294h-17.417l1.993,2.146h2.988a1.229,1.229,0,1,1,0,2.458h-36.582a1.229,1.229,0,1,1,0-2.458h2.989l1.993-2.146h-17.417a5.3,5.3,0,0,1-5.295-5.294v-37.15a5.3,5.3,0,0,1,5.295-5.295h61.451A5.3,5.3,0,0,1,2294.282,5183.82Zm-2.459,35.756v-34.362H2224.7v34.362Zm-66.913-36.82h66.7a2.84,2.84,0,0,0-2.626-1.772h-61.451A2.838,2.838,0,0,0,2224.91,5182.756Zm66.7,39.279h-66.7a2.838,2.838,0,0,0,2.626,1.771h61.451A2.84,2.84,0,0,0,2291.614,5222.035Zm-21.407,6.375-1.993-2.146h-19.906l-1.993,2.146Z" transform="translate(-2222.241 -5178.525)"/>
          <path id="Path_3511" data-name="Path 3511" d="M2292.493,5183.565h-66.7a2.838,2.838,0,0,1,2.626-1.772h61.451A2.84,2.84,0,0,1,2292.493,5183.565Z" transform="translate(-2223.12 -5179.334)" fill="#3ecef0"/>
          <path id="Path_3512" data-name="Path 3512" d="M2225.789,5236.36h66.7a2.84,2.84,0,0,1-2.626,1.77h-61.451A2.838,2.838,0,0,1,2225.789,5236.36Z" transform="translate(-2223.12 -5192.85)" fill="#3ecef0"/>
          <path id="Path_3513" data-name="Path 3513" d="M2276.139,5241.981l1.993,2.146h-23.892l1.993-2.146Z" transform="translate(-2230.167 -5194.242)" fill="#3ecef0"/>
        </g>
        <g id="Group_2352" data-name="Group 2352" transform="translate(9.567 13.832)">
          <path id="Path_3565" data-name="Path 3565" d="M2260.627,5197.6v20.514a.694.694,0,0,1-.693.694h-2.912a.694.694,0,0,1-.693-.694V5197.6a.694.694,0,0,1,.693-.693h2.912A.694.694,0,0,1,2260.627,5197.6Zm-1.386,19.821V5198.3h-1.525v19.128Z" transform="translate(-2240.251 -5196.911)"/>
          <rect id="Rectangle_704" data-name="Rectangle 704" width="1.525" height="19.129" transform="translate(17.465 1.386)" fill="#e61853"/>
          <path id="Path_3566" data-name="Path 3566" d="M2253.5,5203.931v15.755a.692.692,0,0,1-.693.693h-2.91a.693.693,0,0,1-.693-.693v-15.755a.693.693,0,0,1,.693-.694h2.91A.693.693,0,0,1,2253.5,5203.931Zm-1.386,15.063v-14.369h-1.524v14.369Z" transform="translate(-2238.486 -5198.478)"/>
          <rect id="Rectangle_705" data-name="Rectangle 705" width="1.524" height="14.369" transform="translate(12.106 6.146)" fill="#e61853"/>
          <path id="Path_3567" data-name="Path 3567" d="M2246.379,5210.257v11a.693.693,0,0,1-.693.693h-2.912a.694.694,0,0,1-.693-.693v-11a.693.693,0,0,1,.693-.693h2.912A.693.693,0,0,1,2246.379,5210.257Zm-1.386,10.3v-9.61h-1.524v9.61Z" transform="translate(-2236.722 -5200.045)"/>
          <rect id="Rectangle_706" data-name="Rectangle 706" width="1.525" height="9.61" transform="translate(6.746 10.905)" fill="#e61853"/>
          <path id="Path_3568" data-name="Path 3568" d="M2239.254,5216.583v6.237a.693.693,0,0,1-.693.693h-2.911a.694.694,0,0,1-.693-.693v-6.237a.692.692,0,0,1,.693-.693h2.911A.692.692,0,0,1,2239.254,5216.583Zm-1.386,5.544v-4.852h-1.525v4.852Z" transform="translate(-2234.957 -5201.612)"/>
          <rect id="Rectangle_707" data-name="Rectangle 707" width="1.525" height="4.851" transform="translate(1.387 15.664)" fill="#e61853"/>
        </g>
        <g id="Group_2370" data-name="Group 2370" transform="translate(33.207 8.081)">
          <g id="Group_2369" data-name="Group 2369" transform="translate(0 0)">
            <circle id="Ellipse_72" data-name="Ellipse 72" cx="11.444" cy="11.444" r="11.444" transform="matrix(0.859, -0.512, 0.512, 0.859, 0, 11.72)" fill="#110239"/>
            <path id="Path_3672" data-name="Path 3672" d="M2285.044,5195.038a11.444,11.444,0,0,1,3.284,22.651Z" transform="translate(-2271.003 -5190.667)" fill="#e61853"/>
            <path id="Path_3673" data-name="Path 3673" d="M2286.152,5219.461l-.056-.005.8-11.4,9.554-6.392a11.439,11.439,0,0,1-10.3,17.794Z" transform="translate(-2271.263 -5192.338)" fill="#f8b617"/>
            <path id="Path_3674" data-name="Path 3674" d="M2281.958,5220.965a11.54,11.54,0,0,0,1.969.093l-.455-11.437-11.344-1.514A11.444,11.444,0,0,0,2281.958,5220.965Z" transform="translate(-2267.778 -5193.934)" fill="#f5a3ba"/>
          </g>
          <circle id="Ellipse_73" data-name="Ellipse 73" cx="11.66" cy="11.66" r="11.66" transform="translate(4.167 4.264)" fill="none" stroke="#000" stroke-miterlimit="10" stroke-width="2"/>
        </g>
      </g>
    </g>
    <g id="Component_5_2" data-name="Component 5 – 2" transform="translate(149.793 2542.16)">
      <g id="Group_2800-2" data-name="Group 2800" transform="translate(0 1.672)">
        <g id="Group_2345-2" data-name="Group 2345" transform="translate(0 0)">
          <path id="Path_3510-2" data-name="Path 3510" d="M2294.282,5183.82v37.15a5.3,5.3,0,0,1-5.295,5.294h-17.417l1.993,2.146h2.988a1.229,1.229,0,1,1,0,2.458h-36.582a1.229,1.229,0,1,1,0-2.458h2.989l1.993-2.146h-17.417a5.3,5.3,0,0,1-5.295-5.294v-37.15a5.3,5.3,0,0,1,5.295-5.295h61.451A5.3,5.3,0,0,1,2294.282,5183.82Zm-2.459,35.756v-34.362H2224.7v34.362Zm-66.913-36.82h66.7a2.84,2.84,0,0,0-2.626-1.772h-61.451A2.838,2.838,0,0,0,2224.91,5182.756Zm66.7,39.279h-66.7a2.838,2.838,0,0,0,2.626,1.771h61.451A2.84,2.84,0,0,0,2291.614,5222.035Zm-21.407,6.375-1.993-2.146h-19.906l-1.993,2.146Z" transform="translate(-2222.241 -5178.525)"/>
          <path id="Path_3511-2" data-name="Path 3511" d="M2292.493,5183.565h-66.7a2.838,2.838,0,0,1,2.626-1.772h61.451A2.84,2.84,0,0,1,2292.493,5183.565Z" transform="translate(-2223.12 -5179.334)" fill="#3ecef0"/>
          <path id="Path_3512-2" data-name="Path 3512" d="M2225.789,5236.36h66.7a2.84,2.84,0,0,1-2.626,1.77h-61.451A2.838,2.838,0,0,1,2225.789,5236.36Z" transform="translate(-2223.12 -5192.85)" fill="#3ecef0"/>
          <path id="Path_3513-2" data-name="Path 3513" d="M2276.139,5241.981l1.993,2.146h-23.892l1.993-2.146Z" transform="translate(-2230.167 -5194.242)" fill="#3ecef0"/>
        </g>
        <g id="Group_2352-2" data-name="Group 2352" transform="translate(9.567 13.832)">
          <path id="Path_3565-2" data-name="Path 3565" d="M2260.627,5197.6v20.514a.694.694,0,0,1-.693.694h-2.912a.694.694,0,0,1-.693-.694V5197.6a.694.694,0,0,1,.693-.693h2.912A.694.694,0,0,1,2260.627,5197.6Zm-1.386,19.821V5198.3h-1.525v19.128Z" transform="translate(-2240.251 -5196.911)"/>
          <rect id="Rectangle_704-2" data-name="Rectangle 704" width="1.525" height="19.129" transform="translate(17.465 1.386)" fill="#e61853"/>
          <path id="Path_3566-2" data-name="Path 3566" d="M2253.5,5203.931v15.755a.692.692,0,0,1-.693.693h-2.91a.693.693,0,0,1-.693-.693v-15.755a.693.693,0,0,1,.693-.694h2.91A.693.693,0,0,1,2253.5,5203.931Zm-1.386,15.063v-14.369h-1.524v14.369Z" transform="translate(-2238.486 -5198.478)"/>
          <rect id="Rectangle_705-2" data-name="Rectangle 705" width="1.524" height="14.369" transform="translate(12.106 6.146)" fill="#e61853"/>
          <path id="Path_3567-2" data-name="Path 3567" d="M2246.379,5210.257v11a.693.693,0,0,1-.693.693h-2.912a.694.694,0,0,1-.693-.693v-11a.693.693,0,0,1,.693-.693h2.912A.693.693,0,0,1,2246.379,5210.257Zm-1.386,10.3v-9.61h-1.524v9.61Z" transform="translate(-2236.722 -5200.045)"/>
          <rect id="Rectangle_706-2" data-name="Rectangle 706" width="1.525" height="9.61" transform="translate(6.746 10.905)" fill="#e61853"/>
          <path id="Path_3568-2" data-name="Path 3568" d="M2239.254,5216.583v6.237a.693.693,0,0,1-.693.693h-2.911a.694.694,0,0,1-.693-.693v-6.237a.692.692,0,0,1,.693-.693h2.911A.692.692,0,0,1,2239.254,5216.583Zm-1.386,5.544v-4.852h-1.525v4.852Z" transform="translate(-2234.957 -5201.612)"/>
          <rect id="Rectangle_707-2" data-name="Rectangle 707" width="1.525" height="4.851" transform="translate(1.387 15.664)" fill="#e61853"/>
        </g>
        <g id="Group_2370-2" data-name="Group 2370" transform="translate(33.207 8.081)">
          <g id="Group_2369-2" data-name="Group 2369" transform="translate(0 0)">
            <circle id="Ellipse_72-2" data-name="Ellipse 72" cx="11.444" cy="11.444" r="11.444" transform="matrix(0.859, -0.512, 0.512, 0.859, 0, 11.72)" fill="#110239"/>
            <path id="Path_3672-2" data-name="Path 3672" d="M2285.044,5195.038a11.444,11.444,0,0,1,3.284,22.651Z" transform="translate(-2271.003 -5190.667)" fill="#e61853"/>
            <path id="Path_3673-2" data-name="Path 3673" d="M2286.152,5219.461l-.056-.005.8-11.4,9.554-6.392a11.439,11.439,0,0,1-10.3,17.794Z" transform="translate(-2271.263 -5192.338)" fill="#f8b617"/>
            <path id="Path_3674-2" data-name="Path 3674" d="M2281.958,5220.965a11.54,11.54,0,0,0,1.969.093l-.455-11.437-11.344-1.514A11.444,11.444,0,0,0,2281.958,5220.965Z" transform="translate(-2267.778 -5193.934)" fill="#f5a3ba"/>
          </g>
          <circle id="Ellipse_73-2" data-name="Ellipse 73" cx="11.66" cy="11.66" r="11.66" transform="translate(4.167 4.264)" fill="none" stroke="#000" stroke-miterlimit="10" stroke-width="2"/>
        </g>
      </g>
    </g>
  </g>
</svg>
