<svg xmlns="http://www.w3.org/2000/svg" width="359.608" height="356.227" viewBox="0 0 359.608 356.227"><g transform="translate(0 0)"><g transform="translate(0 17.457)"><path d="M3151,2503.33v-29.424c0-17.553,5.865-39.478,33.8-44.241l.9-.159c138.9-27.159,221-75.443,249.848-94.942l1.758-1.2c10.08-6.875,22.63-15.436,38.665-8.953,8.414,3.4,14.067,12.162,14.067,21.808v29.3l-5.433,3.695c-28,18.924-134.529,83.747-329.637,123.311Zm313.551-174.585c-8.717,0-16.208,5.11-23.515,10.093l-1.782,1.211c-29.185,19.726-112.188,68.562-252.285,95.954-.288.056-.642.118-1.058.188-7,1.193-28.29,4.824-28.29,37.714v21.32c191.381-39.386,295.721-102.875,323.277-121.5l2.519-1.711v-25.794c0-6.975-3.99-13.271-9.925-15.67A23.638,23.638,0,0,0,3464.551,2328.745Z" transform="translate(-3151 -2322.113)"/><path d="M3174.945,2675.831a23.915,23.915,0,0,1-16.089-6.207h0a24,24,0,0,1-7.855-17.738V2511.522l2.654-.537c193.9-39.32,299.5-103.558,327.245-122.309l9.14-6.213v155.353a23.907,23.907,0,0,1-6.3,16.192c-62.236,67.822-162.481,107.633-306.464,121.709C3176.5,2675.794,3175.721,2675.831,3174.945,2675.831Zm-11.641-11.111a17.234,17.234,0,0,0,13.322,4.409c142.291-13.912,241.151-53.032,302.233-119.6a17.3,17.3,0,0,0,4.559-11.718V2394.96c-29.594,19.8-135.012,82.905-325.8,121.973v134.953a17.355,17.355,0,0,0,5.683,12.834Z" transform="translate(-3151 -2337.06)"/><g transform="translate(84.444 124.123)"><g transform="translate(76.889 51.253)"><path d="M3414.792,2654.5c.014,3.9-3.125,8.224-7.006,9.657l-26.773,9.876c-3.877,1.431-7.032-.532-7.045-4.383h0c-.011-3.853,3.125-8.149,7-9.6l26.772-9.992c3.88-1.45,7.037.538,7.048,4.438Z" transform="translate(-3367.559 -2578.598)" fill-rule="evenodd"/><path d="M3393.93,2555.226l.127,42.522c2.062-.013,3.547,1.45,3.554,3.854a8.777,8.777,0,0,1-5.349,7.606c-2.964,1.128-5.374-.443-5.381-3.507a8.765,8.765,0,0,1,3.679-6.663l-.127-42.7-24.986,53.166,10.747,28.178,16.134-6.021,16.139-6.025,10.55-36.662Z" transform="translate(-3365.448 -2555.226)"/></g><path d="M3270.1,2666.092c-1.972-55.31,40.714-120.06,95.163-144.339,26.995-12.04,52.829-11.823,72.753.607,19.672,12.276,31.068,34.958,32.095,63.867l-6.023.214c-.952-26.844-11.343-47.786-29.262-58.968-18.169-11.339-42-11.414-67.108-.217-52.4,23.365-93.491,85.551-91.6,138.621Z" transform="translate(-3264.926 -2493.484)"/><g transform="translate(44.219)"><path d="M3402.824,2529.12l-13.4,5.941-.5-14.021,13.395-6.006Z" transform="translate(-3338.595 -2494.019)" fill-rule="evenodd"/><rect width="112.517" height="6.023" transform="translate(4.641 49.916) rotate(-24.07)"/><path d="M3470.315,2491.271a10.129,10.129,0,0,1-5.633,8.872c-3.24,1.438-5.96-.193-6.083-3.641a10.157,10.157,0,0,1,5.634-8.87C3467.473,2486.177,3470.193,2487.808,3470.315,2491.271Z" transform="translate(-3355.849 -2487.1)"/><path d="M3333.745,2552.308a9.97,9.97,0,0,1-5.642,8.656c-3.24,1.437-5.955-.1-6.076-3.426s2.408-7.2,5.643-8.653S3333.627,2548.968,3333.745,2552.308Z" transform="translate(-3322.023 -2502.267)"/></g><g transform="translate(193.844 16.606)"><path d="M3536.887,2618.558l-13.412,5.453-.515-14.494,13.408-5.519Z" transform="translate(-3521.416 -2532.659)" fill-rule="evenodd"/><rect width="6.025" height="71.184" transform="matrix(0.999, -0.035, 0.035, 0.999, 2.856, 6.957)"/><path d="M3527,2522.372c-3.237,1.4-5.963-.3-6.086-3.8a10.091,10.091,0,0,1,5.635-8.9c3.237-1.411,5.964.293,6.089,3.809A10.049,10.049,0,0,1,3527,2522.372Z" transform="translate(-3520.908 -2509.172)"/></g><g transform="translate(0 101.106)"><path d="M3279.167,2723.619l-13.417,5.45-.482-13.56,13.412-5.512Z" transform="translate(-3263.746 -2643.414)" fill-rule="evenodd"/><rect width="6.026" height="66.599" transform="translate(2.853 6.578) rotate(-2.042)"/><path d="M3269.323,2633.906c-3.235,1.4-5.957-.125-6.073-3.4s2.414-7.076,5.649-8.485,5.958.111,6.075,3.4S3272.56,2632.508,3269.323,2633.906Z" transform="translate(-3263.245 -2621.493)"/></g></g><g transform="translate(17.52 114.533)"><path d="M3180.478,2526.306a5.892,5.892,0,0,1-3.537-1.158,6.993,6.993,0,0,1-2.653-5.734v-29.157c0-4.1,2.841-7.876,6.468-8.592l27.26-7.16a6.493,6.493,0,0,1,5.522,1.252,6.917,6.917,0,0,1,2.429,5.4v30.2a9.1,9.1,0,0,1-6.156,8.509c-.075.024-.153.044-.23.061l-27.361,6.14A6.44,6.44,0,0,1,3180.478,2526.306ZM3209.337,2481l-27.1,7.114a2.248,2.248,0,0,0-1.328,2.142v29.157c0,.057,0,.11.006.157l27.057-6.071a2.645,2.645,0,0,0,1.373-2.146v-30.2A1.411,1.411,0,0,0,3209.337,2481Zm-.481,35.694h0Z" transform="translate(-3174.288 -2474.352)"/><path d="M3197.808,2518.2a3.312,3.312,0,0,1-2.89-1.7l-7.369-13.189a3.31,3.31,0,0,1,5.78-3.229l4.011,7.18,7.205-17.669a3.31,3.31,0,1,1,6.13,2.5l-9.8,24.042a3.307,3.307,0,0,1-2.862,2.054C3197.941,2518.2,3197.875,2518.2,3197.808,2518.2Z" transform="translate(-3177.468 -2477.618)"/></g></g><g transform="translate(185.695 0)"><path d="M3445.9,2299.1c6.043-1.144,11.358,3.044,11.52,8.811.377,13.392-19.316,12.284-19.316.338C3438.109,2303.15,3441,2300.027,3445.9,2299.1Z" transform="translate(-3407.807 -2298.908)" fill="#e61853" fill-rule="evenodd"/><path d="M3451.205,2391.071c.323,8.434-8.009,14.509-16.5,13.894-20.313-1.471-37.334-21.365-36.864-40.456.245-9.871,5.377-19.371,12.285-22.189,6.407-2.613,13.664,1.3,15.324,6.429,1.239,3.829-.4,9.313.226,13.657a17.045,17.045,0,0,0,2.076,6.019C3433,2377.346,3450.671,2377.09,3451.205,2391.071Z" transform="translate(-3397.831 -2309.455)" fill="#e61853" fill-rule="evenodd"/><path d="M3470.417,2331.947c2.119-3.992,1.339-9.982,3.707-13.756,2.63-4.2,8.69-6.817,13.219-6.872,7.24-.09,14.727,5.394,19.479,10.59,7.115,7.772,11.224,19.888,22.476,21.411,11.448,1.552,20.513-8.027,32.4-9.312,10.238-1.107,20.331,3.413,23.42,13.319,2.353,7.554-1.035,13.592-5.617,16.516-4.356,2.776-10.625,2.2-14.977,4.779a9.144,9.144,0,0,0-4.309,6.635c-1.131,8.57,7.842,16.038,10.381,24.979,3.672,12.948-.136,24.153-8.113,29.363-5.679,3.711-15.507,3.65-20.7,1.683-7.977-3.018-16.519-11.353-20.079-21.5-2.121-6.041-2.994-14-5.9-19.248a39.537,39.537,0,0,0-15.871-15.377c-11.341-5.913-25.762-7.68-35.814-15.21-2.517-1.884-8.886-7.694-9.175-14.522C3454.651,2338.332,3461.435,2333.482,3470.417,2331.947Z" transform="translate(-3411.976 -2301.983)" fill="#e61853" fill-rule="evenodd"/></g></g></svg>