<svg xmlns="http://www.w3.org/2000/svg" width="40.836" height="31.227" viewBox="0 0 40.836 31.227"><g transform="translate(-235.164 -2968.582)"><path d="M259.545,2999.449a1.107,1.107,0,0,0,.841.36,1.184,1.184,0,0,0,.865-.36l14.413-14.413a1.142,1.142,0,0,0,.336-.84,1.225,1.225,0,0,0-.336-.865l-14.413-14.413a1.228,1.228,0,0,0-.865-.336,1.146,1.146,0,0,0-.841.336,1.184,1.184,0,0,0-.36.865,1.107,1.107,0,0,0,.36.841l12.347,12.37H236.365a1.142,1.142,0,0,0-.841.337,1.182,1.182,0,0,0-.36.865,1.232,1.232,0,0,0,1.2,1.2h35.527l-12.347,12.346a1.184,1.184,0,0,0-.36.865A1.107,1.107,0,0,0,259.545,2999.449Z" fill="#f8b617"/></g></svg>