<svg xmlns="http://www.w3.org/2000/svg" xmlns:xlink="http://www.w3.org/1999/xlink" width="426" height="598" viewBox="0 0 426 598"><defs><clipPath id="a"><rect width="426" height="598" transform="translate(1498 2242)" fill="none"/></clipPath><clipPath id="b"><circle cx="250.709" cy="250.709" r="250.709" transform="translate(1443.784 2549.856) rotate(-45)" fill="none"/></clipPath></defs><g transform="translate(-1498 -2242)"><g clip-path="url(#a)"><g opacity="0.26"><g clip-path="url(#b)"><rect width="569.979" height="20.097" transform="matrix(0.835, -0.551, 0.551, 0.835, 1447.32, 2535.389)" fill="#e61853"/><rect width="569.979" height="20.097" transform="matrix(0.835, -0.551, 0.551, 0.835, 1396.528, 2458.438)" fill="#e61853"/><rect width="569.979" height="20.097" transform="matrix(0.835, -0.551, 0.551, 0.835, 1421.924, 2496.913)" fill="#e61853"/><rect width="569.979" height="20.097" transform="matrix(0.835, -0.551, 0.551, 0.835, 1472.715, 2573.865)" fill="#e61853"/><rect width="569.979" height="20.097" transform="matrix(0.835, -0.551, 0.551, 0.835, 1498.111, 2612.341)" fill="#e61853"/><rect width="569.979" height="20.097" transform="matrix(0.835, -0.551, 0.551, 0.835, 1523.506, 2650.816)" fill="#e61853"/><rect width="569.979" height="20.097" transform="matrix(0.835, -0.551, 0.551, 0.835, 1548.902, 2689.292)" fill="#e61853"/><rect width="569.979" height="20.097" transform="matrix(0.835, -0.551, 0.551, 0.835, 1574.298, 2727.767)" fill="#e61853"/><rect width="569.979" height="20.097" transform="matrix(0.835, -0.551, 0.551, 0.835, 1599.694, 2766.243)" fill="#e61853"/><rect width="569.979" height="20.097" transform="matrix(0.835, -0.551, 0.551, 0.835, 1625.089, 2804.719)" fill="#e61853"/><rect width="569.979" height="20.097" transform="matrix(0.835, -0.551, 0.551, 0.835, 1650.485, 2843.195)" fill="#e61853"/><rect width="569.979" height="20.097" transform="matrix(0.835, -0.551, 0.551, 0.835, 1675.881, 2881.67)" fill="#e61853"/><rect width="569.979" height="20.097" transform="matrix(0.835, -0.551, 0.551, 0.835, 1701.277, 2920.146)" fill="#e61853"/></g></g></g></g></svg>