<svg xmlns="http://www.w3.org/2000/svg" width="160.229" height="160.226" viewBox="0 0 160.229 160.226"><g transform="translate(-1656.66 -1530.466)"><path d="M1668.226,1536.249a5.783,5.783,0,1,1-5.785-5.783A5.783,5.783,0,0,1,1668.226,1536.249Z" fill="#f8b617"/><path d="M1697.959,1536.249a5.783,5.783,0,1,1-5.784-5.783A5.783,5.783,0,0,1,1697.959,1536.249Z" fill="#f8b617"/><path d="M1727.69,1536.249a5.781,5.781,0,1,1-5.781-5.783A5.782,5.782,0,0,1,1727.69,1536.249Z" fill="#f8b617"/><path d="M1757.423,1536.249a5.782,5.782,0,1,1-5.784-5.783A5.783,5.783,0,0,1,1757.423,1536.249Z" fill="#f8b617"/><path d="M1787.156,1536.249a5.783,5.783,0,1,1-5.784-5.783A5.782,5.782,0,0,1,1787.156,1536.249Z" fill="#f8b617"/><path d="M1816.889,1536.249a5.784,5.784,0,1,1-5.784-5.783A5.784,5.784,0,0,1,1816.889,1536.249Z" fill="#f8b617"/><path d="M1668.226,1565.981a5.783,5.783,0,1,1-5.785-5.783A5.783,5.783,0,0,1,1668.226,1565.981Z" fill="#f8b617"/><path d="M1697.959,1565.981a5.783,5.783,0,1,1-5.784-5.783A5.783,5.783,0,0,1,1697.959,1565.981Z" fill="#f8b617"/><path d="M1727.69,1565.981a5.781,5.781,0,1,1-5.781-5.783A5.782,5.782,0,0,1,1727.69,1565.981Z" fill="#f8b617"/><path d="M1757.423,1565.981a5.782,5.782,0,1,1-5.784-5.783A5.783,5.783,0,0,1,1757.423,1565.981Z" fill="#f8b617"/><path d="M1787.156,1565.981a5.783,5.783,0,1,1-5.784-5.783A5.782,5.782,0,0,1,1787.156,1565.981Z" fill="#f8b617"/><path d="M1816.889,1565.981a5.784,5.784,0,1,1-5.784-5.783A5.784,5.784,0,0,1,1816.889,1565.981Z" fill="#f8b617"/><path d="M1668.226,1595.714a5.783,5.783,0,1,1-5.785-5.785A5.783,5.783,0,0,1,1668.226,1595.714Z" fill="#f8b617"/><path d="M1697.959,1595.714a5.783,5.783,0,1,1-5.784-5.785A5.783,5.783,0,0,1,1697.959,1595.714Z" fill="#f8b617"/><path d="M1727.69,1595.714a5.781,5.781,0,1,1-5.781-5.785A5.781,5.781,0,0,1,1727.69,1595.714Z" fill="#f8b617"/><path d="M1757.423,1595.714a5.782,5.782,0,1,1-5.784-5.785A5.783,5.783,0,0,1,1757.423,1595.714Z" fill="#f8b617"/><path d="M1787.156,1595.714a5.783,5.783,0,1,1-5.784-5.785A5.782,5.782,0,0,1,1787.156,1595.714Z" fill="#f8b617"/><path d="M1816.889,1595.714a5.784,5.784,0,1,1-5.784-5.785A5.784,5.784,0,0,1,1816.889,1595.714Z" fill="#f8b617"/><path d="M1668.226,1625.445a5.783,5.783,0,1,1-5.785-5.783A5.784,5.784,0,0,1,1668.226,1625.445Z" fill="#f8b617"/><path d="M1697.959,1625.445a5.783,5.783,0,1,1-5.784-5.783A5.784,5.784,0,0,1,1697.959,1625.445Z" fill="#f8b617"/><path d="M1727.69,1625.445a5.781,5.781,0,1,1-5.781-5.783A5.783,5.783,0,0,1,1727.69,1625.445Z" fill="#f8b617"/><path d="M1757.423,1625.445a5.782,5.782,0,1,1-5.784-5.783A5.784,5.784,0,0,1,1757.423,1625.445Z" fill="#f8b617"/><path d="M1787.156,1625.445a5.783,5.783,0,1,1-5.784-5.783A5.783,5.783,0,0,1,1787.156,1625.445Z" fill="#f8b617"/><path d="M1816.889,1625.445a5.784,5.784,0,1,1-5.784-5.783A5.785,5.785,0,0,1,1816.889,1625.445Z" fill="#f8b617"/><path d="M1668.226,1655.177a5.783,5.783,0,1,1-5.785-5.783A5.783,5.783,0,0,1,1668.226,1655.177Z" fill="#f8b617"/><path d="M1697.959,1655.177a5.783,5.783,0,1,1-5.784-5.783A5.783,5.783,0,0,1,1697.959,1655.177Z" fill="#f8b617"/><path d="M1727.69,1655.177a5.781,5.781,0,1,1-5.781-5.783A5.782,5.782,0,0,1,1727.69,1655.177Z" fill="#f8b617"/><path d="M1757.423,1655.177a5.782,5.782,0,1,1-5.784-5.783A5.783,5.783,0,0,1,1757.423,1655.177Z" fill="#f8b617"/><path d="M1787.156,1655.177a5.783,5.783,0,1,1-5.784-5.783A5.782,5.782,0,0,1,1787.156,1655.177Z" fill="#f8b617"/><path d="M1816.889,1655.177a5.784,5.784,0,1,1-5.784-5.783A5.784,5.784,0,0,1,1816.889,1655.177Z" fill="#f8b617"/><path d="M1668.226,1684.909a5.783,5.783,0,1,1-5.785-5.782A5.783,5.783,0,0,1,1668.226,1684.909Z" fill="#f8b617"/><path d="M1697.959,1684.909a5.783,5.783,0,1,1-5.784-5.782A5.783,5.783,0,0,1,1697.959,1684.909Z" fill="#f8b617"/><path d="M1727.69,1684.909a5.781,5.781,0,1,1-5.781-5.782A5.782,5.782,0,0,1,1727.69,1684.909Z" fill="#f8b617"/><path d="M1757.423,1684.909a5.782,5.782,0,1,1-5.784-5.782A5.783,5.783,0,0,1,1757.423,1684.909Z" fill="#f8b617"/><path d="M1787.156,1684.909a5.783,5.783,0,1,1-5.784-5.782A5.782,5.782,0,0,1,1787.156,1684.909Z" fill="#f8b617"/><path d="M1816.889,1684.909a5.784,5.784,0,1,1-5.784-5.782A5.784,5.784,0,0,1,1816.889,1684.909Z" fill="#f8b617"/></g></svg>