<svg xmlns="http://www.w3.org/2000/svg" width="30.831" height="30.831" viewBox="0 0 30.831 30.831"><path d="M3774.428,135.584l8.765-8.765a2.755,2.755,0,0,0,0-3.9l-1.948-1.947a2.755,2.755,0,0,0-3.9,0l-8.765,8.765-8.765-8.765a2.755,2.755,0,0,0-3.9,0l-1.947,1.947a2.754,2.754,0,0,0,0,3.9l8.765,8.765-8.765,8.765a2.754,2.754,0,0,0,0,3.9l1.947,1.948a2.755,2.755,0,0,0,3.9,0l8.765-8.765,8.765,8.765a2.755,2.755,0,0,0,3.9,0l1.948-1.948a2.755,2.755,0,0,0,0-3.9Z" transform="translate(-3753.169 -120.169)"/></svg>