<svg xmlns="http://www.w3.org/2000/svg" width="77.195" height="80" viewBox="0 0 77.195 80"><g transform="translate(-230.817 -2713.232)"><path d="M255.368,2717.43a.949.949,0,0,0,1.336,1.348.95.95,0,0,0,0-1.348A.969.969,0,0,0,255.368,2717.43Z" transform="translate(1.378 0.223)" fill="#e61853"/><path d="M248.479,2717.43a.948.948,0,0,0,0,1.336.944.944,0,0,0,1.335-1.336A.964.964,0,0,0,248.479,2717.43Z" transform="translate(0.987 0.223)" fill="#e61853"/><path d="M251.923,2717.431a.973.973,0,0,0,0,1.336.92.92,0,0,0,1.336,0,.94.94,0,0,0,0-1.336A.963.963,0,0,0,251.923,2717.431Z" transform="translate(1.183 0.223)" fill="#e61853"/><path d="M297.644,2775.25a.913.913,0,0,0,0-1.335.964.964,0,0,0-1.336,0,.944.944,0,0,0,1.336,1.335Z" transform="translate(3.701 3.429)" fill="#e61853"/><path d="M293.041,2775.25a.932.932,0,0,0,0-1.335.944.944,0,0,0-1.335,1.335A.94.94,0,0,0,293.041,2775.25Z" transform="translate(3.44 3.429)" fill="#e61853"/><path d="M288.44,2775.25a.915.915,0,0,0,0-1.335.944.944,0,1,0,0,1.335Z" transform="translate(3.179 3.429)" fill="#e61853"/><path d="M296.46,2717.905a4.679,4.679,0,0,0-4.673-4.673h-44.74a4.679,4.679,0,0,0-4.674,4.673v13.065h-8.254a3.305,3.305,0,0,0-3.3,3.3c0,4.739,0-17.16.01,46.327a3.3,3.3,0,0,0,3.3,3.3H264l-1.536,7.446h-4.446a.945.945,0,0,0,0,1.89h22.8a.945.945,0,0,0,0-1.89h-4.446l-1.537-7.446h29.877a3.3,3.3,0,0,0,3.3-3.3c0-1.031-.008-45.295-.01-46.327a3.3,3.3,0,0,0-3.289-3.3H296.46Zm-1.891,44.428a2.786,2.786,0,0,1-2.782,2.784h-44.74a2.788,2.788,0,0,1-2.785-2.784v-38.911h50.307Zm-50.307-44.428a2.787,2.787,0,0,1,2.785-2.784h44.74a2.786,2.786,0,0,1,2.782,2.784v3.627H244.262Zm30.181,73.437h-10.05l1.537-7.446h6.977Zm31.678-10.745a1.41,1.41,0,0,1-1.409,1.409H234.124a1.409,1.409,0,0,1-1.408-1.409v-6.572h73.406Zm-1.408-47.738a1.407,1.407,0,0,1,1.4,1.411v37.858H232.708V2734.27a1.413,1.413,0,0,1,1.411-1.411h8.254v29.474a4.679,4.679,0,0,0,4.674,4.674h44.74a4.679,4.679,0,0,0,4.673-4.674v-29.474Z" transform="translate(0)" fill="#e61853"/><path d="M286.483,2717.159H270.715a.945.945,0,0,0,0,1.89h15.768a.945.945,0,0,0,0-1.89Z" transform="translate(2.211 0.223)" fill="#e61853"/><path d="M249.524,2758.571h37.765a.945.945,0,1,0,0-1.889h-7.314v-18.823a.945.945,0,0,0-.945-.945H275.9a.945.945,0,0,0-.945.945v18.823h-1.016v-11.73a.945.945,0,0,0-.945-.945h-3.133a.945.945,0,0,0-.945.945v11.73H267.9v-12.687a.946.946,0,0,0-1.123-.928,9.919,9.919,0,0,1-2.864.113.962.962,0,0,0-.729.239.95.95,0,0,0-.311.7v12.562H261.86v-10.135a.945.945,0,0,0-.946-.945h-3.132a.945.945,0,0,0-.945.945v10.135h-6.369v-26.711a.945.945,0,0,0-1.889,0v27.656A.945.945,0,0,0,249.524,2758.571Zm27.319-19.768h1.242v17.878h-1.242ZM270.8,2745.9h1.242v10.785H270.8Zm-6.041-.771a11.143,11.143,0,0,0,1.248-.045v11.6h-1.248Zm-6.035,2.365h1.242v9.191h-1.242Z" transform="translate(1.008 0.896)" fill="#e61853"/><path d="M255.17,2736.876a10.854,10.854,0,0,0,14.418.753l1.688,1.688a.944.944,0,0,0,1.613-.668v-7.7a.945.945,0,0,0-.945-.946h-7.7a.944.944,0,0,0-.668,1.613l1.607,1.607a8.856,8.856,0,0,1-10.2.49.945.945,0,0,0-1.311,1.292A10.338,10.338,0,0,0,255.17,2736.876Zm12.058-2.918a.944.944,0,0,0,.013-1.348l-.712-.713H271v4.472l-.7-.7a.94.94,0,0,0-1.323-.013,8.962,8.962,0,0,1-10.734,1.233A10.779,10.779,0,0,0,267.227,2733.958Z" transform="translate(1.29 0.952)" fill="#e61853"/></g></svg>